DINish-BoldItalic.ufo
<glyph name="quotedbl" format="2">
  <advance width="390"/>
  <unicode hex="0022"/>
  <outline>
    <contour>
      <point x="67" y="401" type="line"/>
      <point x="187" y="401" type="line"/>
      <point x="251" y="707" type="line"/>
      <point x="131" y="707" type="line"/>
    </contour>
    <contour>
      <point x="260" y="401" type="line"/>
      <point x="379" y="401" type="line"/>
      <point x="443" y="707" type="line"/>
      <point x="324" y="707" type="line"/>
    </contour>
  </outline>
</glyph>
<glyph name="numbersign" format="2">
  <advance width="551"/>
  <unicode hex="0023"/>
  <outline>
    <contour>
      <point x="472" y="416" type="line"/>
      <point x="435" y="303" type="line"/>
      <point x="516" y="303" type="line"/>
      <point x="496" y="209" type="line"/>
      <point x="403" y="209" type="line"/>
      <point x="332" y="0" type="line"/>
      <point x="226" y="0" type="line"/>
      <point x="296" y="209" type="line"/>
      <point x="188" y="209" type="line"/>
      <point x="117" y="0" type="line"/>
      <point x="12" y="0" type="line"/>
      <point x="82" y="209" type="line"/>
      <point x="6" y="209" type="line"/>
      <point x="26" y="303" type="line"/>
      <point x="114" y="303" type="line"/>
      <point x="153" y="416" type="line"/>
      <point x="75" y="416" type="line"/>
      <point x="95" y="510" type="line"/>
      <point x="185" y="510" type="line"/>
      <point x="252" y="707" type="line"/>
      <point x="357" y="707" type="line"/>
      <point x="291" y="510" type="line"/>
      <point x="399" y="510" type="line"/>
      <point x="466" y="707" type="line"/>
      <point x="571" y="707" type="line"/>
      <point x="505" y="510" type="line"/>
      <point x="585" y="510" type="line"/>
      <point x="565" y="416" type="line"/>
    </contour>
    <contour>
      <point x="367" y="416" type="line"/>
      <point x="258" y="416" type="line"/>
      <point x="220" y="303" type="line"/>
      <point x="329" y="303" type="line"/>
    </contour>
  </outline>
</glyph>
<glyph name="dollar" format="2">
  <advance width="514"/>
  <unicode hex="0024"/>
  <outline>
    <contour>
      <point x="386" y="98" type="curve" smooth="yes"/>
      <point x="352" y="65"/>
      <point x="308" y="45"/>
      <point x="256" y="35" type="curve"/>
      <point x="236" y="-61" type="line"/>
      <point x="131" y="-61" type="line"/>
      <point x="151" y="33" type="line"/>
      <point x="102" y="41"/>
      <point x="65" y="62"/>
      <point x="43" y="96" type="curve" smooth="yes"/>
      <point x="21" y="130"/>
      <point x="14" y="175"/>
      <point x="23" y="232" type="curve"/>
      <point x="140" y="232" type="line"/>
      <point x="137" y="198"/>
      <point x="143" y="174"/>
      <point x="156" y="160" type="curve" smooth="yes"/>
      <point x="169" y="146"/>
      <point x="192" y="139"/>
      <point x="224" y="139" type="curve" smooth="yes"/>
      <point x="283" y="139"/>
      <point x="318" y="166"/>
      <point x="329" y="219" type="curve" smooth="yes"/>
      <point x="334" y="243"/>
      <point x="332" y="261"/>
      <point x="323" y="274" type="curve" smooth="yes"/>
      <point x="314" y="287"/>
      <point x="296" y="295"/>
      <point x="271" y="300" type="curve" smooth="yes"/>
      <point x="223" y="309" type="line" smooth="yes"/>
      <point x="168" y="319"/>
      <point x="130" y="339"/>
      <point x="109" y="368" type="curve" smooth="yes"/>
      <point x="87" y="397"/>
      <point x="81" y="437"/>
      <point x="91" y="488" type="curve" smooth="yes"/>
      <point x="102" y="539"/>
      <point x="125" y="580"/>
      <point x="158" y="613" type="curve" smooth="yes"/>
      <point x="192" y="646"/>
      <point x="235" y="667"/>
      <point x="285" y="677" type="curve"/>
      <point x="302" y="758" type="line"/>
      <point x="407" y="758" type="line"/>
      <point x="390" y="676" type="line"/>
      <point x="431" y="666"/>
      <point x="463" y="646"/>
      <point x="483" y="614" type="curve" smooth="yes"/>
      <point x="502" y="582"/>
      <point x="508" y="541"/>
      <point x="501" y="490" type="curve"/>
      <point x="380" y="490" type="line"/>
      <point x="383" y="519"/>
      <point x="379" y="541"/>
      <point x="368" y="554" type="curve" smooth="yes"/>
      <point x="357" y="567"/>
      <point x="338" y="574"/>
      <point x="311" y="574" type="curve" smooth="yes"/>
      <point x="286" y="574"/>
      <point x="265" y="567"/>
      <point x="248" y="554" type="curve" smooth="yes"/>
      <point x="231" y="541"/>
      <point x="222" y="523"/>
      <point x="217" y="498" type="curve" smooth="yes"/>
      <point x="212" y="476"/>
      <point x="214" y="458"/>
      <point x="225" y="446" type="curve" smooth="yes"/>
      <point x="235" y="434"/>
      <point x="255" y="425"/>
      <point x="283" y="420" type="curve" smooth="yes"/>
      <point x="339" y="409" type="line" smooth="yes"/>
      <point x="388" y="399"/>
      <point x="422" y="379"/>
      <point x="442" y="350" type="curve" smooth="yes"/>
      <point x="462" y="321"/>
      <point x="466" y="280"/>
      <point x="456" y="229" type="curve" smooth="yes"/>
      <point x="444" y="174"/>
      <point x="421" y="131"/>
    </contour>
  </outline>
</glyph>
<glyph name="percent" format="2">
  <advance width="925"/>
  <unicode hex="0025"/>
  <outline>
    <contour>
      <point x="180" y="270" type="curve" smooth="yes"/>
      <point x="227" y="270"/>
      <point x="265" y="283"/>
      <point x="292" y="309" type="curve" smooth="yes"/>
      <point x="320" y="335"/>
      <point x="338" y="372"/>
      <point x="349" y="423" type="curve" smooth="yes"/>
      <point x="379" y="568" type="line" smooth="yes"/>
      <point x="389" y="616"/>
      <point x="386" y="653"/>
      <point x="369" y="677" type="curve" smooth="yes"/>
      <point x="352" y="701"/>
      <point x="319" y="713"/>
      <point x="272" y="713" type="curve" smooth="yes"/>
      <point x="227" y="713"/>
      <point x="191" y="700"/>
      <point x="162" y="676" type="curve" smooth="yes"/>
      <point x="133" y="652"/>
      <point x="114" y="616"/>
      <point x="104" y="568" type="curve" smooth="yes"/>
      <point x="74" y="423" type="line" smooth="yes"/>
      <point x="63" y="372"/>
      <point x="67" y="335"/>
      <point x="83" y="309" type="curve" smooth="yes"/>
      <point x="100" y="283"/>
      <point x="132" y="270"/>
    </contour>
    <contour>
      <point x="160" y="0" type="line"/>
      <point x="260" y="0" type="line"/>
      <point x="804" y="712" type="line"/>
      <point x="702" y="712" type="line"/>
    </contour>
    <contour>
      <point x="175" y="376" type="curve" smooth="yes"/>
      <point x="173" y="386"/>
      <point x="175" y="403"/>
      <point x="180" y="428" type="curve" smooth="yes"/>
      <point x="206" y="555" type="line" smooth="yes"/>
      <point x="212" y="581"/>
      <point x="218" y="598"/>
      <point x="224" y="608" type="curve" smooth="yes"/>
      <point x="230" y="618"/>
      <point x="240" y="623"/>
      <point x="254" y="623" type="curve" smooth="yes"/>
      <point x="268" y="623"/>
      <point x="274" y="618"/>
      <point x="276" y="608" type="curve" smooth="yes"/>
      <point x="278" y="598"/>
      <point x="277" y="581"/>
      <point x="271" y="555" type="curve" smooth="yes"/>
      <point x="245" y="428" type="line" smooth="yes"/>
      <point x="239" y="401"/>
      <point x="234" y="384"/>
      <point x="229" y="375" type="curve" smooth="yes"/>
      <point x="224" y="366"/>
      <point x="213" y="361"/>
      <point x="199" y="361" type="curve" smooth="yes"/>
      <point x="185" y="361"/>
      <point x="177" y="366"/>
    </contour>
    <contour>
      <point x="690" y="-6" type="curve" smooth="yes"/>
      <point x="737" y="-6"/>
      <point x="774" y="6"/>
      <point x="802" y="32" type="curve" smooth="yes"/>
      <point x="829" y="58"/>
      <point x="849" y="95"/>
      <point x="859" y="146" type="curve" smooth="yes"/>
      <point x="890" y="292" type="line" smooth="yes"/>
      <point x="900" y="340"/>
      <point x="895" y="376"/>
      <point x="878" y="400" type="curve" smooth="yes"/>
      <point x="861" y="424"/>
      <point x="829" y="436"/>
      <point x="782" y="436" type="curve" smooth="yes"/>
      <point x="737" y="436"/>
      <point x="701" y="424"/>
      <point x="672" y="400" type="curve" smooth="yes"/>
      <point x="643" y="376"/>
      <point x="624" y="340"/>
      <point x="614" y="292" type="curve" smooth="yes"/>
      <point x="583" y="146" type="line" smooth="yes"/>
      <point x="573" y="95"/>
      <point x="577" y="58"/>
      <point x="594" y="32" type="curve" smooth="yes"/>
      <point x="610" y="6"/>
      <point x="642" y="-6"/>
    </contour>
    <contour>
      <point x="685" y="99" type="curve" smooth="yes"/>
      <point x="683" y="109"/>
      <point x="685" y="127"/>
      <point x="691" y="152" type="curve" smooth="yes"/>
      <point x="717" y="279" type="line" smooth="yes"/>
      <point x="722" y="305"/>
      <point x="728" y="322"/>
      <point x="734" y="332" type="curve" smooth="yes"/>
      <point x="740" y="342"/>
      <point x="749" y="346"/>
      <point x="763" y="346" type="curve" smooth="yes"/>
      <point x="777" y="346"/>
      <point x="785" y="342"/>
      <point x="787" y="332" type="curve" smooth="yes"/>
      <point x="789" y="322"/>
      <point x="786" y="305"/>
      <point x="781" y="279" type="curve" smooth="yes"/>
      <point x="755" y="152" type="line" smooth="yes"/>
      <point x="749" y="125"/>
      <point x="743" y="107"/>
      <point x="738" y="98" type="curve" smooth="yes"/>
      <point x="734" y="89"/>
      <point x="723" y="85"/>
      <point x="709" y="85" type="curve" smooth="yes"/>
      <point x="695" y="85"/>
      <point x="687" y="89"/>
    </contour>
  </outline>
</glyph>
<glyph name="ampersand" format="2">
  <advance width="612"/>
  <unicode hex="0026"/>
  <outline>
    <contour>
      <point x="176" y="-11" type="curve" smooth="yes"/>
      <point x="211" y="-11"/>
      <point x="244" y="-5"/>
      <point x="273" y="7" type="curve" smooth="yes"/>
      <point x="303" y="19"/>
      <point x="334" y="40"/>
      <point x="365" y="69" type="curve"/>
      <point x="368" y="63" type="line" smooth="yes"/>
      <point x="381" y="38"/>
      <point x="395" y="22"/>
      <point x="407" y="13" type="curve" smooth="yes"/>
      <point x="419" y="4"/>
      <point x="437" y="0"/>
      <point x="461" y="0" type="curve" smooth="yes"/>
      <point x="510" y="0" type="line"/>
      <point x="533" y="110" type="line"/>
      <point x="511" y="110" type="line" smooth="yes"/>
      <point x="497" y="110"/>
      <point x="485" y="118"/>
      <point x="474" y="136" type="curve" smooth="yes"/>
      <point x="460" y="163" type="line"/>
      <point x="567" y="269" type="line"/>
      <point x="502" y="340" type="line"/>
      <point x="413" y="252" type="line"/>
      <point x="349" y="372" type="line"/>
      <point x="400" y="408"/>
      <point x="436" y="440"/>
      <point x="459" y="467" type="curve" smooth="yes"/>
      <point x="482" y="494"/>
      <point x="496" y="524"/>
      <point x="502" y="555" type="curve" smooth="yes"/>
      <point x="509" y="585"/>
      <point x="507" y="612"/>
      <point x="498" y="637" type="curve" smooth="yes"/>
      <point x="490" y="662"/>
      <point x="473" y="682"/>
      <point x="450" y="696" type="curve" smooth="yes"/>
      <point x="427" y="710"/>
      <point x="397" y="718"/>
      <point x="364" y="718" type="curve" smooth="yes"/>
      <point x="331" y="718"/>
      <point x="301" y="711"/>
      <point x="272" y="697" type="curve" smooth="yes"/>
      <point x="243" y="683"/>
      <point x="218" y="663"/>
      <point x="198" y="638" type="curve" smooth="yes"/>
      <point x="177" y="613"/>
      <point x="164" y="585"/>
      <point x="157" y="554" type="curve" smooth="yes"/>
      <point x="152" y="529"/>
      <point x="153" y="506"/>
      <point x="159" y="483" type="curve" smooth="yes"/>
      <point x="166" y="460"/>
      <point x="178" y="429"/>
      <point x="198" y="390" type="curve"/>
      <point x="144" y="352"/>
      <point x="105" y="317"/>
      <point x="79" y="284" type="curve" smooth="yes"/>
      <point x="53" y="251"/>
      <point x="36" y="214"/>
      <point x="27" y="175" type="curve" smooth="yes"/>
      <point x="16" y="119"/>
      <point x="22" y="74"/>
      <point x="48" y="40" type="curve" smooth="yes"/>
      <point x="74" y="6"/>
      <point x="117" y="-11"/>
    </contour>
    <contour>
      <point x="303" y="461" type="curve"/>
      <point x="289" y="488"/>
      <point x="281" y="507"/>
      <point x="278" y="520" type="curve" smooth="yes"/>
      <point x="275" y="533"/>
      <point x="275" y="546"/>
      <point x="277" y="559" type="curve" smooth="yes"/>
      <point x="281" y="577"/>
      <point x="289" y="592"/>
      <point x="301" y="603" type="curve" smooth="yes"/>
      <point x="314" y="614"/>
      <point x="329" y="620"/>
      <point x="345" y="620" type="curve" smooth="yes"/>
      <point x="361" y="620"/>
      <point x="373" y="614"/>
      <point x="380" y="603" type="curve" smooth="yes"/>
      <point x="388" y="592"/>
      <point x="391" y="577"/>
      <point x="387" y="559" type="curve" smooth="yes"/>
      <point x="384" y="543"/>
      <point x="377" y="528"/>
      <point x="365" y="514" type="curve" smooth="yes"/>
      <point x="353" y="500"/>
      <point x="332" y="482"/>
    </contour>
    <contour>
      <point x="157" y="121" type="curve" smooth="yes"/>
      <point x="146" y="136"/>
      <point x="145" y="157"/>
      <point x="150" y="184" type="curve" smooth="yes"/>
      <point x="154" y="202"/>
      <point x="163" y="221"/>
      <point x="178" y="239" type="curve" smooth="yes"/>
      <point x="192" y="257"/>
      <point x="214" y="276"/>
      <point x="245" y="299" type="curve"/>
      <point x="319" y="158" type="line"/>
      <point x="295" y="135"/>
      <point x="275" y="120"/>
      <point x="259" y="111" type="curve" smooth="yes"/>
      <point x="243" y="102"/>
      <point x="226" y="98"/>
      <point x="209" y="98" type="curve" smooth="yes"/>
      <point x="185" y="98"/>
      <point x="168" y="106"/>
    </contour>
  </outline>
</glyph>
<glyph name="quotesingle" format="2">
  <advance width="197"/>
  <unicode hex="0027"/>
  <outline>
    <contour>
      <point x="67" y="401" type="line"/>
      <point x="187" y="401" type="line"/>
      <point x="251" y="707" type="line"/>
      <point x="131" y="707" type="line"/>
    </contour>
  </outline>
</glyph>
<glyph name="parenleft" format="2">
  <advance width="317"/>
  <unicode hex="0028"/>
  <outline>
    <contour>
      <point x="105" y="-86" type="curve"/>
      <point x="198" y="-86" type="line"/>
      <point x="180" y="-21"/>
      <point x="170" y="48"/>
      <point x="168" y="120" type="curve" smooth="yes"/>
      <point x="166" y="192"/>
      <point x="172" y="264"/>
      <point x="187" y="336" type="curve" smooth="yes"/>
      <point x="202" y="408"/>
      <point x="225" y="480"/>
      <point x="257" y="552" type="curve" smooth="yes"/>
      <point x="289" y="624"/>
      <point x="327" y="693"/>
      <point x="374" y="758" type="curve"/>
      <point x="282" y="758" type="line"/>
      <point x="166" y="630"/>
      <point x="93" y="490"/>
      <point x="61" y="336" type="curve" smooth="yes"/>
      <point x="29" y="185"/>
      <point x="44" y="44"/>
    </contour>
  </outline>
</glyph>
<glyph name="parenright" format="2">
  <advance width="317"/>
  <unicode hex="0029"/>
  <outline>
    <contour>
      <point x="-27" y="-86" type="curve"/>
      <point x="66" y="-86" type="line"/>
      <point x="181" y="44"/>
      <point x="254" y="185"/>
      <point x="286" y="336" type="curve" smooth="yes"/>
      <point x="318" y="490"/>
      <point x="303" y="630"/>
      <point x="241" y="758" type="curve"/>
      <point x="149" y="758" type="line"/>
      <point x="168" y="693"/>
      <point x="178" y="624"/>
      <point x="180" y="552" type="curve" smooth="yes"/>
      <point x="182" y="480"/>
      <point x="175" y="408"/>
      <point x="160" y="336" type="curve" smooth="yes"/>
      <point x="145" y="264"/>
      <point x="122" y="192"/>
      <point x="90" y="120" type="curve" smooth="yes"/>
      <point x="58" y="48"/>
      <point x="19" y="-21"/>
    </contour>
  </outline>
</glyph>
<glyph name="asterisk" format="2">
  <advance width="386"/>
  <unicode hex="002A"/>
  <outline>
    <contour>
      <point x="207" y="498" type="line"/>
      <point x="117" y="452" type="line"/>
      <point x="96" y="507" type="line"/>
      <point x="188" y="554" type="line"/>
      <point x="116" y="601" type="line"/>
      <point x="159" y="656" type="line"/>
      <point x="230" y="611" type="line"/>
      <point x="250" y="707" type="line"/>
      <point x="320" y="707" type="line"/>
      <point x="300" y="610" type="line"/>
      <point x="389" y="656" type="line"/>
      <point x="409" y="601" type="line"/>
      <point x="317" y="554" type="line"/>
      <point x="390" y="507" type="line"/>
      <point x="346" y="452" type="line"/>
      <point x="276" y="497" type="line"/>
      <point x="256" y="398" type="line"/>
      <point x="186" y="398" type="line"/>
    </contour>
  </outline>
</glyph>
<glyph name="comma" format="2">
  <advance width="197"/>
  <unicode hex="002C"/>
  <outline>
    <contour>
      <point x="13" y="140" type="line"/>
      <point x="133" y="140" type="line"/>
      <point x="90" y="-65" type="line"/>
      <point x="-51" y="-166" type="line"/>
    </contour>
  </outline>
</glyph>
<glyph name="hyphen" format="2">
  <advance width="402"/>
  <unicode hex="002D"/>
  <outline>
    <contour>
      <point x="91" y="413" type="line"/>
      <point x="373" y="413" type="line"/>
      <point x="348" y="295" type="line"/>
      <point x="66" y="295" type="line"/>
    </contour>
  </outline>
</glyph>
<glyph name="slash" format="2">
  <advance width="414"/>
  <unicode hex="002F"/>
  <outline>
    <contour>
      <point x="355" y="712" type="line"/>
      <point x="462" y="712" type="line"/>
      <point x="95" y="-10" type="line"/>
      <point x="-11" y="-10" type="line"/>
    </contour>
  </outline>
</glyph>
<glyph name="zero" format="2">
  <advance width="524"/>
  <unicode hex="0030"/>
  <outline>
    <contour>
      <point x="58" y="50" type="curve" smooth="yes"/>
      <point x="33" y="91"/>
      <point x="27" y="151"/>
      <point x="44" y="232" type="curve" smooth="yes"/>
      <point x="96" y="482" type="line" smooth="yes"/>
      <point x="112" y="559"/>
      <point x="142" y="618"/>
      <point x="187" y="658" type="curve" smooth="yes"/>
      <point x="231" y="698"/>
      <point x="287" y="718"/>
      <point x="356" y="718" type="curve" smooth="yes"/>
      <point x="428" y="718"/>
      <point x="477" y="698"/>
      <point x="503" y="658" type="curve" smooth="yes"/>
      <point x="528" y="618"/>
      <point x="534" y="560"/>
      <point x="518" y="482" type="curve" smooth="yes"/>
      <point x="466" y="232" type="line" smooth="yes"/>
      <point x="449" y="151"/>
      <point x="419" y="91"/>
      <point x="376" y="50" type="curve" smooth="yes"/>
      <point x="334" y="9"/>
      <point x="277" y="-11"/>
      <point x="205" y="-11" type="curve" smooth="yes"/>
      <point x="133" y="-11"/>
      <point x="84" y="9"/>
    </contour>
    <contour>
      <point x="296" y="137" type="curve" smooth="yes"/>
      <point x="312" y="158"/>
      <point x="324" y="193"/>
      <point x="335" y="244" type="curve" smooth="yes"/>
      <point x="380" y="463" type="line" smooth="yes"/>
      <point x="391" y="514"/>
      <point x="393" y="549"/>
      <point x="386" y="569" type="curve" smooth="yes"/>
      <point x="379" y="589"/>
      <point x="362" y="600"/>
      <point x="332" y="600" type="curve" smooth="yes"/>
      <point x="302" y="600"/>
      <point x="279" y="589"/>
      <point x="265" y="569" type="curve" smooth="yes"/>
      <point x="251" y="549"/>
      <point x="238" y="514"/>
      <point x="227" y="463" type="curve" smooth="yes"/>
      <point x="182" y="244" type="line" smooth="yes"/>
      <point x="171" y="193"/>
      <point x="169" y="158"/>
      <point x="175" y="137" type="curve" smooth="yes"/>
      <point x="182" y="116"/>
      <point x="200" y="105"/>
      <point x="229" y="105" type="curve" smooth="yes"/>
      <point x="259" y="105"/>
      <point x="281" y="116"/>
    </contour>
  </outline>
</glyph>
<glyph name="one" format="2">
  <advance width="356"/>
  <unicode hex="0031"/>
  <outline>
    <contour>
      <point x="101" y="0" type="line"/>
      <point x="235" y="0" type="line"/>
      <point x="382" y="707" type="line"/>
      <point x="248" y="707" type="line"/>
      <point x="110" y="617" type="line"/>
      <point x="80" y="472" type="line"/>
      <point x="217" y="558" type="line"/>
    </contour>
  </outline>
</glyph>
<glyph name="two" format="2">
  <advance width="504"/>
  <unicode hex="0032"/>
  <outline>
    <contour>
      <point x="16" y="106" type="line"/>
      <point x="314" y="411" type="line" smooth="yes"/>
      <point x="348" y="446"/>
      <point x="368" y="479"/>
      <point x="374" y="510" type="curve" smooth="yes"/>
      <point x="377" y="524" type="line" smooth="yes"/>
      <point x="382" y="549"/>
      <point x="379" y="569"/>
      <point x="369" y="583" type="curve" smooth="yes"/>
      <point x="359" y="597"/>
      <point x="343" y="604"/>
      <point x="320" y="604" type="curve" smooth="yes"/>
      <point x="297" y="604"/>
      <point x="278" y="597"/>
      <point x="262" y="582" type="curve" smooth="yes"/>
      <point x="246" y="567"/>
      <point x="235" y="546"/>
      <point x="229" y="519" type="curve" smooth="yes"/>
      <point x="226" y="503" type="line"/>
      <point x="96" y="503" type="line"/>
      <point x="101" y="527" type="line" smooth="yes"/>
      <point x="108" y="564"/>
      <point x="123" y="597"/>
      <point x="146" y="626" type="curve" smooth="yes"/>
      <point x="169" y="655"/>
      <point x="198" y="677"/>
      <point x="232" y="693" type="curve" smooth="yes"/>
      <point x="266" y="709"/>
      <point x="306" y="718"/>
      <point x="348" y="718" type="curve" smooth="yes"/>
      <point x="389" y="718"/>
      <point x="423" y="709"/>
      <point x="451" y="692" type="curve" smooth="yes"/>
      <point x="478" y="675"/>
      <point x="498" y="653"/>
      <point x="509" y="624" type="curve" smooth="yes"/>
      <point x="520" y="595"/>
      <point x="521" y="563"/>
      <point x="514" y="528" type="curve" smooth="yes"/>
      <point x="510" y="511" type="line" smooth="yes"/>
      <point x="504" y="480"/>
      <point x="492" y="452"/>
      <point x="476" y="426" type="curve" smooth="yes"/>
      <point x="459" y="400"/>
      <point x="438" y="373"/>
      <point x="411" y="346" type="curve" smooth="yes"/>
      <point x="188" y="118" type="line"/>
      <point x="429" y="118" type="line"/>
      <point x="404" y="0" type="line"/>
      <point x="-6" y="0" type="line"/>
    </contour>
  </outline>
</glyph>
<glyph name="three" format="2">
  <advance width="516"/>
  <unicode hex="0033"/>
  <outline>
    <contour>
      <point x="198" y="-11" type="curve" smooth="yes"/>
      <point x="238" y="-11"/>
      <point x="276" y="-3"/>
      <point x="312" y="14" type="curve" smooth="yes"/>
      <point x="347" y="31"/>
      <point x="376" y="54"/>
      <point x="401" y="85" type="curve" smooth="yes"/>
      <point x="425" y="116"/>
      <point x="442" y="152"/>
      <point x="450" y="194" type="curve" smooth="yes"/>
      <point x="454" y="213" type="line" smooth="yes"/>
      <point x="463" y="253"/>
      <point x="461" y="286"/>
      <point x="451" y="314" type="curve" smooth="yes"/>
      <point x="441" y="342"/>
      <point x="422" y="363"/>
      <point x="394" y="376" type="curve"/>
      <point x="424" y="390"/>
      <point x="448" y="410"/>
      <point x="467" y="434" type="curve" smooth="yes"/>
      <point x="486" y="458"/>
      <point x="500" y="485"/>
      <point x="506" y="516" type="curve" smooth="yes"/>
      <point x="509" y="531" type="line" smooth="yes"/>
      <point x="521" y="588"/>
      <point x="512" y="633"/>
      <point x="484" y="667" type="curve" smooth="yes"/>
      <point x="456" y="701"/>
      <point x="410" y="718"/>
      <point x="348" y="718" type="curve" smooth="yes"/>
      <point x="285" y="718"/>
      <point x="232" y="701"/>
      <point x="189" y="668" type="curve" smooth="yes"/>
      <point x="146" y="635"/>
      <point x="118" y="588"/>
      <point x="106" y="529" type="curve" smooth="yes"/>
      <point x="102" y="512" type="line"/>
      <point x="225" y="512" type="line"/>
      <point x="229" y="529" type="line" smooth="yes"/>
      <point x="234" y="552"/>
      <point x="245" y="571"/>
      <point x="260" y="584" type="curve" smooth="yes"/>
      <point x="276" y="597"/>
      <point x="296" y="604"/>
      <point x="320" y="604" type="curve" smooth="yes"/>
      <point x="343" y="604"/>
      <point x="360" y="597"/>
      <point x="370" y="582" type="curve" smooth="yes"/>
      <point x="380" y="567"/>
      <point x="383" y="547"/>
      <point x="377" y="521" type="curve" smooth="yes"/>
      <point x="374" y="506" type="line" smooth="yes"/>
      <point x="369" y="479"/>
      <point x="356" y="458"/>
      <point x="339" y="443" type="curve" smooth="yes"/>
      <point x="322" y="428"/>
      <point x="301" y="421"/>
      <point x="275" y="421" type="curve" smooth="yes"/>
      <point x="240" y="421" type="line"/>
      <point x="216" y="307" type="line"/>
      <point x="252" y="307" type="line" smooth="yes"/>
      <point x="282" y="307"/>
      <point x="302" y="299"/>
      <point x="315" y="283" type="curve" smooth="yes"/>
      <point x="328" y="267"/>
      <point x="331" y="243"/>
      <point x="324" y="212" type="curve" smooth="yes"/>
      <point x="320" y="194" type="line" smooth="yes"/>
      <point x="315" y="166"/>
      <point x="303" y="143"/>
      <point x="284" y="127" type="curve" smooth="yes"/>
      <point x="266" y="111"/>
      <point x="244" y="102"/>
      <point x="219" y="102" type="curve" smooth="yes"/>
      <point x="192" y="102"/>
      <point x="173" y="108"/>
      <point x="162" y="121" type="curve" smooth="yes"/>
      <point x="151" y="134"/>
      <point x="148" y="152"/>
      <point x="153" y="177" type="curve" smooth="yes"/>
      <point x="156" y="193" type="line"/>
      <point x="31" y="193" type="line"/>
      <point x="27" y="171" type="line" smooth="yes"/>
      <point x="15" y="113"/>
      <point x="23" y="68"/>
      <point x="53" y="36" type="curve" smooth="yes"/>
      <point x="84" y="4"/>
      <point x="132" y="-11"/>
    </contour>
  </outline>
</glyph>
<glyph name="four" format="2">
  <advance width="533"/>
  <unicode hex="0034"/>
  <outline>
    <contour>
      <point x="251" y="0" type="line"/>
      <point x="385" y="0" type="line"/>
      <point x="409" y="113" type="line"/>
      <point x="467" y="113" type="line"/>
      <point x="491" y="230" type="line"/>
      <point x="433" y="230" type="line"/>
      <point x="467" y="396" type="line"/>
      <point x="333" y="396" type="line"/>
      <point x="299" y="230" type="line"/>
      <point x="163" y="230" type="line"/>
      <point x="464" y="707" type="line"/>
      <point x="330" y="707" type="line"/>
      <point x="29" y="230" type="line"/>
      <point x="5" y="113" type="line"/>
      <point x="275" y="113" type="line"/>
    </contour>
  </outline>
</glyph>
<glyph name="five" format="2">
  <advance width="508"/>
  <unicode hex="0035"/>
  <outline>
    <contour>
      <point x="57" y="35" type="curve" smooth="yes"/>
      <point x="28" y="66"/>
      <point x="18" y="108"/>
      <point x="30" y="163" type="curve" smooth="yes"/>
      <point x="33" y="178" type="line"/>
      <point x="156" y="178" type="line"/>
      <point x="155" y="172" type="line" smooth="yes"/>
      <point x="150" y="150"/>
      <point x="154" y="133"/>
      <point x="165" y="121" type="curve" smooth="yes"/>
      <point x="177" y="109"/>
      <point x="193" y="102"/>
      <point x="217" y="102" type="curve" smooth="yes"/>
      <point x="243" y="102"/>
      <point x="264" y="110"/>
      <point x="280" y="127" type="curve" smooth="yes"/>
      <point x="297" y="144"/>
      <point x="308" y="169"/>
      <point x="315" y="201" type="curve" smooth="yes"/>
      <point x="326" y="254" type="line" smooth="yes"/>
      <point x="333" y="287"/>
      <point x="332" y="312"/>
      <point x="322" y="328" type="curve" smooth="yes"/>
      <point x="313" y="344"/>
      <point x="295" y="352"/>
      <point x="268" y="352" type="curve" smooth="yes"/>
      <point x="234" y="352"/>
      <point x="206" y="336"/>
      <point x="185" y="304" type="curve"/>
      <point x="69" y="304" type="line"/>
      <point x="153" y="707" type="line"/>
      <point x="535" y="707" type="line"/>
      <point x="511" y="592" type="line"/>
      <point x="245" y="592" type="line"/>
      <point x="212" y="432" type="line"/>
      <point x="243" y="454"/>
      <point x="280" y="465"/>
      <point x="320" y="465" type="curve" smooth="yes"/>
      <point x="379" y="465"/>
      <point x="420" y="447"/>
      <point x="443" y="412" type="curve" smooth="yes"/>
      <point x="465" y="377"/>
      <point x="471" y="327"/>
      <point x="457" y="261" type="curve" smooth="yes"/>
      <point x="444" y="195" type="line" smooth="yes"/>
      <point x="430" y="130"/>
      <point x="401" y="79"/>
      <point x="357" y="43" type="curve" smooth="yes"/>
      <point x="312" y="7"/>
      <point x="259" y="-11"/>
      <point x="194" y="-11" type="curve" smooth="yes"/>
      <point x="133" y="-11"/>
      <point x="87" y="4"/>
    </contour>
  </outline>
</glyph>
<glyph name="six" format="2">
  <advance width="528"/>
  <unicode hex="0036"/>
  <outline>
    <contour>
      <point x="207" y="-11" type="curve" smooth="yes"/>
      <point x="273" y="-11"/>
      <point x="328" y="7"/>
      <point x="376" y="45" type="curve" smooth="yes"/>
      <point x="424" y="83"/>
      <point x="455" y="135"/>
      <point x="469" y="202" type="curve" smooth="yes"/>
      <point x="476" y="234" type="line" smooth="yes"/>
      <point x="488" y="295"/>
      <point x="482" y="343"/>
      <point x="457" y="378" type="curve" smooth="yes"/>
      <point x="431" y="413"/>
      <point x="390" y="431"/>
      <point x="335" y="431" type="curve" smooth="yes"/>
      <point x="316" y="431"/>
      <point x="298" y="428"/>
      <point x="282" y="421" type="curve"/>
      <point x="487" y="707" type="line"/>
      <point x="346" y="707" type="line"/>
      <point x="119" y="392" type="line" smooth="yes"/>
      <point x="97" y="362"/>
      <point x="80" y="334"/>
      <point x="67" y="309" type="curve" smooth="yes"/>
      <point x="54" y="284"/>
      <point x="44" y="257"/>
      <point x="39" y="229" type="curve" smooth="yes"/>
      <point x="32" y="198" type="line" smooth="yes"/>
      <point x="18" y="132"/>
      <point x="27" y="81"/>
      <point x="58" y="44" type="curve" smooth="yes"/>
      <point x="89" y="7"/>
      <point x="139" y="-11"/>
    </contour>
    <contour>
      <point x="174" y="127" type="curve" smooth="yes"/>
      <point x="163" y="143"/>
      <point x="161" y="166"/>
      <point x="167" y="195" type="curve" smooth="yes"/>
      <point x="173" y="228" type="line" smooth="yes"/>
      <point x="179" y="257"/>
      <point x="191" y="279"/>
      <point x="209" y="295" type="curve" smooth="yes"/>
      <point x="228" y="311"/>
      <point x="249" y="319"/>
      <point x="275" y="319" type="curve" smooth="yes"/>
      <point x="301" y="319"/>
      <point x="321" y="311"/>
      <point x="332" y="295" type="curve" smooth="yes"/>
      <point x="344" y="279"/>
      <point x="346" y="256"/>
      <point x="340" y="227" type="curve" smooth="yes"/>
      <point x="334" y="196" type="line" smooth="yes"/>
      <point x="328" y="167"/>
      <point x="316" y="143"/>
      <point x="297" y="127" type="curve" smooth="yes"/>
      <point x="279" y="111"/>
      <point x="256" y="102"/>
      <point x="230" y="102" type="curve" smooth="yes"/>
      <point x="204" y="102"/>
      <point x="186" y="111"/>
    </contour>
  </outline>
</glyph>
<glyph name="seven" format="2">
  <advance width="467"/>
  <unicode hex="0037"/>
  <outline>
    <contour>
      <point x="32" y="0" type="line"/>
      <point x="167" y="0" type="line"/>
      <point x="505" y="590" type="line"/>
      <point x="529" y="707" type="line"/>
      <point x="123" y="707" type="line"/>
      <point x="99" y="590" type="line"/>
      <point x="374" y="590" type="line"/>
    </contour>
  </outline>
</glyph>
<glyph name="eight" format="2">
  <advance width="537"/>
  <unicode hex="0038"/>
  <outline>
    <contour>
      <point x="105" y="14" type="curve" smooth="yes"/>
      <point x="75" y="31"/>
      <point x="54" y="55"/>
      <point x="42" y="86" type="curve" smooth="yes"/>
      <point x="29" y="117"/>
      <point x="28" y="154"/>
      <point x="37" y="195" type="curve" smooth="yes"/>
      <point x="41" y="218" type="line" smooth="yes"/>
      <point x="48" y="250"/>
      <point x="62" y="280"/>
      <point x="83" y="307" type="curve" smooth="yes"/>
      <point x="103" y="334"/>
      <point x="129" y="355"/>
      <point x="159" y="371" type="curve"/>
      <point x="140" y="384"/>
      <point x="125" y="401"/>
      <point x="117" y="425" type="curve" smooth="yes"/>
      <point x="109" y="449"/>
      <point x="109" y="476"/>
      <point x="115" y="507" type="curve" smooth="yes"/>
      <point x="119" y="525" type="line" smooth="yes"/>
      <point x="126" y="560"/>
      <point x="141" y="593"/>
      <point x="164" y="622" type="curve" smooth="yes"/>
      <point x="187" y="651"/>
      <point x="215" y="675"/>
      <point x="250" y="692" type="curve" smooth="yes"/>
      <point x="284" y="709"/>
      <point x="321" y="718"/>
      <point x="363" y="718" type="curve" smooth="yes"/>
      <point x="405" y="718"/>
      <point x="439" y="709"/>
      <point x="467" y="692" type="curve" smooth="yes"/>
      <point x="494" y="675"/>
      <point x="514" y="651"/>
      <point x="524" y="622" type="curve" smooth="yes"/>
      <point x="534" y="593"/>
      <point x="535" y="560"/>
      <point x="528" y="525" type="curve" smooth="yes"/>
      <point x="524" y="507" type="line" smooth="yes"/>
      <point x="518" y="477"/>
      <point x="507" y="450"/>
      <point x="488" y="426" type="curve" smooth="yes"/>
      <point x="469" y="402"/>
      <point x="447" y="384"/>
      <point x="423" y="371" type="curve"/>
      <point x="447" y="355"/>
      <point x="463" y="333"/>
      <point x="473" y="306" type="curve" smooth="yes"/>
      <point x="482" y="279"/>
      <point x="483" y="250"/>
      <point x="477" y="219" type="curve" smooth="yes"/>
      <point x="472" y="196" type="line" smooth="yes"/>
      <point x="463" y="154"/>
      <point x="446" y="117"/>
      <point x="421" y="86" type="curve" smooth="yes"/>
      <point x="395" y="55"/>
      <point x="364" y="31"/>
      <point x="328" y="14" type="curve" smooth="yes"/>
      <point x="291" y="-3"/>
      <point x="253" y="-11"/>
      <point x="211" y="-11" type="curve" smooth="yes"/>
      <point x="169" y="-11"/>
      <point x="134" y="-3"/>
    </contour>
    <contour>
      <point x="363" y="447" type="curve" smooth="yes"/>
      <point x="380" y="462"/>
      <point x="390" y="482"/>
      <point x="395" y="506" type="curve" smooth="yes"/>
      <point x="399" y="525" type="line" smooth="yes"/>
      <point x="404" y="548"/>
      <point x="401" y="567"/>
      <point x="390" y="582" type="curve" smooth="yes"/>
      <point x="379" y="597"/>
      <point x="363" y="604"/>
      <point x="340" y="604" type="curve" smooth="yes"/>
      <point x="317" y="604"/>
      <point x="298" y="597"/>
      <point x="281" y="582" type="curve" smooth="yes"/>
      <point x="264" y="567"/>
      <point x="253" y="548"/>
      <point x="248" y="525" type="curve" smooth="yes"/>
      <point x="244" y="506" type="line" smooth="yes"/>
      <point x="239" y="481"/>
      <point x="241" y="461"/>
      <point x="252" y="446" type="curve" smooth="yes"/>
      <point x="263" y="431"/>
      <point x="279" y="424"/>
      <point x="302" y="424" type="curve" smooth="yes"/>
      <point x="325" y="424"/>
      <point x="346" y="432"/>
    </contour>
    <contour>
      <point x="305" y="128" type="curve" smooth="yes"/>
      <point x="324" y="145"/>
      <point x="337" y="168"/>
      <point x="343" y="197" type="curve" smooth="yes"/>
      <point x="348" y="221" type="line" smooth="yes"/>
      <point x="354" y="248"/>
      <point x="350" y="271"/>
      <point x="338" y="288" type="curve" smooth="yes"/>
      <point x="325" y="305"/>
      <point x="306" y="313"/>
      <point x="279" y="313" type="curve" smooth="yes"/>
      <point x="253" y="313"/>
      <point x="230" y="305"/>
      <point x="211" y="288" type="curve" smooth="yes"/>
      <point x="191" y="271"/>
      <point x="178" y="248"/>
      <point x="172" y="221" type="curve" smooth="yes"/>
      <point x="167" y="197" type="line" smooth="yes"/>
      <point x="161" y="169"/>
      <point x="164" y="146"/>
      <point x="177" y="129" type="curve" smooth="yes"/>
      <point x="189" y="112"/>
      <point x="208" y="102"/>
      <point x="235" y="102" type="curve" smooth="yes"/>
      <point x="262" y="102"/>
      <point x="285" y="111"/>
    </contour>
  </outline>
</glyph>
<glyph name="nine" format="2">
  <advance width="528"/>
  <unicode hex="0039"/>
  <outline>
    <contour>
      <point x="284" y="286" type="line"/>
      <point x="268" y="279"/>
      <point x="249" y="275"/>
      <point x="230" y="275" type="curve" smooth="yes"/>
      <point x="175" y="275"/>
      <point x="135" y="293"/>
      <point x="109" y="328" type="curve" smooth="yes"/>
      <point x="83" y="363"/>
      <point x="76" y="411"/>
      <point x="89" y="472" type="curve" smooth="yes"/>
      <point x="96" y="505" type="line" smooth="yes"/>
      <point x="110" y="572"/>
      <point x="141" y="624"/>
      <point x="189" y="662" type="curve" smooth="yes"/>
      <point x="237" y="700"/>
      <point x="292" y="718"/>
      <point x="358" y="718" type="curve" smooth="yes"/>
      <point x="426" y="718"/>
      <point x="476" y="700"/>
      <point x="507" y="663" type="curve" smooth="yes"/>
      <point x="538" y="626"/>
      <point x="547" y="575"/>
      <point x="533" y="509" type="curve" smooth="yes"/>
      <point x="526" y="477" type="line" smooth="yes"/>
      <point x="521" y="450"/>
      <point x="512" y="424"/>
      <point x="499" y="398" type="curve" smooth="yes"/>
      <point x="485" y="372"/>
      <point x="468" y="344"/>
      <point x="446" y="314" type="curve" smooth="yes"/>
      <point x="219" y="0" type="line"/>
      <point x="78" y="0" type="line"/>
    </contour>
    <contour>
      <point x="355" y="411" type="curve" smooth="yes"/>
      <point x="374" y="427"/>
      <point x="385" y="449"/>
      <point x="391" y="478" type="curve" smooth="yes"/>
      <point x="398" y="512" type="line" smooth="yes"/>
      <point x="404" y="541"/>
      <point x="402" y="564"/>
      <point x="391" y="580" type="curve" smooth="yes"/>
      <point x="379" y="596"/>
      <point x="361" y="604"/>
      <point x="335" y="604" type="curve" smooth="yes"/>
      <point x="309" y="604"/>
      <point x="287" y="596"/>
      <point x="269" y="580" type="curve" smooth="yes"/>
      <point x="250" y="564"/>
      <point x="237" y="540"/>
      <point x="231" y="511" type="curve" smooth="yes"/>
      <point x="225" y="479" type="line" smooth="yes"/>
      <point x="219" y="450"/>
      <point x="222" y="427"/>
      <point x="233" y="411" type="curve" smooth="yes"/>
      <point x="245" y="395"/>
      <point x="263" y="387"/>
      <point x="289" y="387" type="curve" smooth="yes"/>
      <point x="315" y="387"/>
      <point x="337" y="395"/>
    </contour>
  </outline>
</glyph>
<glyph name="semicolon" format="2">
  <advance width="220"/>
  <unicode hex="003B"/>
  <outline>
    <contour>
      <point x="86" y="492" type="line"/>
      <point x="228" y="492" type="line"/>
      <point x="198" y="346" type="line"/>
      <point x="56" y="346" type="line"/>
    </contour>
    <contour>
      <point x="33" y="140" type="line"/>
      <point x="153" y="140" type="line"/>
      <point x="110" y="-65" type="line"/>
      <point x="-31" y="-166" type="line"/>
    </contour>
  </outline>
</glyph>
<glyph name="question" format="2">
  <advance width="461"/>
  <unicode hex="003F"/>
  <outline>
    <contour>
      <point x="147" y="198" type="line"/>
      <point x="274" y="198" type="line"/>
      <point x="283" y="241" type="line" smooth="yes"/>
      <point x="287" y="258"/>
      <point x="290" y="271"/>
      <point x="297" y="282" type="curve" smooth="yes"/>
      <point x="303" y="293"/>
      <point x="312" y="305"/>
      <point x="326" y="319" type="curve" smooth="yes"/>
      <point x="403" y="399" type="line" smooth="yes"/>
      <point x="426" y="423"/>
      <point x="445" y="445"/>
      <point x="457" y="466" type="curve" smooth="yes"/>
      <point x="469" y="487"/>
      <point x="478" y="510"/>
      <point x="483" y="535" type="curve" smooth="yes"/>
      <point x="491" y="570"/>
      <point x="488" y="600"/>
      <point x="478" y="628" type="curve" smooth="yes"/>
      <point x="467" y="656"/>
      <point x="448" y="677"/>
      <point x="421" y="693" type="curve" smooth="yes"/>
      <point x="394" y="709"/>
      <point x="361" y="717"/>
      <point x="321" y="717" type="curve" smooth="yes"/>
      <point x="258" y="717"/>
      <point x="206" y="700"/>
      <point x="165" y="667" type="curve" smooth="yes"/>
      <point x="124" y="634"/>
      <point x="95" y="584"/>
      <point x="81" y="520" type="curve"/>
      <point x="205" y="520" type="line"/>
      <point x="212" y="547"/>
      <point x="221" y="568"/>
      <point x="235" y="581" type="curve" smooth="yes"/>
      <point x="249" y="594"/>
      <point x="268" y="601"/>
      <point x="293" y="601" type="curve" smooth="yes"/>
      <point x="318" y="601"/>
      <point x="335" y="595"/>
      <point x="344" y="582" type="curve" smooth="yes"/>
      <point x="353" y="569"/>
      <point x="356" y="552"/>
      <point x="351" y="530" type="curve" smooth="yes"/>
      <point x="348" y="516"/>
      <point x="343" y="503"/>
      <point x="335" y="490" type="curve" smooth="yes"/>
      <point x="327" y="477"/>
      <point x="314" y="462"/>
      <point x="296" y="444" type="curve" smooth="yes"/>
      <point x="225" y="372" type="line" smooth="yes"/>
      <point x="203" y="349"/>
      <point x="186" y="329"/>
      <point x="178" y="313" type="curve" smooth="yes"/>
      <point x="170" y="297"/>
      <point x="164" y="277"/>
      <point x="158" y="250" type="curve" smooth="yes"/>
    </contour>
    <contour>
      <point x="102" y="0" type="line"/>
      <point x="236" y="0" type="line"/>
      <point x="263" y="129" type="line"/>
      <point x="129" y="129" type="line"/>
    </contour>
  </outline>
</glyph>
<glyph name="at" format="2">
  <advance width="893"/>
  <unicode hex="0040"/>
  <outline>
    <contour>
      <point x="363" y="-139" type="curve" smooth="yes"/>
      <point x="413" y="-139"/>
      <point x="460" y="-134"/>
      <point x="503" y="-123" type="curve" smooth="yes"/>
      <point x="547" y="-112"/>
      <point x="590" y="-95"/>
      <point x="635" y="-72" type="curve"/>
      <point x="607" y="15" type="line"/>
      <point x="568" y="-3"/>
      <point x="533" y="-15"/>
      <point x="498" y="-24" type="curve" smooth="yes"/>
      <point x="463" y="-33"/>
      <point x="425" y="-37"/>
      <point x="384" y="-37" type="curve" smooth="yes"/>
      <point x="325" y="-37"/>
      <point x="277" y="-25"/>
      <point x="239" y="-1" type="curve" smooth="yes"/>
      <point x="201" y="23"/>
      <point x="175" y="56"/>
      <point x="161" y="100" type="curve" smooth="yes"/>
      <point x="147" y="144"/>
      <point x="147" y="195"/>
      <point x="159" y="253" type="curve" smooth="yes"/>
      <point x="174" y="326" type="line" smooth="yes"/>
      <point x="192" y="415"/>
      <point x="232" y="485"/>
      <point x="293" y="536" type="curve" smooth="yes"/>
      <point x="355" y="587"/>
      <point x="430" y="612"/>
      <point x="519" y="612" type="curve" smooth="yes"/>
      <point x="578" y="612"/>
      <point x="628" y="601"/>
      <point x="666" y="578" type="curve" smooth="yes"/>
      <point x="704" y="555"/>
      <point x="730" y="522"/>
      <point x="744" y="479" type="curve" smooth="yes"/>
      <point x="758" y="436"/>
      <point x="758" y="386"/>
      <point x="746" y="328" type="curve" smooth="yes"/>
      <point x="731" y="256" type="line" smooth="yes"/>
      <point x="723" y="218"/>
      <point x="714" y="192"/>
      <point x="700" y="175" type="curve" smooth="yes"/>
      <point x="687" y="158"/>
      <point x="671" y="150"/>
      <point x="652" y="150" type="curve" smooth="yes"/>
      <point x="637" y="150"/>
      <point x="625" y="154"/>
      <point x="618" y="165" type="curve" smooth="yes"/>
      <point x="612" y="176"/>
      <point x="611" y="192"/>
      <point x="616" y="214" type="curve" smooth="yes"/>
      <point x="676" y="506" type="line"/>
      <point x="564" y="506" type="line"/>
      <point x="556" y="465" type="line"/>
      <point x="550" y="481"/>
      <point x="540" y="493"/>
      <point x="523" y="503" type="curve" smooth="yes"/>
      <point x="506" y="513"/>
      <point x="485" y="517"/>
      <point x="460" y="517" type="curve" smooth="yes"/>
      <point x="410" y="517"/>
      <point x="369" y="501"/>
      <point x="338" y="468" type="curve" smooth="yes"/>
      <point x="307" y="435"/>
      <point x="286" y="390"/>
      <point x="274" y="331" type="curve" smooth="yes"/>
      <point x="255" y="241" type="line" smooth="yes"/>
      <point x="229" y="117"/>
      <point x="268" y="55"/>
      <point x="371" y="55" type="curve" smooth="yes"/>
      <point x="437" y="55"/>
      <point x="485" y="78"/>
      <point x="516" y="122" type="curve"/>
      <point x="524" y="101"/>
      <point x="537" y="85"/>
      <point x="556" y="73" type="curve" smooth="yes"/>
      <point x="576" y="61"/>
      <point x="600" y="55"/>
      <point x="631" y="55" type="curve" smooth="yes"/>
      <point x="681" y="55"/>
      <point x="726" y="73"/>
      <point x="766" y="107" type="curve" smooth="yes"/>
      <point x="806" y="141"/>
      <point x="833" y="191"/>
      <point x="846" y="257" type="curve" smooth="yes"/>
      <point x="861" y="329" type="line" smooth="yes"/>
      <point x="877" y="404"/>
      <point x="874" y="470"/>
      <point x="852" y="529" type="curve" smooth="yes"/>
      <point x="830" y="588"/>
      <point x="792" y="634"/>
      <point x="737" y="666" type="curve" smooth="yes"/>
      <point x="683" y="698"/>
      <point x="618" y="715"/>
      <point x="541" y="715" type="curve" smooth="yes"/>
      <point x="462" y="715"/>
      <point x="390" y="699"/>
      <point x="322" y="666" type="curve" smooth="yes"/>
      <point x="255" y="633"/>
      <point x="198" y="587"/>
      <point x="152" y="528" type="curve" smooth="yes"/>
      <point x="106" y="469"/>
      <point x="74" y="401"/>
      <point x="58" y="324" type="curve" smooth="yes"/>
      <point x="43" y="252" type="line" smooth="yes"/>
      <point x="27" y="175"/>
      <point x="30" y="107"/>
      <point x="52" y="48" type="curve" smooth="yes"/>
      <point x="74" y="-11"/>
      <point x="111" y="-57"/>
      <point x="165" y="-90" type="curve" smooth="yes"/>
      <point x="219" y="-123"/>
      <point x="284" y="-139"/>
    </contour>
    <contour>
      <point x="373" y="176" type="curve" smooth="yes"/>
      <point x="365" y="192"/>
      <point x="365" y="216"/>
      <point x="371" y="247" type="curve" smooth="yes"/>
      <point x="389" y="331" type="line" smooth="yes"/>
      <point x="395" y="359"/>
      <point x="405" y="381"/>
      <point x="420" y="397" type="curve" smooth="yes"/>
      <point x="434" y="413"/>
      <point x="453" y="421"/>
      <point x="477" y="421" type="curve" smooth="yes"/>
      <point x="522" y="421"/>
      <point x="538" y="391"/>
      <point x="526" y="330" type="curve" smooth="yes"/>
      <point x="508" y="244" type="line" smooth="yes"/>
      <point x="495" y="183"/>
      <point x="466" y="152"/>
      <point x="421" y="152" type="curve" smooth="yes"/>
      <point x="396" y="152"/>
      <point x="380" y="160"/>
    </contour>
  </outline>
</glyph>
<glyph name="A" format="2">
  <advance width="620"/>
  <unicode hex="0041"/>
  <outline>
    <contour>
      <point x="-51" y="0" type="line"/>
      <point x="90" y="0" type="line"/>
      <point x="161" y="137" type="line"/>
      <point x="404" y="137" type="line"/>
      <point x="419" y="0" type="line"/>
      <point x="561" y="0" type="line"/>
      <point x="457" y="707" type="line"/>
      <point x="347" y="707" type="line"/>
    </contour>
    <contour>
      <point x="221" y="249" type="line"/>
      <point x="362" y="520" type="line"/>
      <point x="392" y="249" type="line"/>
    </contour>
  </outline>
</glyph>
<glyph name="B" format="2">
  <advance width="612"/>
  <unicode hex="0042"/>
  <outline>
    <contour>
      <point x="5" y="0" type="line"/>
      <point x="289" y="0" type="line" smooth="yes"/>
      <point x="357" y="0"/>
      <point x="415" y="18"/>
      <point x="460" y="53" type="curve" smooth="yes"/>
      <point x="505" y="88"/>
      <point x="535" y="139"/>
      <point x="548" y="203" type="curve" smooth="yes"/>
      <point x="556" y="241"/>
      <point x="555" y="274"/>
      <point x="544" y="301" type="curve" smooth="yes"/>
      <point x="532" y="328"/>
      <point x="513" y="350"/>
      <point x="484" y="364" type="curve"/>
      <point x="515" y="378"/>
      <point x="540" y="397"/>
      <point x="561" y="423" type="curve" smooth="yes"/>
      <point x="582" y="449"/>
      <point x="597" y="479"/>
      <point x="603" y="510" type="curve" smooth="yes"/>
      <point x="616" y="573"/>
      <point x="607" y="621"/>
      <point x="575" y="655" type="curve" smooth="yes"/>
      <point x="543" y="689"/>
      <point x="494" y="707"/>
      <point x="425" y="707" type="curve" smooth="yes"/>
      <point x="152" y="707" type="line"/>
    </contour>
    <contour>
      <point x="227" y="418" type="line"/>
      <point x="263" y="590" type="line"/>
      <point x="391" y="590" type="line" smooth="yes"/>
      <point x="422" y="590"/>
      <point x="443" y="582"/>
      <point x="456" y="567" type="curve" smooth="yes"/>
      <point x="469" y="552"/>
      <point x="472" y="531"/>
      <point x="466" y="502" type="curve" smooth="yes"/>
      <point x="461" y="475"/>
      <point x="449" y="455"/>
      <point x="429" y="440" type="curve" smooth="yes"/>
      <point x="410" y="425"/>
      <point x="386" y="418"/>
      <point x="355" y="418" type="curve" smooth="yes"/>
    </contour>
    <contour>
      <point x="164" y="117" type="line"/>
      <point x="203" y="301" type="line"/>
      <point x="339" y="301" type="line" smooth="yes"/>
      <point x="371" y="301"/>
      <point x="393" y="294"/>
      <point x="406" y="278" type="curve" smooth="yes"/>
      <point x="418" y="262"/>
      <point x="422" y="240"/>
      <point x="416" y="212" type="curve" smooth="yes"/>
      <point x="410" y="182"/>
      <point x="397" y="159"/>
      <point x="378" y="142" type="curve" smooth="yes"/>
      <point x="358" y="125"/>
      <point x="332" y="117"/>
      <point x="300" y="117" type="curve" smooth="yes"/>
    </contour>
  </outline>
</glyph>
<glyph name="C" format="2">
  <advance width="614"/>
  <unicode hex="0043"/>
  <outline>
    <contour>
      <point x="251" y="-8" type="curve" smooth="yes"/>
      <point x="330" y="-8"/>
      <point x="397" y="12"/>
      <point x="450" y="53" type="curve" smooth="yes"/>
      <point x="504" y="94"/>
      <point x="537" y="151"/>
      <point x="553" y="227" type="curve" smooth="yes"/>
      <point x="555" y="234" type="line"/>
      <point x="423" y="234" type="line"/>
      <point x="421" y="226" type="line" smooth="yes"/>
      <point x="414" y="191"/>
      <point x="398" y="162"/>
      <point x="374" y="142" type="curve" smooth="yes"/>
      <point x="349" y="122"/>
      <point x="317" y="112"/>
      <point x="279" y="112" type="curve" smooth="yes"/>
      <point x="236" y="112"/>
      <point x="208" y="125"/>
      <point x="193" y="151" type="curve" smooth="yes"/>
      <point x="179" y="177"/>
      <point x="176" y="218"/>
      <point x="188" y="275" type="curve" smooth="yes"/>
      <point x="220" y="428" type="line" smooth="yes"/>
      <point x="233" y="489"/>
      <point x="253" y="532"/>
      <point x="277" y="559" type="curve" smooth="yes"/>
      <point x="302" y="586"/>
      <point x="336" y="599"/>
      <point x="379" y="599" type="curve" smooth="yes"/>
      <point x="417" y="599"/>
      <point x="444" y="588"/>
      <point x="461" y="567" type="curve" smooth="yes"/>
      <point x="478" y="546"/>
      <point x="481" y="517"/>
      <point x="474" y="481" type="curve" smooth="yes"/>
      <point x="473" y="475" type="line"/>
      <point x="607" y="475" type="line"/>
      <point x="608" y="482" type="line" smooth="yes"/>
      <point x="624" y="556"/>
      <point x="614" y="614"/>
      <point x="576" y="655" type="curve" smooth="yes"/>
      <point x="539" y="696"/>
      <point x="481" y="717"/>
      <point x="404" y="717" type="curve" smooth="yes"/>
      <point x="231" y="717"/>
      <point x="126" y="623"/>
      <point x="86" y="435" type="curve" smooth="yes"/>
      <point x="53" y="273" type="line" smooth="yes"/>
      <point x="14" y="85"/>
      <point x="80" y="-8"/>
    </contour>
  </outline>
</glyph>
<glyph name="D" format="2">
  <advance width="614"/>
  <unicode hex="0044"/>
  <outline>
    <contour>
      <point x="5" y="0" type="line"/>
      <point x="250" y="0" type="line" smooth="yes"/>
      <point x="329" y="0"/>
      <point x="398" y="22"/>
      <point x="453" y="66" type="curve" smooth="yes"/>
      <point x="508" y="110"/>
      <point x="546" y="182"/>
      <point x="567" y="282" type="curve" smooth="yes"/>
      <point x="597" y="426" type="line" smooth="yes"/>
      <point x="617" y="526"/>
      <point x="609" y="597"/>
      <point x="573" y="641" type="curve" smooth="yes"/>
      <point x="537" y="685"/>
      <point x="480" y="707"/>
      <point x="401" y="707" type="curve" smooth="yes"/>
      <point x="152" y="707" type="line"/>
    </contour>
    <contour>
      <point x="164" y="117" type="line"/>
      <point x="263" y="590" type="line"/>
      <point x="376" y="590" type="line" smooth="yes"/>
      <point x="417" y="590"/>
      <point x="444" y="576"/>
      <point x="458" y="549" type="curve" smooth="yes"/>
      <point x="473" y="522"/>
      <point x="474" y="479"/>
      <point x="461" y="419" type="curve" smooth="yes"/>
      <point x="433" y="283" type="line" smooth="yes"/>
      <point x="421" y="226"/>
      <point x="402" y="184"/>
      <point x="377" y="157" type="curve" smooth="yes"/>
      <point x="351" y="130"/>
      <point x="317" y="117"/>
      <point x="277" y="117" type="curve" smooth="yes"/>
    </contour>
  </outline>
</glyph>
<glyph name="E" format="2">
  <advance width="544"/>
  <unicode hex="0045"/>
  <outline>
    <contour>
      <point x="5" y="0" type="line"/>
      <point x="454" y="0" type="line"/>
      <point x="478" y="117" type="line"/>
      <point x="164" y="117" type="line"/>
      <point x="202" y="298" type="line"/>
      <point x="470" y="298" type="line"/>
      <point x="494" y="415" type="line"/>
      <point x="226" y="415" type="line"/>
      <point x="263" y="590" type="line"/>
      <point x="577" y="590" type="line"/>
      <point x="601" y="707" type="line"/>
      <point x="152" y="707" type="line"/>
    </contour>
  </outline>
</glyph>
<glyph name="F" format="2">
  <advance width="539"/>
  <unicode hex="0046"/>
  <outline>
    <contour>
      <point x="263" y="590" type="line"/>
      <point x="225" y="409" type="line"/>
      <point x="494" y="409" type="line"/>
      <point x="470" y="292" type="line"/>
      <point x="201" y="292" type="line"/>
      <point x="140" y="0" type="line"/>
      <point x="5" y="0" type="line"/>
      <point x="152" y="707" type="line"/>
      <point x="601" y="707" type="line"/>
      <point x="577" y="590" type="line"/>
    </contour>
  </outline>
</glyph>
<glyph name="G" format="2">
  <advance width="614"/>
  <unicode hex="0047"/>
  <outline>
    <contour>
      <point x="251" y="-8" type="curve" smooth="yes"/>
      <point x="421" y="-8"/>
      <point x="525" y="82"/>
      <point x="563" y="263" type="curve" smooth="yes"/>
      <point x="588" y="384" type="line"/>
      <point x="332" y="384" type="line"/>
      <point x="309" y="273" type="line"/>
      <point x="434" y="273" type="line"/>
      <point x="427" y="240" type="line" smooth="yes"/>
      <point x="418" y="197"/>
      <point x="402" y="164"/>
      <point x="379" y="143" type="curve" smooth="yes"/>
      <point x="355" y="122"/>
      <point x="323" y="112"/>
      <point x="282" y="112" type="curve" smooth="yes"/>
      <point x="238" y="112"/>
      <point x="210" y="124"/>
      <point x="194" y="150" type="curve" smooth="yes"/>
      <point x="179" y="176"/>
      <point x="176" y="217"/>
      <point x="188" y="275" type="curve" smooth="yes"/>
      <point x="220" y="428" type="line" smooth="yes"/>
      <point x="233" y="489"/>
      <point x="253" y="532"/>
      <point x="277" y="559" type="curve" smooth="yes"/>
      <point x="302" y="586"/>
      <point x="336" y="599"/>
      <point x="379" y="599" type="curve" smooth="yes"/>
      <point x="417" y="599"/>
      <point x="444" y="588"/>
      <point x="461" y="567" type="curve" smooth="yes"/>
      <point x="478" y="546"/>
      <point x="482" y="519"/>
      <point x="475" y="487" type="curve" smooth="yes"/>
      <point x="474" y="480" type="line"/>
      <point x="608" y="480" type="line"/>
      <point x="609" y="487" type="line" smooth="yes"/>
      <point x="624" y="559"/>
      <point x="614" y="615"/>
      <point x="576" y="656" type="curve" smooth="yes"/>
      <point x="539" y="697"/>
      <point x="481" y="717"/>
      <point x="404" y="717" type="curve" smooth="yes"/>
      <point x="231" y="717"/>
      <point x="126" y="623"/>
      <point x="86" y="435" type="curve" smooth="yes"/>
      <point x="53" y="273" type="line" smooth="yes"/>
      <point x="14" y="85"/>
      <point x="80" y="-8"/>
    </contour>
  </outline>
</glyph>
<glyph name="H" format="2">
  <advance width="623"/>
  <unicode hex="0048"/>
  <outline>
    <contour>
      <point x="655" y="707" type="line"/>
      <point x="508" y="0" type="line"/>
      <point x="374" y="0" type="line"/>
      <point x="436" y="299" type="line"/>
      <point x="202" y="299" type="line"/>
      <point x="140" y="0" type="line"/>
      <point x="5" y="0" type="line"/>
      <point x="152" y="707" type="line"/>
      <point x="287" y="707" type="line"/>
      <point x="226" y="416" type="line"/>
      <point x="460" y="416" type="line"/>
      <point x="521" y="707" type="line"/>
    </contour>
  </outline>
</glyph>
<glyph name="I" format="2">
  <advance width="254"/>
  <unicode hex="0049"/>
  <outline>
    <contour>
      <point x="5" y="0" type="line"/>
      <point x="139" y="0" type="line"/>
      <point x="286" y="707" type="line"/>
      <point x="152" y="707" type="line"/>
    </contour>
  </outline>
</glyph>
<glyph name="J" format="2">
  <advance width="338"/>
  <unicode hex="004A"/>
  <outline>
    <contour>
      <point x="-5" y="118" type="line"/>
      <point x="50" y="118" type="line" smooth="yes"/>
      <point x="71" y="118"/>
      <point x="86" y="123"/>
      <point x="97" y="133" type="curve" smooth="yes"/>
      <point x="108" y="143"/>
      <point x="115" y="159"/>
      <point x="120" y="184" type="curve" smooth="yes"/>
      <point x="229" y="707" type="line"/>
      <point x="364" y="707" type="line"/>
      <point x="251" y="162" type="line" smooth="yes"/>
      <point x="240" y="110"/>
      <point x="218" y="70"/>
      <point x="184" y="42" type="curve" smooth="yes"/>
      <point x="150" y="14"/>
      <point x="107" y="0"/>
      <point x="56" y="0" type="curve" smooth="yes"/>
      <point x="-30" y="0" type="line"/>
    </contour>
  </outline>
</glyph>
<glyph name="K" format="2">
  <advance width="624"/>
  <unicode hex="004B"/>
  <outline>
    <contour>
      <point x="5" y="0" type="line"/>
      <point x="140" y="0" type="line"/>
      <point x="181" y="198" type="line"/>
      <point x="298" y="314" type="line"/>
      <point x="408" y="0" type="line"/>
      <point x="563" y="0" type="line"/>
      <point x="407" y="423" type="line"/>
      <point x="692" y="707" type="line"/>
      <point x="531" y="707" type="line"/>
      <point x="218" y="377" type="line"/>
      <point x="287" y="707" type="line"/>
      <point x="152" y="707" type="line"/>
    </contour>
  </outline>
</glyph>
<glyph name="L" format="2">
  <advance width="528"/>
  <unicode hex="004C"/>
  <outline>
    <contour>
      <point x="152" y="707" type="line"/>
      <point x="287" y="707" type="line"/>
      <point x="164" y="117" type="line"/>
      <point x="473" y="117" type="line"/>
      <point x="449" y="0" type="line"/>
      <point x="5" y="0" type="line"/>
    </contour>
  </outline>
</glyph>
<glyph name="M" format="2">
  <advance width="771"/>
  <unicode hex="004D"/>
  <outline>
    <contour>
      <point x="16" y="0" type="line"/>
      <point x="151" y="0" type="line"/>
      <point x="239" y="422" type="line"/>
      <point x="315" y="136" type="line"/>
      <point x="405" y="136" type="line"/>
      <point x="598" y="419" type="line"/>
      <point x="511" y="0" type="line"/>
      <point x="645" y="0" type="line"/>
      <point x="792" y="707" type="line"/>
      <point x="658" y="707" type="line"/>
      <point x="398" y="316" type="line"/>
      <point x="298" y="707" type="line"/>
      <point x="163" y="707" type="line"/>
    </contour>
  </outline>
</glyph>
<glyph name="N" format="2">
  <advance width="649"/>
  <unicode hex="004E"/>
  <outline>
    <contour>
      <point x="681" y="707" type="line"/>
      <point x="534" y="0" type="line"/>
      <point x="400" y="0" type="line"/>
      <point x="232" y="441" type="line"/>
      <point x="140" y="0" type="line"/>
      <point x="5" y="0" type="line"/>
      <point x="152" y="707" type="line"/>
      <point x="287" y="707" type="line"/>
      <point x="455" y="264" type="line"/>
      <point x="547" y="707" type="line"/>
    </contour>
  </outline>
</glyph>
<glyph name="O" format="2">
  <advance width="614"/>
  <unicode hex="004F"/>
  <outline>
    <contour>
      <point x="247" y="-8" type="curve" smooth="yes"/>
      <point x="326" y="-8"/>
      <point x="394" y="14"/>
      <point x="450" y="58" type="curve" smooth="yes"/>
      <point x="506" y="102"/>
      <point x="544" y="173"/>
      <point x="565" y="273" type="curve" smooth="yes"/>
      <point x="598" y="435" type="line" smooth="yes"/>
      <point x="619" y="535"/>
      <point x="612" y="607"/>
      <point x="575" y="651" type="curve" smooth="yes"/>
      <point x="539" y="695"/>
      <point x="481" y="717"/>
      <point x="402" y="717" type="curve" smooth="yes"/>
      <point x="231" y="717"/>
      <point x="126" y="623"/>
      <point x="86" y="435" type="curve" smooth="yes"/>
      <point x="53" y="273" type="line" smooth="yes"/>
      <point x="14" y="85"/>
      <point x="78" y="-8"/>
    </contour>
    <contour>
      <point x="191" y="150" type="curve" smooth="yes"/>
      <point x="178" y="176"/>
      <point x="176" y="217"/>
      <point x="188" y="275" type="curve" smooth="yes"/>
      <point x="220" y="428" type="line" smooth="yes"/>
      <point x="233" y="489"/>
      <point x="252" y="534"/>
      <point x="276" y="560" type="curve" smooth="yes"/>
      <point x="301" y="586"/>
      <point x="335" y="599"/>
      <point x="378" y="599" type="curve" smooth="yes"/>
      <point x="419" y="599"/>
      <point x="446" y="586"/>
      <point x="460" y="559" type="curve" smooth="yes"/>
      <point x="475" y="532"/>
      <point x="475" y="488"/>
      <point x="463" y="428" type="curve" smooth="yes"/>
      <point x="431" y="275" type="line" smooth="yes"/>
      <point x="419" y="218"/>
      <point x="401" y="177"/>
      <point x="375" y="151" type="curve" smooth="yes"/>
      <point x="350" y="125"/>
      <point x="317" y="112"/>
      <point x="276" y="112" type="curve" smooth="yes"/>
      <point x="233" y="112"/>
      <point x="205" y="124"/>
    </contour>
  </outline>
</glyph>
<glyph name="P" format="2">
  <advance width="580"/>
  <unicode hex="0050"/>
  <outline>
    <contour>
      <point x="574" y="647" type="curve" smooth="yes"/>
      <point x="606" y="607"/>
      <point x="616" y="553"/>
      <point x="602" y="484" type="curve" smooth="yes"/>
      <point x="588" y="418"/>
      <point x="556" y="366"/>
      <point x="507" y="327" type="curve" smooth="yes"/>
      <point x="458" y="288"/>
      <point x="398" y="268"/>
      <point x="326" y="268" type="curve" smooth="yes"/>
      <point x="196" y="268" type="line"/>
      <point x="140" y="0" type="line"/>
      <point x="5" y="0" type="line"/>
      <point x="152" y="707" type="line"/>
      <point x="417" y="707" type="line" smooth="yes"/>
      <point x="489" y="707"/>
      <point x="541" y="687"/>
    </contour>
    <contour>
      <point x="425" y="412" type="curve" smooth="yes"/>
      <point x="446" y="429"/>
      <point x="461" y="453"/>
      <point x="468" y="484" type="curve" smooth="yes"/>
      <point x="475" y="518"/>
      <point x="471" y="545"/>
      <point x="457" y="563" type="curve" smooth="yes"/>
      <point x="443" y="581"/>
      <point x="419" y="590"/>
      <point x="386" y="590" type="curve" smooth="yes"/>
      <point x="263" y="590" type="line"/>
      <point x="220" y="386" type="line"/>
      <point x="343" y="386" type="line" smooth="yes"/>
      <point x="375" y="386"/>
      <point x="403" y="395"/>
    </contour>
  </outline>
</glyph>
<glyph name="Q" format="2">
  <advance width="614"/>
  <unicode hex="0051"/>
  <outline>
    <contour>
      <point x="419" y="36" type="curve"/>
      <point x="466" y="-101" type="line"/>
      <point x="351" y="-158" type="line"/>
      <point x="300" y="-5" type="line"/>
      <point x="284" y="-7"/>
      <point x="265" y="-8"/>
      <point x="247" y="-8" type="curve" smooth="yes"/>
      <point x="78" y="-8"/>
      <point x="14" y="85"/>
      <point x="53" y="273" type="curve" smooth="yes"/>
      <point x="86" y="435" type="line" smooth="yes"/>
      <point x="126" y="623"/>
      <point x="231" y="717"/>
      <point x="402" y="717" type="curve" smooth="yes"/>
      <point x="481" y="717"/>
      <point x="539" y="695"/>
      <point x="575" y="651" type="curve" smooth="yes"/>
      <point x="612" y="607"/>
      <point x="619" y="535"/>
      <point x="598" y="435" type="curve" smooth="yes"/>
      <point x="565" y="273" type="line" smooth="yes"/>
      <point x="541" y="160"/>
      <point x="493" y="81"/>
    </contour>
    <contour>
      <point x="191" y="150" type="curve" smooth="yes"/>
      <point x="205" y="124"/>
      <point x="233" y="112"/>
      <point x="276" y="112" type="curve" smooth="yes"/>
      <point x="317" y="112"/>
      <point x="350" y="125"/>
      <point x="375" y="151" type="curve" smooth="yes"/>
      <point x="401" y="177"/>
      <point x="419" y="218"/>
      <point x="431" y="275" type="curve" smooth="yes"/>
      <point x="463" y="428" type="line" smooth="yes"/>
      <point x="475" y="488"/>
      <point x="475" y="532"/>
      <point x="460" y="559" type="curve" smooth="yes"/>
      <point x="446" y="586"/>
      <point x="419" y="599"/>
      <point x="378" y="599" type="curve" smooth="yes"/>
      <point x="335" y="599"/>
      <point x="301" y="586"/>
      <point x="276" y="560" type="curve" smooth="yes"/>
      <point x="252" y="534"/>
      <point x="233" y="489"/>
      <point x="220" y="428" type="curve" smooth="yes"/>
      <point x="188" y="275" type="line" smooth="yes"/>
      <point x="176" y="217"/>
      <point x="178" y="176"/>
    </contour>
  </outline>
</glyph>
<glyph name="R" format="2">
  <advance width="614"/>
  <unicode hex="0052"/>
  <outline>
    <contour>
      <point x="5" y="0" type="line"/>
      <point x="140" y="0" type="line"/>
      <point x="200" y="287" type="line"/>
      <point x="300" y="287" type="line"/>
      <point x="374" y="0" type="line"/>
      <point x="529" y="0" type="line"/>
      <point x="439" y="307" type="line"/>
      <point x="482" y="322"/>
      <point x="518" y="346"/>
      <point x="547" y="378" type="curve" smooth="yes"/>
      <point x="575" y="410"/>
      <point x="594" y="450"/>
      <point x="603" y="496" type="curve" smooth="yes"/>
      <point x="617" y="561"/>
      <point x="607" y="612"/>
      <point x="574" y="650" type="curve" smooth="yes"/>
      <point x="541" y="688"/>
      <point x="490" y="707"/>
      <point x="421" y="707" type="curve" smooth="yes"/>
      <point x="152" y="707" type="line"/>
    </contour>
    <contour>
      <point x="223" y="398" type="line"/>
      <point x="263" y="590" type="line"/>
      <point x="390" y="590" type="line" smooth="yes"/>
      <point x="421" y="590"/>
      <point x="442" y="581"/>
      <point x="456" y="564" type="curve" smooth="yes"/>
      <point x="471" y="547"/>
      <point x="475" y="525"/>
      <point x="469" y="496" type="curve" smooth="yes"/>
      <point x="463" y="465"/>
      <point x="448" y="440"/>
      <point x="428" y="423" type="curve" smooth="yes"/>
      <point x="407" y="406"/>
      <point x="381" y="398"/>
      <point x="350" y="398" type="curve" smooth="yes"/>
    </contour>
  </outline>
</glyph>
<glyph name="S" format="2">
  <advance width="561"/>
  <unicode hex="0053"/>
  <outline>
    <contour>
      <point x="52" y="51" type="curve" smooth="yes"/>
      <point x="18" y="89"/>
      <point x="6" y="143"/>
      <point x="16" y="215" type="curve"/>
      <point x="143" y="215" type="line"/>
      <point x="140" y="176"/>
      <point x="146" y="149"/>
      <point x="163" y="133" type="curve" smooth="yes"/>
      <point x="179" y="117"/>
      <point x="208" y="109"/>
      <point x="248" y="109" type="curve" smooth="yes"/>
      <point x="324" y="109"/>
      <point x="367" y="140"/>
      <point x="380" y="202" type="curve" smooth="yes"/>
      <point x="386" y="230"/>
      <point x="383" y="251"/>
      <point x="371" y="266" type="curve" smooth="yes"/>
      <point x="359" y="281"/>
      <point x="338" y="291"/>
      <point x="306" y="296" type="curve" smooth="yes"/>
      <point x="241" y="307" type="line" smooth="yes"/>
      <point x="117" y="328"/>
      <point x="68" y="394"/>
      <point x="91" y="504" type="curve" smooth="yes"/>
      <point x="105" y="570"/>
      <point x="137" y="621"/>
      <point x="188" y="659" type="curve" smooth="yes"/>
      <point x="239" y="697"/>
      <point x="301" y="717"/>
      <point x="373" y="717" type="curve" smooth="yes"/>
      <point x="443" y="717"/>
      <point x="493" y="699"/>
      <point x="527" y="662" type="curve" smooth="yes"/>
      <point x="560" y="625"/>
      <point x="572" y="573"/>
      <point x="563" y="506" type="curve"/>
      <point x="434" y="506" type="line"/>
      <point x="439" y="540"/>
      <point x="434" y="565"/>
      <point x="420" y="581" type="curve" smooth="yes"/>
      <point x="405" y="597"/>
      <point x="381" y="604"/>
      <point x="347" y="604" type="curve" smooth="yes"/>
      <point x="312" y="604"/>
      <point x="285" y="596"/>
      <point x="264" y="580" type="curve" smooth="yes"/>
      <point x="242" y="564"/>
      <point x="229" y="542"/>
      <point x="223" y="514" type="curve" smooth="yes"/>
      <point x="218" y="489"/>
      <point x="222" y="470"/>
      <point x="235" y="456" type="curve" smooth="yes"/>
      <point x="248" y="442"/>
      <point x="270" y="431"/>
      <point x="301" y="425" type="curve" smooth="yes"/>
      <point x="374" y="412" type="line" smooth="yes"/>
      <point x="491" y="390"/>
      <point x="537" y="324"/>
      <point x="514" y="213" type="curve" smooth="yes"/>
      <point x="500" y="142"/>
      <point x="465" y="88"/>
      <point x="412" y="50" type="curve" smooth="yes"/>
      <point x="360" y="12"/>
      <point x="294" y="-6"/>
      <point x="217" y="-6" type="curve" smooth="yes"/>
      <point x="141" y="-6"/>
      <point x="86" y="13"/>
    </contour>
  </outline>
</glyph>
<glyph name="T" format="2">
  <advance width="508"/>
  <unicode hex="0054"/>
  <outline>
    <contour>
      <point x="131" y="0" type="line"/>
      <point x="267" y="0" type="line"/>
      <point x="390" y="590" type="line"/>
      <point x="570" y="590" type="line"/>
      <point x="594" y="707" type="line"/>
      <point x="98" y="707" type="line"/>
      <point x="74" y="590" type="line"/>
      <point x="254" y="590" type="line"/>
    </contour>
  </outline>
</glyph>
<glyph name="U" format="2">
  <advance width="628"/>
  <unicode hex="0055"/>
  <outline>
    <contour>
      <point x="134" y="24" type="curve" smooth="yes"/>
      <point x="99" y="44"/>
      <point x="75" y="72"/>
      <point x="61" y="109" type="curve" smooth="yes"/>
      <point x="46" y="146"/>
      <point x="44" y="187"/>
      <point x="53" y="233" type="curve" smooth="yes"/>
      <point x="152" y="707" type="line"/>
      <point x="287" y="707" type="line"/>
      <point x="189" y="238" type="line" smooth="yes"/>
      <point x="181" y="198"/>
      <point x="185" y="166"/>
      <point x="201" y="144" type="curve" smooth="yes"/>
      <point x="217" y="122"/>
      <point x="244" y="111"/>
      <point x="281" y="111" type="curve" smooth="yes"/>
      <point x="318" y="111"/>
      <point x="349" y="122"/>
      <point x="376" y="144" type="curve" smooth="yes"/>
      <point x="403" y="166"/>
      <point x="419" y="198"/>
      <point x="427" y="238" type="curve" smooth="yes"/>
      <point x="525" y="707" type="line"/>
      <point x="660" y="707" type="line"/>
      <point x="561" y="233" type="line" smooth="yes"/>
      <point x="552" y="187"/>
      <point x="532" y="146"/>
      <point x="503" y="109" type="curve" smooth="yes"/>
      <point x="473" y="72"/>
      <point x="437" y="44"/>
      <point x="394" y="24" type="curve" smooth="yes"/>
      <point x="351" y="4"/>
      <point x="305" y="-6"/>
      <point x="257" y="-6" type="curve" smooth="yes"/>
      <point x="209" y="-6"/>
      <point x="169" y="4"/>
    </contour>
  </outline>
</glyph>
<glyph name="V" format="2">
  <advance width="567"/>
  <unicode hex="0056"/>
  <outline>
    <contour>
      <point x="96" y="707" type="line"/>
      <point x="236" y="707" type="line"/>
      <point x="274" y="218" type="line"/>
      <point x="515" y="707" type="line"/>
      <point x="655" y="707" type="line"/>
      <point x="282" y="0" type="line"/>
      <point x="174" y="0" type="line"/>
    </contour>
  </outline>
</glyph>
<glyph name="W" format="2">
  <advance width="852"/>
  <unicode hex="0057"/>
  <outline>
    <contour>
      <point x="123" y="0" type="line"/>
      <point x="245" y="0" type="line"/>
      <point x="482" y="523" type="line"/>
      <point x="502" y="0" type="line"/>
      <point x="625" y="0" type="line"/>
      <point x="941" y="707" type="line"/>
      <point x="816" y="707" type="line"/>
      <point x="612" y="208" type="line"/>
      <point x="607" y="707" type="line"/>
      <point x="440" y="707" type="line"/>
      <point x="233" y="208" type="line"/>
      <point x="230" y="707" type="line"/>
      <point x="96" y="707" type="line"/>
    </contour>
  </outline>
</glyph>
<glyph name="X" format="2">
  <advance width="607"/>
  <unicode hex="0058"/>
  <outline>
    <contour>
      <point x="-51" y="0" type="line"/>
      <point x="102" y="0" type="line"/>
      <point x="300" y="261" type="line"/>
      <point x="388" y="0" type="line"/>
      <point x="548" y="0" type="line"/>
      <point x="403" y="373" type="line"/>
      <point x="672" y="707" type="line"/>
      <point x="519" y="707" type="line"/>
      <point x="348" y="477" type="line"/>
      <point x="271" y="707" type="line"/>
      <point x="112" y="707" type="line"/>
      <point x="246" y="368" type="line"/>
    </contour>
  </outline>
</glyph>
<glyph name="Y" format="2">
  <advance width="553"/>
  <unicode hex="0059"/>
  <outline>
    <contour>
      <point x="350" y="291" type="line"/>
      <point x="289" y="0" type="line"/>
      <point x="155" y="0" type="line"/>
      <point x="215" y="290" type="line"/>
      <point x="96" y="707" type="line"/>
      <point x="243" y="707" type="line"/>
      <point x="308" y="420" type="line"/>
      <point x="494" y="707" type="line"/>
      <point x="642" y="707" type="line"/>
    </contour>
  </outline>
</glyph>
<glyph name="Z" format="2">
  <advance width="517"/>
  <unicode hex="005A"/>
  <outline>
    <contour>
      <point x="459" y="118" type="line"/>
      <point x="434" y="0" type="line"/>
      <point x="-24" y="0" type="line"/>
      <point x="1" y="118" type="line"/>
      <point x="403" y="590" type="line"/>
      <point x="105" y="590" type="line"/>
      <point x="129" y="707" type="line"/>
      <point x="572" y="707" type="line"/>
      <point x="548" y="590" type="line"/>
      <point x="147" y="118" type="line"/>
    </contour>
  </outline>
</glyph>
<glyph name="bracketleft" format="2">
  <advance width="322"/>
  <unicode hex="005B"/>
  <outline>
    <contour>
      <point x="-13" y="-86" type="line"/>
      <point x="203" y="-86" type="line"/>
      <point x="228" y="32" type="line"/>
      <point x="139" y="32" type="line"/>
      <point x="265" y="641" type="line"/>
      <point x="354" y="641" type="line"/>
      <point x="379" y="759" type="line"/>
      <point x="163" y="759" type="line"/>
    </contour>
  </outline>
</glyph>
<glyph name="bracketright" format="2">
  <advance width="323"/>
  <unicode hex="005D"/>
  <outline>
    <contour>
      <point x="-2" y="32" type="line"/>
      <point x="88" y="32" type="line"/>
      <point x="214" y="638" type="line"/>
      <point x="124" y="638" type="line"/>
      <point x="148" y="755" type="line"/>
      <point x="365" y="755" type="line"/>
      <point x="190" y="-86" type="line"/>
      <point x="-27" y="-86" type="line"/>
    </contour>
  </outline>
</glyph>
<glyph name="underscore" format="2">
  <advance width="512"/>
  <unicode hex="005F"/>
  <outline>
    <contour>
      <point x="-64" y="-41" type="line"/>
      <point x="448" y="-41" type="line"/>
      <point x="431" y="-124" type="line"/>
      <point x="-81" y="-124" type="line"/>
    </contour>
  </outline>
</glyph>
<glyph name="grave" format="2">
  <advance width="512"/>
  <unicode hex="0060"/>
  <outline>
    <contour>
      <point x="341" y="602" type="line"/>
      <point x="451" y="602" type="line"/>
      <point x="368" y="738" type="line"/>
      <point x="228" y="738" type="line"/>
    </contour>
  </outline>
</glyph>
<glyph name="b" format="2">
  <advance width="527"/>
  <unicode hex="0062"/>
  <outline>
    <contour>
      <point x="249" y="-6" type="curve" smooth="yes"/>
      <point x="300" y="-6"/>
      <point x="346" y="12"/>
      <point x="386" y="49" type="curve" smooth="yes"/>
      <point x="427" y="86"/>
      <point x="455" y="140"/>
      <point x="471" y="214" type="curve" smooth="yes"/>
      <point x="492" y="319" type="line" smooth="yes"/>
      <point x="508" y="393"/>
      <point x="502" y="448"/>
      <point x="477" y="484" type="curve" smooth="yes"/>
      <point x="451" y="520"/>
      <point x="411" y="539"/>
      <point x="358" y="539" type="curve" smooth="yes"/>
      <point x="308" y="539"/>
      <point x="264" y="518"/>
      <point x="226" y="478" type="curve"/>
      <point x="274" y="707" type="line"/>
      <point x="147" y="707" type="line"/>
      <point x="0" y="0" type="line"/>
      <point x="124" y="0" type="line"/>
      <point x="134" y="49" type="line"/>
      <point x="157" y="12"/>
      <point x="195" y="-6"/>
    </contour>
    <contour>
      <point x="178" y="135" type="curve" smooth="yes"/>
      <point x="166" y="154"/>
      <point x="164" y="182"/>
      <point x="171" y="218" type="curve" smooth="yes"/>
      <point x="191" y="314" type="line" smooth="yes"/>
      <point x="199" y="350"/>
      <point x="213" y="378"/>
      <point x="233" y="397" type="curve" smooth="yes"/>
      <point x="252" y="416"/>
      <point x="276" y="426"/>
      <point x="303" y="426" type="curve" smooth="yes"/>
      <point x="329" y="426"/>
      <point x="348" y="417"/>
      <point x="359" y="400" type="curve" smooth="yes"/>
      <point x="371" y="383"/>
      <point x="373" y="354"/>
      <point x="364" y="314" type="curve" smooth="yes"/>
      <point x="344" y="218" type="line" smooth="yes"/>
      <point x="329" y="144"/>
      <point x="294" y="106"/>
      <point x="239" y="106" type="curve" smooth="yes"/>
      <point x="210" y="106"/>
      <point x="190" y="116"/>
    </contour>
  </outline>
</glyph>
<glyph name="c" format="2">
  <advance width="517"/>
  <unicode hex="0063"/>
  <outline>
    <contour>
      <point x="59" y="48" type="curve" smooth="yes"/>
      <point x="27" y="84"/>
      <point x="20" y="141"/>
      <point x="36" y="217" type="curve" smooth="yes"/>
      <point x="57" y="316" type="line" smooth="yes"/>
      <point x="73" y="392"/>
      <point x="103" y="448"/>
      <point x="150" y="484" type="curve" smooth="yes"/>
      <point x="196" y="520"/>
      <point x="252" y="539"/>
      <point x="319" y="539" type="curve" smooth="yes"/>
      <point x="385" y="539"/>
      <point x="432" y="521"/>
      <point x="462" y="488" type="curve" smooth="yes"/>
      <point x="493" y="455"/>
      <point x="501" y="408"/>
      <point x="489" y="349" type="curve" smooth="yes"/>
      <point x="486" y="339" type="line"/>
      <point x="365" y="339" type="line"/>
      <point x="367" y="345" type="line" smooth="yes"/>
      <point x="372" y="370"/>
      <point x="368" y="390"/>
      <point x="356" y="404" type="curve" smooth="yes"/>
      <point x="344" y="418"/>
      <point x="325" y="426"/>
      <point x="298" y="426" type="curve" smooth="yes"/>
      <point x="237" y="426"/>
      <point x="198" y="388"/>
      <point x="182" y="314" type="curve" smooth="yes"/>
      <point x="162" y="218" type="line" smooth="yes"/>
      <point x="154" y="178"/>
      <point x="156" y="149"/>
      <point x="168" y="132" type="curve" smooth="yes"/>
      <point x="181" y="115"/>
      <point x="202" y="106"/>
      <point x="231" y="106" type="curve" smooth="yes"/>
      <point x="258" y="106"/>
      <point x="281" y="113"/>
      <point x="298" y="127" type="curve" smooth="yes"/>
      <point x="316" y="141"/>
      <point x="328" y="159"/>
      <point x="333" y="184" type="curve" smooth="yes"/>
      <point x="335" y="190" type="line"/>
      <point x="456" y="190" type="line"/>
      <point x="454" y="183" type="line" smooth="yes"/>
      <point x="442" y="124"/>
      <point x="414" y="79"/>
      <point x="370" y="45" type="curve" smooth="yes"/>
      <point x="326" y="11"/>
      <point x="272" y="-6"/>
      <point x="206" y="-6" type="curve" smooth="yes"/>
      <point x="139" y="-6"/>
      <point x="91" y="12"/>
    </contour>
  </outline>
</glyph>
<glyph name="d" format="2">
  <advance width="526"/>
  <unicode hex="0064"/>
  <outline>
    <contour>
      <point x="166" y="-6" type="curve" smooth="yes"/>
      <point x="220" y="-6"/>
      <point x="266" y="12"/>
      <point x="302" y="49" type="curve"/>
      <point x="292" y="0" type="line"/>
      <point x="416" y="0" type="line"/>
      <point x="563" y="707" type="line"/>
      <point x="437" y="707" type="line"/>
      <point x="389" y="478" type="line"/>
      <point x="369" y="518"/>
      <point x="331" y="539"/>
      <point x="278" y="539" type="curve" smooth="yes"/>
      <point x="226" y="539"/>
      <point x="180" y="520"/>
      <point x="141" y="484" type="curve" smooth="yes"/>
      <point x="101" y="448"/>
      <point x="73" y="393"/>
      <point x="57" y="319" type="curve" smooth="yes"/>
      <point x="36" y="214" type="line" smooth="yes"/>
      <point x="20" y="140"/>
      <point x="26" y="86"/>
      <point x="51" y="49" type="curve" smooth="yes"/>
      <point x="77" y="12"/>
      <point x="115" y="-6"/>
    </contour>
    <contour>
      <point x="163" y="218" type="curve" smooth="yes"/>
      <point x="183" y="314" type="line" smooth="yes"/>
      <point x="199" y="388"/>
      <point x="235" y="426"/>
      <point x="292" y="426" type="curve" smooth="yes"/>
      <point x="319" y="426"/>
      <point x="338" y="416"/>
      <point x="350" y="397" type="curve" smooth="yes"/>
      <point x="361" y="378"/>
      <point x="363" y="350"/>
      <point x="355" y="314" type="curve" smooth="yes"/>
      <point x="335" y="218" type="line" smooth="yes"/>
      <point x="328" y="182"/>
      <point x="315" y="154"/>
      <point x="295" y="135" type="curve" smooth="yes"/>
      <point x="275" y="116"/>
      <point x="251" y="106"/>
      <point x="222" y="106" type="curve" smooth="yes"/>
      <point x="167" y="106"/>
      <point x="148" y="144"/>
    </contour>
  </outline>
</glyph>
<glyph name="e" format="2">
  <advance width="529"/>
  <unicode hex="0065"/>
  <outline>
    <contour>
      <point x="213" y="-6" type="curve" smooth="yes"/>
      <point x="278" y="-6"/>
      <point x="332" y="9"/>
      <point x="376" y="40" type="curve" smooth="yes"/>
      <point x="421" y="71"/>
      <point x="447" y="111"/>
      <point x="458" y="162" type="curve" smooth="yes"/>
      <point x="459" y="167" type="line"/>
      <point x="338" y="167" type="line"/>
      <point x="336" y="164" type="line"/>
      <point x="331" y="145"/>
      <point x="320" y="130"/>
      <point x="304" y="119" type="curve" smooth="yes"/>
      <point x="287" y="108"/>
      <point x="265" y="103"/>
      <point x="240" y="103" type="curve" smooth="yes"/>
      <point x="207" y="103"/>
      <point x="185" y="112"/>
      <point x="171" y="129" type="curve" smooth="yes"/>
      <point x="156" y="146"/>
      <point x="153" y="174"/>
      <point x="162" y="214" type="curve" smooth="yes"/>
      <point x="164" y="228" type="line"/>
      <point x="475" y="228" type="line"/>
      <point x="490" y="299" type="line" smooth="yes"/>
      <point x="507" y="378"/>
      <point x="499" y="438"/>
      <point x="468" y="478" type="curve" smooth="yes"/>
      <point x="438" y="518"/>
      <point x="389" y="539"/>
      <point x="322" y="539" type="curve" smooth="yes"/>
      <point x="254" y="539"/>
      <point x="196" y="519"/>
      <point x="149" y="479" type="curve" smooth="yes"/>
      <point x="101" y="439"/>
      <point x="70" y="379"/>
      <point x="53" y="299" type="curve" smooth="yes"/>
      <point x="40" y="234" type="line" smooth="yes"/>
      <point x="23" y="152"/>
      <point x="30" y="92"/>
      <point x="62" y="53" type="curve" smooth="yes"/>
      <point x="94" y="14"/>
      <point x="145" y="-6"/>
    </contour>
    <contour>
      <point x="182" y="315" type="line"/>
      <point x="183" y="318" type="line" smooth="yes"/>
      <point x="191" y="358"/>
      <point x="205" y="387"/>
      <point x="225" y="404" type="curve" smooth="yes"/>
      <point x="245" y="421"/>
      <point x="269" y="430"/>
      <point x="299" y="430" type="curve" smooth="yes"/>
      <point x="360" y="430"/>
      <point x="384" y="397"/>
      <point x="369" y="329" type="curve" smooth="yes"/>
      <point x="366" y="315" type="line"/>
    </contour>
  </outline>
</glyph>
<glyph name="f" format="2">
  <advance width="342"/>
  <unicode hex="0066"/>
  <outline>
    <contour>
      <point x="303" y="608" type="curve" smooth="yes"/>
      <point x="293" y="599"/>
      <point x="286" y="586"/>
      <point x="282" y="569" type="curve" smooth="yes"/>
      <point x="275" y="532" type="line"/>
      <point x="370" y="532" type="line"/>
      <point x="351" y="443" type="line"/>
      <point x="256" y="443" type="line"/>
      <point x="164" y="0" type="line"/>
      <point x="38" y="0" type="line"/>
      <point x="130" y="443" type="line"/>
      <point x="74" y="443" type="line"/>
      <point x="93" y="532" type="line"/>
      <point x="149" y="532" type="line"/>
      <point x="155" y="564" type="line" smooth="yes"/>
      <point x="165" y="609"/>
      <point x="185" y="644"/>
      <point x="216" y="669" type="curve" smooth="yes"/>
      <point x="247" y="694"/>
      <point x="286" y="707"/>
      <point x="333" y="707" type="curve" smooth="yes"/>
      <point x="406" y="707" type="line"/>
      <point x="388" y="621" type="line"/>
      <point x="346" y="621" type="line" smooth="yes"/>
      <point x="328" y="621"/>
      <point x="314" y="617"/>
    </contour>
  </outline>
</glyph>
<glyph name="g" format="2">
  <advance width="526"/>
  <unicode hex="0067"/>
  <outline>
    <contour>
      <point x="29" y="-127" type="curve" smooth="yes"/>
      <point x="0" y="-100"/>
      <point x="-12" y="-61"/>
      <point x="-5" y="-13" type="curve"/>
      <point x="117" y="-13" type="line"/>
      <point x="117" y="-29"/>
      <point x="123" y="-43"/>
      <point x="136" y="-53" type="curve" smooth="yes"/>
      <point x="149" y="-63"/>
      <point x="167" y="-68"/>
      <point x="191" y="-68" type="curve" smooth="yes"/>
      <point x="249" y="-68"/>
      <point x="285" y="-35"/>
      <point x="298" y="31" type="curve" smooth="yes"/>
      <point x="312" y="96" type="line"/>
      <point x="275" y="59"/>
      <point x="230" y="41"/>
      <point x="176" y="41" type="curve" smooth="yes"/>
      <point x="125" y="41"/>
      <point x="86" y="59"/>
      <point x="61" y="96" type="curve" smooth="yes"/>
      <point x="36" y="133"/>
      <point x="30" y="187"/>
      <point x="45" y="261" type="curve" smooth="yes"/>
      <point x="57" y="319" type="line" smooth="yes"/>
      <point x="73" y="393"/>
      <point x="101" y="448"/>
      <point x="141" y="484" type="curve" smooth="yes"/>
      <point x="180" y="520"/>
      <point x="226" y="539"/>
      <point x="278" y="539" type="curve" smooth="yes"/>
      <point x="331" y="539"/>
      <point x="369" y="518"/>
      <point x="389" y="478" type="curve"/>
      <point x="401" y="532" type="line"/>
      <point x="527" y="532" type="line"/>
      <point x="424" y="39" type="line" smooth="yes"/>
      <point x="411" y="-24"/>
      <point x="381" y="-75"/>
      <point x="336" y="-112" type="curve" smooth="yes"/>
      <point x="290" y="-149"/>
      <point x="233" y="-168"/>
      <point x="165" y="-168" type="curve" smooth="yes"/>
      <point x="103" y="-168"/>
      <point x="57" y="-154"/>
    </contour>
    <contour>
      <point x="305" y="182" type="curve" smooth="yes"/>
      <point x="325" y="201"/>
      <point x="338" y="229"/>
      <point x="345" y="265" type="curve" smooth="yes"/>
      <point x="355" y="314" type="line" smooth="yes"/>
      <point x="363" y="350"/>
      <point x="361" y="378"/>
      <point x="350" y="397" type="curve" smooth="yes"/>
      <point x="338" y="416"/>
      <point x="319" y="426"/>
      <point x="292" y="426" type="curve" smooth="yes"/>
      <point x="235" y="426"/>
      <point x="199" y="388"/>
      <point x="183" y="314" type="curve" smooth="yes"/>
      <point x="173" y="265" type="line" smooth="yes"/>
      <point x="158" y="191"/>
      <point x="177" y="154"/>
      <point x="232" y="154" type="curve" smooth="yes"/>
      <point x="261" y="154"/>
      <point x="285" y="163"/>
    </contour>
  </outline>
</glyph>
<glyph name="h" format="2">
  <advance width="532"/>
  <unicode hex="0068"/>
  <outline>
    <contour>
      <point x="0" y="0" type="line"/>
      <point x="127" y="0" type="line"/>
      <point x="196" y="332" type="line" smooth="yes"/>
      <point x="202" y="362"/>
      <point x="215" y="385"/>
      <point x="234" y="401" type="curve" smooth="yes"/>
      <point x="254" y="417"/>
      <point x="276" y="426"/>
      <point x="301" y="426" type="curve" smooth="yes"/>
      <point x="326" y="426"/>
      <point x="345" y="418"/>
      <point x="357" y="402" type="curve" smooth="yes"/>
      <point x="368" y="386"/>
      <point x="370" y="363"/>
      <point x="364" y="332" type="curve" smooth="yes"/>
      <point x="295" y="0" type="line"/>
      <point x="422" y="0" type="line"/>
      <point x="494" y="347" type="line" smooth="yes"/>
      <point x="507" y="407"/>
      <point x="501" y="454"/>
      <point x="478" y="488" type="curve" smooth="yes"/>
      <point x="456" y="522"/>
      <point x="417" y="539"/>
      <point x="362" y="539" type="curve" smooth="yes"/>
      <point x="338" y="539"/>
      <point x="315" y="534"/>
      <point x="292" y="525" type="curve" smooth="yes"/>
      <point x="269" y="516"/>
      <point x="248" y="503"/>
      <point x="228" y="485" type="curve"/>
      <point x="274" y="707" type="line"/>
      <point x="147" y="707" type="line"/>
    </contour>
  </outline>
</glyph>
<glyph name="i" format="2">
  <advance width="246"/>
  <unicode hex="0069"/>
  <outline>
    <contour>
      <point x="116" y="532" type="line"/>
      <point x="242" y="532" type="line"/>
      <point x="131" y="0" type="line"/>
      <point x="5" y="0" type="line"/>
    </contour>
    <contour>
      <point x="150" y="707" type="line"/>
      <point x="279" y="707" type="line"/>
      <point x="258" y="605" type="line"/>
      <point x="129" y="605" type="line"/>
    </contour>
  </outline>
</glyph>
<glyph name="k" format="2">
  <advance width="532"/>
  <unicode hex="006B"/>
  <outline>
    <contour>
      <point x="230" y="223" type="line"/>
      <point x="160" y="158" type="line"/>
      <point x="127" y="0" type="line"/>
      <point x="0" y="0" type="line"/>
      <point x="147" y="707" type="line"/>
      <point x="274" y="707" type="line"/>
      <point x="192" y="311" type="line"/>
      <point x="410" y="532" type="line"/>
      <point x="561" y="532" type="line"/>
      <point x="335" y="321" type="line"/>
      <point x="463" y="0" type="line"/>
      <point x="310" y="0" type="line"/>
    </contour>
  </outline>
</glyph>
<glyph name="l" format="2">
  <advance width="293"/>
  <unicode hex="006C"/>
  <outline>
    <contour>
      <point x="162" y="0" type="curve" smooth="yes"/>
      <point x="220" y="0" type="line"/>
      <point x="243" y="110" type="line"/>
      <point x="200" y="110" type="line" smooth="yes"/>
      <point x="182" y="110"/>
      <point x="171" y="114"/>
      <point x="165" y="123" type="curve" smooth="yes"/>
      <point x="158" y="132"/>
      <point x="158" y="148"/>
      <point x="162" y="170" type="curve" smooth="yes"/>
      <point x="274" y="707" type="line"/>
      <point x="147" y="707" type="line"/>
      <point x="34" y="162" type="line" smooth="yes"/>
      <point x="23" y="110"/>
      <point x="30" y="70"/>
      <point x="52" y="42" type="curve" smooth="yes"/>
      <point x="74" y="14"/>
      <point x="111" y="0"/>
    </contour>
  </outline>
</glyph>
<glyph name="m" format="2">
  <advance width="827"/>
  <unicode hex="006D"/>
  <outline>
    <contour>
      <point x="111" y="532" type="line"/>
      <point x="235" y="532" type="line"/>
      <point x="225" y="484" type="line"/>
      <point x="244" y="501"/>
      <point x="266" y="514"/>
      <point x="290" y="524" type="curve" smooth="yes"/>
      <point x="314" y="534"/>
      <point x="338" y="539"/>
      <point x="362" y="539" type="curve" smooth="yes"/>
      <point x="421" y="539"/>
      <point x="462" y="516"/>
      <point x="484" y="472" type="curve"/>
      <point x="534" y="516"/>
      <point x="590" y="539"/>
      <point x="649" y="539" type="curve" smooth="yes"/>
      <point x="706" y="539"/>
      <point x="745" y="521"/>
      <point x="770" y="487" type="curve" smooth="yes"/>
      <point x="795" y="453"/>
      <point x="801" y="406"/>
      <point x="789" y="347" type="curve" smooth="yes"/>
      <point x="717" y="0" type="line"/>
      <point x="590" y="0" type="line"/>
      <point x="659" y="332" type="line" smooth="yes"/>
      <point x="665" y="363"/>
      <point x="662" y="386"/>
      <point x="651" y="402" type="curve" smooth="yes"/>
      <point x="639" y="418"/>
      <point x="621" y="426"/>
      <point x="596" y="426" type="curve" smooth="yes"/>
      <point x="570" y="426"/>
      <point x="547" y="418"/>
      <point x="528" y="401" type="curve" smooth="yes"/>
      <point x="510" y="384"/>
      <point x="497" y="362"/>
      <point x="492" y="335" type="curve" smooth="yes"/>
      <point x="422" y="0" type="line"/>
      <point x="295" y="0" type="line"/>
      <point x="364" y="332" type="line" smooth="yes"/>
      <point x="370" y="363"/>
      <point x="367" y="386"/>
      <point x="356" y="402" type="curve" smooth="yes"/>
      <point x="344" y="418"/>
      <point x="326" y="426"/>
      <point x="301" y="426" type="curve" smooth="yes"/>
      <point x="276" y="426"/>
      <point x="254" y="417"/>
      <point x="234" y="401" type="curve" smooth="yes"/>
      <point x="215" y="385"/>
      <point x="202" y="362"/>
      <point x="196" y="332" type="curve" smooth="yes"/>
      <point x="127" y="0" type="line"/>
      <point x="0" y="0" type="line"/>
    </contour>
  </outline>
</glyph>
<glyph name="o" format="2">
  <advance width="522"/>
  <unicode hex="006F"/>
  <outline>
    <contour>
      <point x="59" y="48" type="curve" smooth="yes"/>
      <point x="27" y="84"/>
      <point x="20" y="141"/>
      <point x="36" y="217" type="curve" smooth="yes"/>
      <point x="57" y="316" type="line" smooth="yes"/>
      <point x="73" y="392"/>
      <point x="103" y="448"/>
      <point x="150" y="484" type="curve" smooth="yes"/>
      <point x="196" y="520"/>
      <point x="252" y="539"/>
      <point x="319" y="539" type="curve" smooth="yes"/>
      <point x="385" y="539"/>
      <point x="434" y="520"/>
      <point x="465" y="484" type="curve" smooth="yes"/>
      <point x="495" y="448"/>
      <point x="503" y="392"/>
      <point x="487" y="316" type="curve" smooth="yes"/>
      <point x="466" y="217" type="line" smooth="yes"/>
      <point x="450" y="141"/>
      <point x="419" y="84"/>
      <point x="374" y="48" type="curve" smooth="yes"/>
      <point x="329" y="12"/>
      <point x="272" y="-6"/>
      <point x="206" y="-6" type="curve" smooth="yes"/>
      <point x="139" y="-6"/>
      <point x="91" y="12"/>
    </contour>
    <contour>
      <point x="340" y="218" type="curve" smooth="yes"/>
      <point x="360" y="314" type="line" smooth="yes"/>
      <point x="376" y="388"/>
      <point x="355" y="426"/>
      <point x="296" y="426" type="curve" smooth="yes"/>
      <point x="236" y="426"/>
      <point x="198" y="388"/>
      <point x="182" y="314" type="curve" smooth="yes"/>
      <point x="162" y="218" type="line" smooth="yes"/>
      <point x="147" y="144"/>
      <point x="169" y="106"/>
      <point x="229" y="106" type="curve" smooth="yes"/>
      <point x="288" y="106"/>
      <point x="325" y="144"/>
    </contour>
  </outline>
</glyph>
<glyph name="q" format="2">
  <advance width="526"/>
  <unicode hex="0071"/>
  <outline>
    <contour>
      <point x="300" y="48" type="line"/>
      <point x="264" y="12"/>
      <point x="219" y="-6"/>
      <point x="166" y="-6" type="curve" smooth="yes"/>
      <point x="115" y="-6"/>
      <point x="77" y="12"/>
      <point x="51" y="49" type="curve" smooth="yes"/>
      <point x="26" y="86"/>
      <point x="20" y="140"/>
      <point x="36" y="214" type="curve" smooth="yes"/>
      <point x="57" y="319" type="line" smooth="yes"/>
      <point x="73" y="393"/>
      <point x="101" y="448"/>
      <point x="142" y="484" type="curve" smooth="yes"/>
      <point x="182" y="520"/>
      <point x="229" y="539"/>
      <point x="282" y="539" type="curve" smooth="yes"/>
      <point x="333" y="539"/>
      <point x="370" y="518"/>
      <point x="391" y="478" type="curve"/>
      <point x="403" y="532" type="line"/>
      <point x="527" y="532" type="line"/>
      <point x="383" y="-160" type="line"/>
      <point x="257" y="-160" type="line"/>
    </contour>
    <contour>
      <point x="295" y="135" type="curve" smooth="yes"/>
      <point x="315" y="154"/>
      <point x="328" y="182"/>
      <point x="335" y="218" type="curve" smooth="yes"/>
      <point x="355" y="314" type="line" smooth="yes"/>
      <point x="363" y="350"/>
      <point x="361" y="378"/>
      <point x="350" y="397" type="curve" smooth="yes"/>
      <point x="338" y="416"/>
      <point x="319" y="426"/>
      <point x="292" y="426" type="curve" smooth="yes"/>
      <point x="235" y="426"/>
      <point x="199" y="388"/>
      <point x="183" y="314" type="curve" smooth="yes"/>
      <point x="163" y="218" type="line" smooth="yes"/>
      <point x="148" y="144"/>
      <point x="167" y="106"/>
      <point x="222" y="106" type="curve" smooth="yes"/>
      <point x="251" y="106"/>
      <point x="275" y="116"/>
    </contour>
  </outline>
</glyph>
<glyph name="r" format="2">
  <advance width="366"/>
  <unicode hex="0072"/>
  <outline>
    <contour>
      <point x="111" y="532" type="line"/>
      <point x="235" y="532" type="line"/>
      <point x="223" y="477" type="line"/>
      <point x="241" y="500"/>
      <point x="261" y="516"/>
      <point x="286" y="527" type="curve" smooth="yes"/>
      <point x="310" y="538"/>
      <point x="336" y="544"/>
      <point x="363" y="544" type="curve" smooth="yes"/>
      <point x="379" y="544"/>
      <point x="393" y="543"/>
      <point x="405" y="540" type="curve"/>
      <point x="381" y="421" type="line"/>
      <point x="358" y="429"/>
      <point x="338" y="432"/>
      <point x="320" y="432" type="curve" smooth="yes"/>
      <point x="289" y="432"/>
      <point x="262" y="422"/>
      <point x="239" y="403" type="curve" smooth="yes"/>
      <point x="216" y="384"/>
      <point x="201" y="355"/>
      <point x="193" y="319" type="curve" smooth="yes"/>
      <point x="127" y="0" type="line"/>
      <point x="0" y="0" type="line"/>
    </contour>
  </outline>
</glyph>
<glyph name="s" format="2">
  <advance width="485"/>
  <unicode hex="0073"/>
  <outline>
    <contour>
      <point x="183" y="-6" type="curve" smooth="yes"/>
      <point x="246" y="-6"/>
      <point x="300" y="8"/>
      <point x="346" y="38" type="curve" smooth="yes"/>
      <point x="392" y="68"/>
      <point x="421" y="110"/>
      <point x="432" y="165" type="curve" smooth="yes"/>
      <point x="441" y="209"/>
      <point x="436" y="244"/>
      <point x="414" y="269" type="curve" smooth="yes"/>
      <point x="392" y="294"/>
      <point x="355" y="310"/>
      <point x="304" y="318" type="curve" smooth="yes"/>
      <point x="243" y="328" type="line" smooth="yes"/>
      <point x="220" y="331"/>
      <point x="205" y="337"/>
      <point x="196" y="346" type="curve" smooth="yes"/>
      <point x="187" y="355"/>
      <point x="184" y="367"/>
      <point x="188" y="383" type="curve" smooth="yes"/>
      <point x="191" y="400"/>
      <point x="200" y="414"/>
      <point x="216" y="424" type="curve" smooth="yes"/>
      <point x="232" y="434"/>
      <point x="253" y="439"/>
      <point x="279" y="439" type="curve" smooth="yes"/>
      <point x="305" y="439"/>
      <point x="324" y="434"/>
      <point x="337" y="424" type="curve" smooth="yes"/>
      <point x="350" y="414"/>
      <point x="354" y="399"/>
      <point x="350" y="381" type="curve" smooth="yes"/>
      <point x="350" y="378" type="line"/>
      <point x="467" y="378" type="line"/>
      <point x="468" y="384" type="line" smooth="yes"/>
      <point x="474" y="413"/>
      <point x="471" y="439"/>
      <point x="459" y="463" type="curve" smooth="yes"/>
      <point x="447" y="487"/>
      <point x="428" y="506"/>
      <point x="401" y="519" type="curve" smooth="yes"/>
      <point x="374" y="532"/>
      <point x="340" y="539"/>
      <point x="300" y="539" type="curve" smooth="yes"/>
      <point x="242" y="539"/>
      <point x="191" y="524"/>
      <point x="148" y="494" type="curve" smooth="yes"/>
      <point x="104" y="464"/>
      <point x="77" y="425"/>
      <point x="67" y="374" type="curve" smooth="yes"/>
      <point x="58" y="330"/>
      <point x="63" y="295"/>
      <point x="83" y="271" type="curve" smooth="yes"/>
      <point x="103" y="247"/>
      <point x="140" y="231"/>
      <point x="191" y="222" type="curve" smooth="yes"/>
      <point x="245" y="213" type="line" smooth="yes"/>
      <point x="271" y="209"/>
      <point x="289" y="203"/>
      <point x="299" y="194" type="curve" smooth="yes"/>
      <point x="309" y="185"/>
      <point x="313" y="172"/>
      <point x="309" y="156" type="curve" smooth="yes"/>
      <point x="305" y="136"/>
      <point x="294" y="121"/>
      <point x="276" y="111" type="curve" smooth="yes"/>
      <point x="258" y="101"/>
      <point x="236" y="96"/>
      <point x="208" y="96" type="curve" smooth="yes"/>
      <point x="182" y="96"/>
      <point x="162" y="102"/>
      <point x="149" y="113" type="curve" smooth="yes"/>
      <point x="135" y="124"/>
      <point x="130" y="140"/>
      <point x="134" y="160" type="curve" smooth="yes"/>
      <point x="135" y="162" type="line"/>
      <point x="16" y="162" type="line"/>
      <point x="15" y="158" type="line" smooth="yes"/>
      <point x="4" y="108"/>
      <point x="14" y="68"/>
      <point x="45" y="38" type="curve" smooth="yes"/>
      <point x="76" y="8"/>
      <point x="122" y="-6"/>
    </contour>
  </outline>
</glyph>
<glyph name="t" format="2">
  <advance width="360"/>
  <unicode hex="0074"/>
  <outline>
    <contour>
      <point x="202" y="0" type="curve" smooth="yes"/>
      <point x="262" y="0" type="line"/>
      <point x="284" y="108" type="line"/>
      <point x="245" y="108" type="line" smooth="yes"/>
      <point x="210" y="108"/>
      <point x="196" y="126"/>
      <point x="204" y="162" type="curve" smooth="yes"/>
      <point x="262" y="443" type="line"/>
      <point x="365" y="443" type="line"/>
      <point x="384" y="532" type="line"/>
      <point x="281" y="532" type="line"/>
      <point x="312" y="681" type="line"/>
      <point x="176" y="637" type="line"/>
      <point x="155" y="532" type="line"/>
      <point x="82" y="532" type="line"/>
      <point x="63" y="443" type="line"/>
      <point x="136" y="443" type="line"/>
      <point x="76" y="154" type="line" smooth="yes"/>
      <point x="66" y="107"/>
      <point x="73" y="69"/>
      <point x="96" y="41" type="curve" smooth="yes"/>
      <point x="118" y="13"/>
      <point x="154" y="0"/>
    </contour>
  </outline>
</glyph>
<glyph name="u" format="2">
  <advance width="532"/>
  <unicode hex="0075"/>
  <outline>
    <contour>
      <point x="210" y="-6" type="curve" smooth="yes"/>
      <point x="281" y="-6"/>
      <point x="338" y="12"/>
      <point x="380" y="49" type="curve" smooth="yes"/>
      <point x="423" y="86"/>
      <point x="451" y="141"/>
      <point x="467" y="215" type="curve" smooth="yes"/>
      <point x="533" y="532" type="line"/>
      <point x="406" y="532" type="line"/>
      <point x="341" y="221" type="line" smooth="yes"/>
      <point x="333" y="181"/>
      <point x="321" y="152"/>
      <point x="306" y="134" type="curve" smooth="yes"/>
      <point x="291" y="116"/>
      <point x="266" y="106"/>
      <point x="233" y="106" type="curve" smooth="yes"/>
      <point x="200" y="106"/>
      <point x="179" y="117"/>
      <point x="172" y="136" type="curve" smooth="yes"/>
      <point x="165" y="155"/>
      <point x="165" y="183"/>
      <point x="173" y="221" type="curve" smooth="yes"/>
      <point x="238" y="532" type="line"/>
      <point x="111" y="532" type="line"/>
      <point x="45" y="215" type="line" smooth="yes"/>
      <point x="14" y="68"/>
      <point x="69" y="-6"/>
    </contour>
  </outline>
</glyph>
<glyph name="v" format="2">
  <advance width="492"/>
  <unicode hex="0076"/>
  <outline>
    <contour>
      <point x="65" y="532" type="line"/>
      <point x="199" y="532" type="line"/>
      <point x="233" y="195" type="line"/>
      <point x="405" y="532" type="line"/>
      <point x="539" y="532" type="line"/>
      <point x="243" y="0" type="line"/>
      <point x="139" y="0" type="line"/>
    </contour>
  </outline>
</glyph>
<glyph name="w" format="2">
  <advance width="753"/>
  <unicode hex="0077"/>
  <outline>
    <contour>
      <point x="65" y="532" type="line"/>
      <point x="199" y="532" type="line"/>
      <point x="212" y="195" type="line"/>
      <point x="385" y="532" type="line"/>
      <point x="480" y="532" type="line"/>
      <point x="512" y="195" type="line"/>
      <point x="665" y="532" type="line"/>
      <point x="800" y="532" type="line"/>
      <point x="533" y="0" type="line"/>
      <point x="425" y="0" type="line"/>
      <point x="393" y="345" type="line"/>
      <point x="217" y="0" type="line"/>
      <point x="110" y="0" type="line"/>
    </contour>
  </outline>
</glyph>
<glyph name="x" format="2">
  <advance width="470"/>
  <unicode hex="0078"/>
  <outline>
    <contour>
      <point x="-46" y="0" type="line"/>
      <point x="87" y="0" type="line"/>
      <point x="210" y="168" type="line"/>
      <point x="274" y="0" type="line"/>
      <point x="406" y="0" type="line"/>
      <point x="302" y="279" type="line"/>
      <point x="508" y="532" type="line"/>
      <point x="374" y="532" type="line"/>
      <point x="264" y="381" type="line"/>
      <point x="208" y="532" type="line"/>
      <point x="74" y="532" type="line"/>
      <point x="171" y="274" type="line"/>
    </contour>
  </outline>
</glyph>
<glyph name="y" format="2">
  <advance width="493"/>
  <unicode hex="0079"/>
  <outline>
    <contour>
      <point x="540" y="532" type="line"/>
      <point x="218" y="-46" type="line" smooth="yes"/>
      <point x="196" y="-85"/>
      <point x="172" y="-113"/>
      <point x="142" y="-131" type="curve" smooth="yes"/>
      <point x="112" y="-149"/>
      <point x="76" y="-158"/>
      <point x="34" y="-158" type="curve" smooth="yes"/>
      <point x="-10" y="-158" type="line"/>
      <point x="14" y="-44" type="line"/>
      <point x="54" y="-44" type="line" smooth="yes"/>
      <point x="74" y="-44"/>
      <point x="90" y="-40"/>
      <point x="101" y="-33" type="curve" smooth="yes"/>
      <point x="113" y="-26"/>
      <point x="123" y="-13"/>
      <point x="133" y="7" type="curve" smooth="yes"/>
      <point x="137" y="14" type="line"/>
      <point x="65" y="532" type="line"/>
      <point x="199" y="532" type="line"/>
      <point x="234" y="198" type="line"/>
      <point x="410" y="532" type="line"/>
    </contour>
  </outline>
</glyph>
<glyph name="braceleft" format="2">
  <advance width="368"/>
  <unicode hex="007B"/>
  <outline>
    <contour>
      <point x="91" y="-54" type="curve" smooth="yes"/>
      <point x="73" y="-32"/>
      <point x="69" y="-1"/>
      <point x="77" y="40" type="curve" smooth="yes"/>
      <point x="111" y="202" type="line" smooth="yes"/>
      <point x="117" y="231"/>
      <point x="115" y="251"/>
      <point x="106" y="264" type="curve" smooth="yes"/>
      <point x="97" y="277"/>
      <point x="79" y="284"/>
      <point x="50" y="284" type="curve"/>
      <point x="73" y="392" type="line"/>
      <point x="102" y="392"/>
      <point x="122" y="399"/>
      <point x="137" y="412" type="curve" smooth="yes"/>
      <point x="151" y="425"/>
      <point x="162" y="445"/>
      <point x="168" y="474" type="curve" smooth="yes"/>
      <point x="201" y="633" type="line" smooth="yes"/>
      <point x="209" y="673"/>
      <point x="226" y="704"/>
      <point x="253" y="726" type="curve" smooth="yes"/>
      <point x="280" y="748"/>
      <point x="313" y="758"/>
      <point x="354" y="758" type="curve" smooth="yes"/>
      <point x="426" y="758" type="line"/>
      <point x="404" y="655" type="line"/>
      <point x="368" y="655" type="line" smooth="yes"/>
      <point x="339" y="655"/>
      <point x="322" y="640"/>
      <point x="316" y="610" type="curve" smooth="yes"/>
      <point x="286" y="468" type="line" smooth="yes"/>
      <point x="278" y="429"/>
      <point x="267" y="399"/>
      <point x="252" y="380" type="curve" smooth="yes"/>
      <point x="237" y="361"/>
      <point x="215" y="347"/>
      <point x="186" y="338" type="curve"/>
      <point x="211" y="328"/>
      <point x="227" y="314"/>
      <point x="234" y="295" type="curve" smooth="yes"/>
      <point x="241" y="276"/>
      <point x="240" y="247"/>
      <point x="232" y="208" type="curve" smooth="yes"/>
      <point x="202" y="61" type="line" smooth="yes"/>
      <point x="195" y="31"/>
      <point x="206" y="16"/>
      <point x="235" y="16" type="curve" smooth="yes"/>
      <point x="271" y="16" type="line"/>
      <point x="250" y="-86" type="line"/>
      <point x="178" y="-86" type="line" smooth="yes"/>
      <point x="137" y="-86"/>
      <point x="108" y="-76"/>
    </contour>
  </outline>
</glyph>
<glyph name="braceright" format="2">
  <advance width="368"/>
  <unicode hex="007D"/>
  <outline>
    <contour>
      <point x="-6" y="16" type="line"/>
      <point x="30" y="16" type="line" smooth="yes"/>
      <point x="59" y="16"/>
      <point x="77" y="31"/>
      <point x="84" y="61" type="curve" smooth="yes"/>
      <point x="114" y="208" type="line" smooth="yes"/>
      <point x="122" y="247"/>
      <point x="133" y="276"/>
      <point x="148" y="295" type="curve" smooth="yes"/>
      <point x="163" y="314"/>
      <point x="185" y="328"/>
      <point x="214" y="338" type="curve"/>
      <point x="189" y="347"/>
      <point x="173" y="361"/>
      <point x="166" y="380" type="curve" smooth="yes"/>
      <point x="159" y="399"/>
      <point x="160" y="429"/>
      <point x="168" y="468" type="curve" smooth="yes"/>
      <point x="198" y="610" type="line" smooth="yes"/>
      <point x="204" y="640"/>
      <point x="192" y="655"/>
      <point x="163" y="655" type="curve" smooth="yes"/>
      <point x="127" y="655" type="line"/>
      <point x="149" y="758" type="line"/>
      <point x="222" y="758" type="line" smooth="yes"/>
      <point x="263" y="758"/>
      <point x="291" y="748"/>
      <point x="308" y="726" type="curve" smooth="yes"/>
      <point x="325" y="704"/>
      <point x="330" y="673"/>
      <point x="322" y="633" type="curve" smooth="yes"/>
      <point x="289" y="474" type="line" smooth="yes"/>
      <point x="283" y="445"/>
      <point x="284" y="425"/>
      <point x="294" y="412" type="curve" smooth="yes"/>
      <point x="303" y="399"/>
      <point x="322" y="392"/>
      <point x="350" y="392" type="curve"/>
      <point x="327" y="284" type="line"/>
      <point x="299" y="284"/>
      <point x="278" y="277"/>
      <point x="263" y="264" type="curve" smooth="yes"/>
      <point x="248" y="251"/>
      <point x="238" y="231"/>
      <point x="232" y="202" type="curve" smooth="yes"/>
      <point x="198" y="40" type="line" smooth="yes"/>
      <point x="190" y="-1"/>
      <point x="172" y="-32"/>
      <point x="146" y="-54" type="curve" smooth="yes"/>
      <point x="119" y="-76"/>
      <point x="87" y="-86"/>
      <point x="46" y="-86" type="curve" smooth="yes"/>
      <point x="-27" y="-86" type="line"/>
    </contour>
  </outline>
</glyph>
<glyph name="asciitilde" format="2">
  <advance width="541"/>
  <unicode hex="007E"/>
  <outline>
    <contour>
      <point x="355" y="200" type="curve" smooth="yes"/>
      <point x="386" y="200"/>
      <point x="415" y="210"/>
      <point x="441" y="229" type="curve" smooth="yes"/>
      <point x="467" y="248"/>
      <point x="487" y="276"/>
      <point x="503" y="312" type="curve"/>
      <point x="421" y="362" type="line"/>
      <point x="411" y="342"/>
      <point x="401" y="327"/>
      <point x="390" y="318" type="curve" smooth="yes"/>
      <point x="379" y="309"/>
      <point x="366" y="305"/>
      <point x="351" y="305" type="curve" smooth="yes"/>
      <point x="341" y="305"/>
      <point x="332" y="307"/>
      <point x="322" y="311" type="curve" smooth="yes"/>
      <point x="312" y="315"/>
      <point x="300" y="322"/>
      <point x="285" y="330" type="curve" smooth="yes"/>
      <point x="266" y="341"/>
      <point x="248" y="349"/>
      <point x="234" y="354" type="curve" smooth="yes"/>
      <point x="220" y="359"/>
      <point x="204" y="362"/>
      <point x="186" y="362" type="curve" smooth="yes"/>
      <point x="155" y="362"/>
      <point x="127" y="353"/>
      <point x="102" y="334" type="curve" smooth="yes"/>
      <point x="77" y="315"/>
      <point x="56" y="287"/>
      <point x="40" y="251" type="curve"/>
      <point x="122" y="201" type="line"/>
      <point x="133" y="221"/>
      <point x="143" y="236"/>
      <point x="154" y="245" type="curve" smooth="yes"/>
      <point x="165" y="254"/>
      <point x="177" y="258"/>
      <point x="191" y="258" type="curve" smooth="yes"/>
      <point x="201" y="258"/>
      <point x="210" y="256"/>
      <point x="219" y="252" type="curve" smooth="yes"/>
      <point x="228" y="248"/>
      <point x="241" y="242"/>
      <point x="257" y="233" type="curve" smooth="yes"/>
      <point x="275" y="222"/>
      <point x="292" y="214"/>
      <point x="307" y="208" type="curve" smooth="yes"/>
      <point x="322" y="202"/>
      <point x="337" y="200"/>
    </contour>
  </outline>
</glyph>
<glyph name="exclamdown" format="2">
  <advance width="254"/>
  <unicode hex="00A1"/>
  <outline>
    <contour>
      <point x="87" y="398" type="line"/>
      <point x="224" y="398" type="line"/>
      <point x="252" y="532" type="line"/>
      <point x="115" y="532" type="line"/>
    </contour>
    <contour>
      <point x="-33" y="-160" type="line"/>
      <point x="112" y="-160" type="line"/>
      <point x="182" y="297" type="line"/>
      <point x="87" y="297" type="line"/>
    </contour>
  </outline>
</glyph>
<glyph name="cent" format="2">
  <advance width="560"/>
  <unicode hex="00A2"/>
  <outline>
    <contour>
      <point x="365" y="339" type="line"/>
      <point x="367" y="345" type="line" smooth="yes"/>
      <point x="372" y="370"/>
      <point x="368" y="390"/>
      <point x="356" y="404" type="curve" smooth="yes"/>
      <point x="344" y="418"/>
      <point x="325" y="426"/>
      <point x="298" y="426" type="curve" smooth="yes"/>
      <point x="237" y="426"/>
      <point x="198" y="388"/>
      <point x="182" y="314" type="curve" smooth="yes"/>
      <point x="162" y="218" type="line" smooth="yes"/>
      <point x="154" y="178"/>
      <point x="156" y="149"/>
      <point x="168" y="132" type="curve" smooth="yes"/>
      <point x="181" y="115"/>
      <point x="202" y="106"/>
      <point x="231" y="106" type="curve" smooth="yes"/>
      <point x="258" y="106"/>
      <point x="281" y="113"/>
      <point x="298" y="127" type="curve" smooth="yes"/>
      <point x="316" y="141"/>
      <point x="328" y="159"/>
      <point x="333" y="184" type="curve" smooth="yes"/>
      <point x="335" y="190" type="line"/>
      <point x="456" y="190" type="line"/>
      <point x="454" y="183" type="line" smooth="yes"/>
      <point x="444" y="133"/>
      <point x="421" y="92"/>
      <point x="387" y="60" type="curve" smooth="yes"/>
      <point x="354" y="28"/>
      <point x="310" y="7"/>
      <point x="260" y="-2" type="curve"/>
      <point x="239" y="-102" type="line"/>
      <point x="179" y="-102" type="line"/>
      <point x="199" y="-6" type="line"/>
      <point x="134" y="-5"/>
      <point x="87" y="14"/>
      <point x="57" y="50" type="curve" smooth="yes"/>
      <point x="28" y="86"/>
      <point x="21" y="142"/>
      <point x="36" y="217" type="curve" smooth="yes"/>
      <point x="57" y="316" type="line" smooth="yes"/>
      <point x="72" y="390"/>
      <point x="103" y="446"/>
      <point x="147" y="482" type="curve" smooth="yes"/>
      <point x="192" y="518"/>
      <point x="247" y="538"/>
      <point x="312" y="539" type="curve"/>
      <point x="335" y="650" type="line"/>
      <point x="395" y="650" type="line"/>
      <point x="371" y="535" type="line"/>
      <point x="419" y="526"/>
      <point x="454" y="505"/>
      <point x="474" y="473" type="curve" smooth="yes"/>
      <point x="495" y="441"/>
      <point x="499" y="400"/>
      <point x="489" y="349" type="curve" smooth="yes"/>
      <point x="486" y="339" type="line"/>
    </contour>
  </outline>
</glyph>
<glyph name="sterling" format="2">
  <advance width="477"/>
  <unicode hex="00A3"/>
  <outline>
    <contour>
      <point x="-11" y="0" type="line"/>
      <point x="397" y="0" type="line"/>
      <point x="421" y="116" type="line"/>
      <point x="160" y="116" type="line"/>
      <point x="186" y="139"/>
      <point x="204" y="173"/>
      <point x="214" y="219" type="curve" smooth="yes"/>
      <point x="227" y="283" type="line"/>
      <point x="360" y="283" type="line"/>
      <point x="384" y="399" type="line"/>
      <point x="251" y="399" type="line"/>
      <point x="280" y="540" type="line" smooth="yes"/>
      <point x="284" y="560"/>
      <point x="293" y="575"/>
      <point x="304" y="586" type="curve" smooth="yes"/>
      <point x="315" y="597"/>
      <point x="329" y="603"/>
      <point x="346" y="603" type="curve" smooth="yes"/>
      <point x="362" y="603"/>
      <point x="373" y="598"/>
      <point x="380" y="588" type="curve" smooth="yes"/>
      <point x="387" y="578"/>
      <point x="389" y="565"/>
      <point x="386" y="547" type="curve"/>
      <point x="511" y="547" type="line"/>
      <point x="522" y="602"/>
      <point x="515" y="644"/>
      <point x="489" y="673" type="curve" smooth="yes"/>
      <point x="463" y="702"/>
      <point x="423" y="717"/>
      <point x="368" y="717" type="curve" smooth="yes"/>
      <point x="309" y="717"/>
      <point x="260" y="700"/>
      <point x="221" y="667" type="curve" smooth="yes"/>
      <point x="182" y="634"/>
      <point x="156" y="585"/>
      <point x="143" y="524" type="curve" smooth="yes"/>
      <point x="117" y="399" type="line"/>
      <point x="54" y="399" type="line"/>
      <point x="30" y="283" type="line"/>
      <point x="93" y="283" type="line"/>
      <point x="77" y="206" type="line" smooth="yes"/>
      <point x="71" y="179"/>
      <point x="64" y="157"/>
      <point x="54" y="143" type="curve" smooth="yes"/>
      <point x="44" y="129"/>
      <point x="30" y="119"/>
      <point x="12" y="111" type="curve"/>
    </contour>
  </outline>
</glyph>
<glyph name="currency" format="2">
  <advance width="609"/>
  <unicode hex="00A4"/>
  <outline>
    <contour>
      <point x="440" y="76" type="line"/>
      <point x="530" y="151" type="line"/>
      <point x="476" y="218" type="line"/>
      <point x="501" y="249"/>
      <point x="517" y="285"/>
      <point x="525" y="324" type="curve" smooth="yes"/>
      <point x="533" y="361"/>
      <point x="530" y="395"/>
      <point x="519" y="428" type="curve"/>
      <point x="601" y="497" type="line"/>
      <point x="543" y="571" type="line"/>
      <point x="461" y="504" type="line"/>
      <point x="432" y="522"/>
      <point x="397" y="531"/>
      <point x="359" y="531" type="curve" smooth="yes"/>
      <point x="321" y="531"/>
      <point x="285" y="522"/>
      <point x="248" y="504" type="curve"/>
      <point x="194" y="571" type="line"/>
      <point x="103" y="497" type="line"/>
      <point x="158" y="428" type="line"/>
      <point x="133" y="395"/>
      <point x="116" y="361"/>
      <point x="108" y="324" type="curve" smooth="yes"/>
      <point x="100" y="284"/>
      <point x="102" y="249"/>
      <point x="114" y="219" type="curve"/>
      <point x="32" y="152" type="line"/>
      <point x="91" y="77" type="line"/>
      <point x="172" y="143" type="line"/>
      <point x="200" y="124"/>
      <point x="233" y="115"/>
      <point x="273" y="115" type="curve" smooth="yes"/>
      <point x="313" y="115"/>
      <point x="351" y="124"/>
      <point x="387" y="143" type="curve"/>
    </contour>
    <contour>
      <point x="225" y="246" type="curve" smooth="yes"/>
      <point x="210" y="267"/>
      <point x="206" y="293"/>
      <point x="212" y="324" type="curve" smooth="yes"/>
      <point x="219" y="355"/>
      <point x="233" y="380"/>
      <point x="257" y="400" type="curve" smooth="yes"/>
      <point x="281" y="420"/>
      <point x="309" y="431"/>
      <point x="339" y="431" type="curve" smooth="yes"/>
      <point x="370" y="431"/>
      <point x="392" y="420"/>
      <point x="408" y="400" type="curve" smooth="yes"/>
      <point x="424" y="380"/>
      <point x="429" y="355"/>
      <point x="422" y="324" type="curve" smooth="yes"/>
      <point x="416" y="293"/>
      <point x="401" y="267"/>
      <point x="376" y="246" type="curve" smooth="yes"/>
      <point x="352" y="225"/>
      <point x="325" y="215"/>
      <point x="294" y="215" type="curve" smooth="yes"/>
      <point x="264" y="215"/>
      <point x="241" y="225"/>
    </contour>
  </outline>
</glyph>
<glyph name="yen" format="2">
  <advance width="508"/>
  <unicode hex="00A5"/>
  <outline>
    <contour>
      <point x="132" y="0" type="line"/>
      <point x="267" y="0" type="line"/>
      <point x="292" y="120" type="line"/>
      <point x="424" y="120" type="line"/>
      <point x="443" y="210" type="line"/>
      <point x="311" y="210" type="line"/>
      <point x="322" y="266" type="line"/>
      <point x="454" y="266" type="line"/>
      <point x="473" y="356" type="line"/>
      <point x="362" y="356" type="line"/>
      <point x="594" y="707" type="line"/>
      <point x="457" y="707" type="line"/>
      <point x="290" y="423" type="line"/>
      <point x="237" y="707" type="line"/>
      <point x="99" y="707" type="line"/>
      <point x="185" y="356" type="line"/>
      <point x="74" y="356" type="line"/>
      <point x="55" y="266" type="line"/>
      <point x="187" y="266" type="line"/>
      <point x="176" y="210" type="line"/>
      <point x="44" y="210" type="line"/>
      <point x="25" y="120" type="line"/>
      <point x="157" y="120" type="line"/>
    </contour>
  </outline>
</glyph>
<glyph name="section" format="2">
  <advance width="523"/>
  <unicode hex="00A7"/>
  <outline>
    <contour>
      <point x="41" y="-126" type="curve" smooth="yes"/>
      <point x="16" y="-95"/>
      <point x="9" y="-52"/>
      <point x="21" y="4" type="curve"/>
      <point x="136" y="4" type="line"/>
      <point x="126" y="-44"/>
      <point x="143" y="-68"/>
      <point x="187" y="-68" type="curve" smooth="yes"/>
      <point x="208" y="-68"/>
      <point x="225" y="-62"/>
      <point x="238" y="-51" type="curve" smooth="yes"/>
      <point x="252" y="-40"/>
      <point x="261" y="-25"/>
      <point x="265" y="-7" type="curve" smooth="yes"/>
      <point x="270" y="18"/>
      <point x="264" y="36"/>
      <point x="252" y="50" type="curve" smooth="yes"/>
      <point x="240" y="64"/>
      <point x="214" y="76"/>
      <point x="174" y="88" type="curve" smooth="yes"/>
      <point x="126" y="102"/>
      <point x="93" y="125"/>
      <point x="75" y="157" type="curve" smooth="yes"/>
      <point x="56" y="189"/>
      <point x="53" y="231"/>
      <point x="64" y="282" type="curve" smooth="yes"/>
      <point x="71" y="317"/>
      <point x="86" y="349"/>
      <point x="107" y="376" type="curve" smooth="yes"/>
      <point x="129" y="403"/>
      <point x="155" y="424"/>
      <point x="186" y="439" type="curve"/>
      <point x="165" y="453"/>
      <point x="151" y="471"/>
      <point x="146" y="493" type="curve" smooth="yes"/>
      <point x="140" y="515"/>
      <point x="140" y="540"/>
      <point x="146" y="569" type="curve" smooth="yes"/>
      <point x="153" y="600"/>
      <point x="166" y="628"/>
      <point x="186" y="653" type="curve" smooth="yes"/>
      <point x="206" y="678"/>
      <point x="232" y="698"/>
      <point x="262" y="712" type="curve" smooth="yes"/>
      <point x="292" y="726"/>
      <point x="325" y="733"/>
      <point x="361" y="733" type="curve" smooth="yes"/>
      <point x="420" y="733"/>
      <point x="463" y="717"/>
      <point x="487" y="686" type="curve" smooth="yes"/>
      <point x="510" y="655"/>
      <point x="516" y="612"/>
      <point x="505" y="558" type="curve"/>
      <point x="391" y="558" type="line"/>
      <point x="401" y="605"/>
      <point x="384" y="629"/>
      <point x="342" y="629" type="curve" smooth="yes"/>
      <point x="323" y="629"/>
      <point x="307" y="623"/>
      <point x="293" y="612" type="curve" smooth="yes"/>
      <point x="280" y="601"/>
      <point x="272" y="586"/>
      <point x="268" y="568" type="curve" smooth="yes"/>
      <point x="263" y="544"/>
      <point x="268" y="527"/>
      <point x="280" y="514" type="curve" smooth="yes"/>
      <point x="292" y="501"/>
      <point x="318" y="489"/>
      <point x="356" y="477" type="curve" smooth="yes"/>
      <point x="404" y="463"/>
      <point x="437" y="440"/>
      <point x="456" y="408" type="curve" smooth="yes"/>
      <point x="474" y="376"/>
      <point x="478" y="335"/>
      <point x="467" y="284" type="curve" smooth="yes"/>
      <point x="460" y="249"/>
      <point x="444" y="216"/>
      <point x="422" y="188" type="curve" smooth="yes"/>
      <point x="400" y="160"/>
      <point x="374" y="140"/>
      <point x="344" y="127" type="curve"/>
      <point x="367" y="112"/>
      <point x="382" y="94"/>
      <point x="387" y="72" type="curve" smooth="yes"/>
      <point x="392" y="50"/>
      <point x="392" y="23"/>
      <point x="385" y="-10" type="curve" smooth="yes"/>
      <point x="375" y="-57"/>
      <point x="350" y="-96"/>
      <point x="311" y="-126" type="curve" smooth="yes"/>
      <point x="272" y="-156"/>
      <point x="223" y="-172"/>
      <point x="167" y="-172" type="curve" smooth="yes"/>
      <point x="108" y="-172"/>
      <point x="65" y="-157"/>
    </contour>
    <contour>
      <point x="309" y="217" type="curve" smooth="yes"/>
      <point x="326" y="233"/>
      <point x="338" y="255"/>
      <point x="344" y="283" type="curve" smooth="yes"/>
      <point x="350" y="311"/>
      <point x="347" y="333"/>
      <point x="337" y="349" type="curve" smooth="yes"/>
      <point x="326" y="365"/>
      <point x="310" y="373"/>
      <point x="285" y="373" type="curve" smooth="yes"/>
      <point x="260" y="373"/>
      <point x="238" y="365"/>
      <point x="221" y="349" type="curve" smooth="yes"/>
      <point x="203" y="333"/>
      <point x="192" y="312"/>
      <point x="186" y="283" type="curve" smooth="yes"/>
      <point x="180" y="254"/>
      <point x="182" y="232"/>
      <point x="193" y="216" type="curve" smooth="yes"/>
      <point x="204" y="200"/>
      <point x="222" y="193"/>
      <point x="247" y="193" type="curve" smooth="yes"/>
      <point x="272" y="193"/>
      <point x="292" y="201"/>
    </contour>
  </outline>
</glyph>
<glyph name="dieresis" format="2">
  <advance width="512"/>
  <unicode hex="00A8"/>
  <outline>
    <contour>
      <point x="197" y="720" type="line"/>
      <point x="307" y="720" type="line"/>
      <point x="282" y="601" type="line"/>
      <point x="172" y="601" type="line"/>
    </contour>
    <contour>
      <point x="394" y="720" type="line"/>
      <point x="504" y="720" type="line"/>
      <point x="479" y="601" type="line"/>
      <point x="369" y="601" type="line"/>
    </contour>
  </outline>
</glyph>
<glyph name="copyright" format="2">
  <advance width="857"/>
  <unicode hex="00A9"/>
  <outline>
    <contour>
      <point x="234" y="36" type="curve" smooth="yes"/>
      <point x="181" y="66"/>
      <point x="140" y="108"/>
      <point x="111" y="162" type="curve" smooth="yes"/>
      <point x="82" y="216"/>
      <point x="68" y="279"/>
      <point x="68" y="350" type="curve" smooth="yes"/>
      <point x="68" y="422"/>
      <point x="82" y="485"/>
      <point x="111" y="539" type="curve" smooth="yes"/>
      <point x="140" y="593"/>
      <point x="181" y="635"/>
      <point x="234" y="665" type="curve" smooth="yes"/>
      <point x="287" y="695"/>
      <point x="348" y="710"/>
      <point x="418" y="710" type="curve" smooth="yes"/>
      <point x="488" y="710"/>
      <point x="550" y="695"/>
      <point x="603" y="665" type="curve" smooth="yes"/>
      <point x="656" y="635"/>
      <point x="697" y="592"/>
      <point x="726" y="538" type="curve" smooth="yes"/>
      <point x="755" y="484"/>
      <point x="769" y="421"/>
      <point x="769" y="350" type="curve" smooth="yes"/>
      <point x="769" y="279"/>
      <point x="755" y="216"/>
      <point x="726" y="162" type="curve" smooth="yes"/>
      <point x="697" y="108"/>
      <point x="656" y="66"/>
      <point x="603" y="36" type="curve" smooth="yes"/>
      <point x="550" y="6"/>
      <point x="488" y="-9"/>
      <point x="418" y="-9" type="curve" smooth="yes"/>
      <point x="348" y="-9"/>
      <point x="287" y="6"/>
    </contour>
    <contour>
      <point x="615" y="145" type="curve" smooth="yes"/>
      <point x="662" y="195"/>
      <point x="686" y="263"/>
      <point x="686" y="350" type="curve" smooth="yes"/>
      <point x="686" y="437"/>
      <point x="662" y="505"/>
      <point x="615" y="556" type="curve" smooth="yes"/>
      <point x="568" y="607"/>
      <point x="501" y="632"/>
      <point x="418" y="632" type="curve" smooth="yes"/>
      <point x="335" y="632"/>
      <point x="269" y="607"/>
      <point x="222" y="556" type="curve" smooth="yes"/>
      <point x="175" y="505"/>
      <point x="151" y="437"/>
      <point x="151" y="350" type="curve" smooth="yes"/>
      <point x="151" y="263"/>
      <point x="175" y="195"/>
      <point x="222" y="145" type="curve" smooth="yes"/>
      <point x="269" y="95"/>
      <point x="335" y="70"/>
      <point x="418" y="70" type="curve" smooth="yes"/>
      <point x="501" y="70"/>
      <point x="568" y="95"/>
    </contour>
    <contour>
      <point x="306" y="191" type="curve" smooth="yes"/>
      <point x="278" y="217"/>
      <point x="264" y="258"/>
      <point x="264" y="314" type="curve" smooth="yes"/>
      <point x="264" y="386" type="line" smooth="yes"/>
      <point x="264" y="441"/>
      <point x="278" y="482"/>
      <point x="306" y="509" type="curve" smooth="yes"/>
      <point x="334" y="536"/>
      <point x="372" y="549"/>
      <point x="420" y="549" type="curve" smooth="yes"/>
      <point x="468" y="549"/>
      <point x="506" y="537"/>
      <point x="533" y="512" type="curve" smooth="yes"/>
      <point x="560" y="487"/>
      <point x="573" y="454"/>
      <point x="573" y="411" type="curve" smooth="yes"/>
      <point x="573" y="403" type="line"/>
      <point x="485" y="403" type="line"/>
      <point x="485" y="408" type="line" smooth="yes"/>
      <point x="485" y="426"/>
      <point x="479" y="440"/>
      <point x="468" y="451" type="curve" smooth="yes"/>
      <point x="457" y="462"/>
      <point x="442" y="467"/>
      <point x="423" y="467" type="curve" smooth="yes"/>
      <point x="378" y="467"/>
      <point x="355" y="440"/>
      <point x="355" y="385" type="curve" smooth="yes"/>
      <point x="355" y="315" type="line" smooth="yes"/>
      <point x="355" y="285"/>
      <point x="360" y="264"/>
      <point x="372" y="252" type="curve" smooth="yes"/>
      <point x="384" y="240"/>
      <point x="401" y="233"/>
      <point x="423" y="233" type="curve" smooth="yes"/>
      <point x="443" y="233"/>
      <point x="458" y="238"/>
      <point x="469" y="248" type="curve" smooth="yes"/>
      <point x="480" y="258"/>
      <point x="485" y="273"/>
      <point x="485" y="291" type="curve" smooth="yes"/>
      <point x="485" y="295" type="line"/>
      <point x="573" y="295" type="line"/>
      <point x="573" y="290" type="line" smooth="yes"/>
      <point x="573" y="248"/>
      <point x="559" y="214"/>
      <point x="532" y="189" type="curve" smooth="yes"/>
      <point x="505" y="164"/>
      <point x="467" y="152"/>
      <point x="420" y="152" type="curve" smooth="yes"/>
      <point x="372" y="152"/>
      <point x="334" y="165"/>
    </contour>
  </outline>
</glyph>
<glyph name="ordfeminine" format="2">
  <advance width="361"/>
  <unicode hex="00AA"/>
  <outline>
    <contour>
      <point x="180" y="436" type="curve" smooth="yes"/>
      <point x="196" y="436"/>
      <point x="210" y="439"/>
      <point x="222" y="443" type="curve" smooth="yes"/>
      <point x="234" y="447"/>
      <point x="247" y="455"/>
      <point x="261" y="466" type="curve"/>
      <point x="255" y="440" type="line"/>
      <point x="343" y="440" type="line"/>
      <point x="387" y="649" type="line" smooth="yes"/>
      <point x="395" y="688"/>
      <point x="389" y="718"/>
      <point x="370" y="737" type="curve" smooth="yes"/>
      <point x="351" y="756"/>
      <point x="320" y="766"/>
      <point x="276" y="766" type="curve" smooth="yes"/>
      <point x="237" y="766"/>
      <point x="205" y="757"/>
      <point x="179" y="739" type="curve" smooth="yes"/>
      <point x="152" y="721"/>
      <point x="136" y="697"/>
      <point x="129" y="665" type="curve" smooth="yes"/>
      <point x="129" y="663" type="line"/>
      <point x="214" y="663" type="line"/>
      <point x="214" y="665" type="line" smooth="yes"/>
      <point x="216" y="675"/>
      <point x="222" y="682"/>
      <point x="230" y="688" type="curve" smooth="yes"/>
      <point x="238" y="694"/>
      <point x="249" y="696"/>
      <point x="261" y="696" type="curve" smooth="yes"/>
      <point x="291" y="696"/>
      <point x="303" y="682"/>
      <point x="297" y="654" type="curve" smooth="yes"/>
      <point x="293" y="634" type="line"/>
      <point x="230" y="634" type="line" smooth="yes"/>
      <point x="194" y="634"/>
      <point x="163" y="625"/>
      <point x="139" y="608" type="curve" smooth="yes"/>
      <point x="116" y="591"/>
      <point x="100" y="569"/>
      <point x="94" y="540" type="curve" smooth="yes"/>
      <point x="88" y="509"/>
      <point x="92" y="483"/>
      <point x="107" y="464" type="curve" smooth="yes"/>
      <point x="123" y="445"/>
      <point x="147" y="436"/>
    </contour>
    <contour>
      <point x="188" y="520" type="curve" smooth="yes"/>
      <point x="182" y="526"/>
      <point x="181" y="533"/>
      <point x="183" y="543" type="curve" smooth="yes"/>
      <point x="187" y="563"/>
      <point x="203" y="572"/>
      <point x="231" y="572" type="curve" smooth="yes"/>
      <point x="280" y="572" type="line"/>
      <point x="277" y="557" type="line" smooth="yes"/>
      <point x="273" y="541"/>
      <point x="267" y="530"/>
      <point x="258" y="522" type="curve" smooth="yes"/>
      <point x="248" y="514"/>
      <point x="235" y="511"/>
      <point x="217" y="511" type="curve" smooth="yes"/>
      <point x="203" y="511"/>
      <point x="194" y="514"/>
    </contour>
  </outline>
</glyph>
<glyph name="guillemotleft" format="2">
  <advance width="537"/>
  <unicode hex="00AB"/>
  <outline>
    <contour>
      <point x="203" y="38" type="line"/>
      <point x="231" y="172" type="line"/>
      <point x="154" y="270" type="line"/>
      <point x="272" y="369" type="line"/>
      <point x="300" y="503" type="line"/>
      <point x="19" y="270" type="line"/>
    </contour>
    <contour>
      <point x="435" y="38" type="line"/>
      <point x="463" y="172" type="line"/>
      <point x="385" y="270" type="line"/>
      <point x="504" y="369" type="line"/>
      <point x="532" y="503" type="line"/>
      <point x="251" y="270" type="line"/>
    </contour>
  </outline>
</glyph>
<glyph name="macron" format="2">
  <advance width="512"/>
  <unicode hex="00AF"/>
  <outline>
    <contour>
      <point x="206" y="717" type="line"/>
      <point x="494" y="717" type="line"/>
      <point x="471" y="604" type="line"/>
      <point x="183" y="604" type="line"/>
    </contour>
  </outline>
</glyph>
<glyph name="degree" format="2">
  <advance width="403"/>
  <unicode hex="00B0"/>
  <outline>
    <contour>
      <point x="94" y="460" type="curve" smooth="yes"/>
      <point x="65" y="489"/>
      <point x="51" y="524"/>
      <point x="51" y="567" type="curve" smooth="yes"/>
      <point x="51" y="595"/>
      <point x="58" y="621"/>
      <point x="71" y="644" type="curve" smooth="yes"/>
      <point x="84" y="667"/>
      <point x="102" y="685"/>
      <point x="125" y="698" type="curve" smooth="yes"/>
      <point x="148" y="711"/>
      <point x="174" y="718"/>
      <point x="202" y="718" type="curve" smooth="yes"/>
      <point x="230" y="718"/>
      <point x="255" y="711"/>
      <point x="278" y="698" type="curve" smooth="yes"/>
      <point x="301" y="685"/>
      <point x="319" y="667"/>
      <point x="332" y="644" type="curve" smooth="yes"/>
      <point x="345" y="621"/>
      <point x="352" y="595"/>
      <point x="352" y="567" type="curve" smooth="yes"/>
      <point x="352" y="539"/>
      <point x="345" y="513"/>
      <point x="332" y="490" type="curve" smooth="yes"/>
      <point x="319" y="467"/>
      <point x="301" y="449"/>
      <point x="278" y="436" type="curve" smooth="yes"/>
      <point x="255" y="423"/>
      <point x="230" y="417"/>
      <point x="202" y="417" type="curve" smooth="yes"/>
      <point x="159" y="417"/>
      <point x="123" y="431"/>
    </contour>
    <contour>
      <point x="252" y="515" type="curve" smooth="yes"/>
      <point x="265" y="529"/>
      <point x="272" y="546"/>
      <point x="272" y="567" type="curve" smooth="yes"/>
      <point x="272" y="588"/>
      <point x="265" y="606"/>
      <point x="252" y="620" type="curve" smooth="yes"/>
      <point x="239" y="634"/>
      <point x="222" y="641"/>
      <point x="202" y="641" type="curve" smooth="yes"/>
      <point x="181" y="641"/>
      <point x="164" y="635"/>
      <point x="151" y="621" type="curve" smooth="yes"/>
      <point x="138" y="607"/>
      <point x="131" y="589"/>
      <point x="131" y="567" type="curve" smooth="yes"/>
      <point x="131" y="545"/>
      <point x="138" y="528"/>
      <point x="151" y="514" type="curve" smooth="yes"/>
      <point x="164" y="500"/>
      <point x="181" y="494"/>
      <point x="202" y="494" type="curve" smooth="yes"/>
      <point x="222" y="494"/>
      <point x="239" y="501"/>
    </contour>
  </outline>
</glyph>
<glyph name="mu" format="2">
  <advance width="532"/>
  <unicode hex="00B5"/>
  <outline>
    <contour>
      <point x="111" y="532" type="line"/>
      <point x="238" y="532" type="line"/>
      <point x="169" y="201" type="line" smooth="yes"/>
      <point x="163" y="171"/>
      <point x="166" y="147"/>
      <point x="177" y="131" type="curve" smooth="yes"/>
      <point x="189" y="115"/>
      <point x="207" y="106"/>
      <point x="232" y="106" type="curve" smooth="yes"/>
      <point x="257" y="106"/>
      <point x="279" y="115"/>
      <point x="298" y="131" type="curve" smooth="yes"/>
      <point x="318" y="147"/>
      <point x="331" y="171"/>
      <point x="337" y="201" type="curve" smooth="yes"/>
      <point x="406" y="532" type="line"/>
      <point x="533" y="532" type="line"/>
      <point x="422" y="0" type="line"/>
      <point x="298" y="0" type="line"/>
      <point x="308" y="48" type="line"/>
      <point x="274" y="12"/>
      <point x="235" y="-6"/>
      <point x="191" y="-6" type="curve" smooth="yes"/>
      <point x="167" y="-6"/>
      <point x="146" y="-1"/>
      <point x="128" y="10" type="curve"/>
      <point x="93" y="-160" type="line"/>
      <point x="-33" y="-160" type="line"/>
    </contour>
  </outline>
</glyph>
<glyph name="paragraph" format="2">
  <advance width="659"/>
  <unicode hex="00B6"/>
  <outline>
    <contour>
      <point x="174" y="-160" type="line"/>
      <point x="287" y="-160" type="line"/>
      <point x="446" y="604" type="line"/>
      <point x="530" y="604" type="line"/>
      <point x="371" y="-160" type="line"/>
      <point x="480" y="-160" type="line"/>
      <point x="660" y="707" type="line"/>
      <point x="385" y="707" type="line" smooth="yes"/>
      <point x="337" y="707"/>
      <point x="294" y="696"/>
      <point x="255" y="677" type="curve" smooth="yes"/>
      <point x="216" y="658"/>
      <point x="184" y="631"/>
      <point x="158" y="597" type="curve" smooth="yes"/>
      <point x="132" y="563"/>
      <point x="114" y="525"/>
      <point x="105" y="483" type="curve" smooth="yes"/>
      <point x="97" y="442"/>
      <point x="98" y="405"/>
      <point x="108" y="372" type="curve" smooth="yes"/>
      <point x="118" y="339"/>
      <point x="137" y="313"/>
      <point x="163" y="293" type="curve" smooth="yes"/>
      <point x="189" y="273"/>
      <point x="221" y="262"/>
      <point x="261" y="259" type="curve"/>
    </contour>
  </outline>
</glyph>
<glyph name="periodcentered" format="2">
  <advance width="220"/>
  <unicode hex="00B7"/>
  <outline>
    <contour>
      <point x="58" y="358" type="line"/>
      <point x="200" y="358" type="line"/>
      <point x="170" y="213" type="line"/>
      <point x="28" y="213" type="line"/>
    </contour>
  </outline>
</glyph>
<glyph name="cedilla" format="2">
  <advance width="512"/>
  <unicode hex="00B8"/>
  <outline>
    <contour>
      <point x="72" y="-160" type="line"/>
      <point x="188" y="-160" type="line"/>
      <point x="279" y="13" type="line"/>
      <point x="178" y="13" type="line"/>
    </contour>
  </outline>
</glyph>
<glyph name="ordmasculine" format="2">
  <advance width="363"/>
  <unicode hex="00BA"/>
  <outline>
    <contour>
      <point x="124" y="470" type="curve" smooth="yes"/>
      <point x="104" y="493"/>
      <point x="98" y="526"/>
      <point x="108" y="572" type="curve" smooth="yes"/>
      <point x="120" y="631" type="line" smooth="yes"/>
      <point x="130" y="677"/>
      <point x="149" y="711"/>
      <point x="178" y="733" type="curve" smooth="yes"/>
      <point x="208" y="755"/>
      <point x="243" y="766"/>
      <point x="286" y="766" type="curve" smooth="yes"/>
      <point x="329" y="766"/>
      <point x="361" y="755"/>
      <point x="380" y="733" type="curve" smooth="yes"/>
      <point x="400" y="711"/>
      <point x="405" y="677"/>
      <point x="395" y="631" type="curve" smooth="yes"/>
      <point x="383" y="572" type="line" smooth="yes"/>
      <point x="373" y="526"/>
      <point x="355" y="493"/>
      <point x="326" y="470" type="curve" smooth="yes"/>
      <point x="297" y="447"/>
      <point x="261" y="436"/>
      <point x="218" y="436" type="curve" smooth="yes"/>
      <point x="175" y="436"/>
      <point x="144" y="447"/>
    </contour>
    <contour>
      <point x="291" y="572" type="curve" smooth="yes"/>
      <point x="303" y="630" type="line" smooth="yes"/>
      <point x="310" y="666"/>
      <point x="299" y="684"/>
      <point x="268" y="684" type="curve" smooth="yes"/>
      <point x="237" y="684"/>
      <point x="218" y="666"/>
      <point x="211" y="630" type="curve" smooth="yes"/>
      <point x="199" y="572" type="line" smooth="yes"/>
      <point x="191" y="536"/>
      <point x="203" y="518"/>
      <point x="234" y="518" type="curve" smooth="yes"/>
      <point x="265" y="518"/>
      <point x="283" y="536"/>
    </contour>
  </outline>
</glyph>
<glyph name="guillemotright" format="2">
  <advance width="537"/>
  <unicode hex="00BB"/>
  <outline>
    <contour>
      <point x="36" y="172" type="line"/>
      <point x="155" y="270" type="line"/>
      <point x="77" y="369" type="line"/>
      <point x="105" y="503" type="line"/>
      <point x="289" y="270" type="line"/>
      <point x="8" y="38" type="line"/>
    </contour>
    <contour>
      <point x="269" y="172" type="line"/>
      <point x="386" y="270" type="line"/>
      <point x="310" y="369" type="line"/>
      <point x="338" y="503" type="line"/>
      <point x="520" y="270" type="line"/>
      <point x="241" y="38" type="line"/>
    </contour>
  </outline>
</glyph>
<glyph name="onequarter" format="2">
  <advance width="823"/>
  <unicode hex="00BC"/>
  <outline>
    <contour>
      <point x="102" y="278" type="line"/>
      <point x="208" y="278" type="line"/>
      <point x="297" y="707" type="line"/>
      <point x="192" y="707" type="line"/>
      <point x="111" y="655" type="line"/>
      <point x="88" y="543" type="line"/>
      <point x="167" y="592" type="line"/>
    </contour>
    <contour>
      <point x="610" y="0" type="line"/>
      <point x="715" y="0" type="line"/>
      <point x="727" y="58" type="line"/>
      <point x="755" y="58" type="line"/>
      <point x="774" y="150" type="line"/>
      <point x="746" y="150" type="line"/>
      <point x="765" y="240" type="line"/>
      <point x="660" y="240" type="line"/>
      <point x="641" y="150" type="line"/>
      <point x="580" y="150" type="line"/>
      <point x="756" y="429" type="line"/>
      <point x="650" y="429" type="line"/>
      <point x="475" y="150" type="line"/>
      <point x="456" y="58" type="line"/>
      <point x="622" y="58" type="line"/>
    </contour>
    <contour>
      <point x="61" y="0" type="line"/>
      <point x="161" y="0" type="line"/>
      <point x="704" y="712" type="line"/>
      <point x="603" y="712" type="line"/>
    </contour>
  </outline>
</glyph>
<glyph name="onehalf" format="2">
  <advance width="822"/>
  <unicode hex="00BD"/>
  <outline>
    <contour>
      <point x="167" y="592" type="line"/>
      <point x="88" y="543" type="line"/>
      <point x="111" y="655" type="line"/>
      <point x="192" y="707" type="line"/>
      <point x="297" y="707" type="line"/>
      <point x="208" y="278" type="line"/>
      <point x="102" y="278" type="line"/>
    </contour>
    <contour>
      <point x="475" y="82" type="line"/>
      <point x="651" y="257" type="line" smooth="yes"/>
      <point x="669" y="274"/>
      <point x="679" y="290"/>
      <point x="682" y="305" type="curve" smooth="yes"/>
      <point x="684" y="312" type="line" smooth="yes"/>
      <point x="686" y="323"/>
      <point x="685" y="332"/>
      <point x="681" y="338" type="curve" smooth="yes"/>
      <point x="678" y="344"/>
      <point x="669" y="348"/>
      <point x="659" y="348" type="curve" smooth="yes"/>
      <point x="649" y="348"/>
      <point x="642" y="345"/>
      <point x="635" y="338" type="curve" smooth="yes"/>
      <point x="629" y="331"/>
      <point x="623" y="322"/>
      <point x="620" y="310" type="curve" smooth="yes"/>
      <point x="619" y="301" type="line"/>
      <point x="518" y="301" type="line"/>
      <point x="521" y="316" type="line" smooth="yes"/>
      <point x="528" y="351"/>
      <point x="546" y="381"/>
      <point x="576" y="403" type="curve" smooth="yes"/>
      <point x="605" y="425"/>
      <point x="641" y="436"/>
      <point x="683" y="436" type="curve" smooth="yes"/>
      <point x="723" y="436"/>
      <point x="752" y="424"/>
      <point x="772" y="401" type="curve" smooth="yes"/>
      <point x="793" y="378"/>
      <point x="799" y="350"/>
      <point x="792" y="317" type="curve" smooth="yes"/>
      <point x="790" y="306" type="line" smooth="yes"/>
      <point x="786" y="287"/>
      <point x="779" y="269"/>
      <point x="769" y="254" type="curve" smooth="yes"/>
      <point x="759" y="239"/>
      <point x="745" y="223"/>
      <point x="728" y="207" type="curve" smooth="yes"/>
      <point x="610" y="91" type="line"/>
      <point x="745" y="91" type="line"/>
      <point x="726" y="0" type="line"/>
      <point x="458" y="0" type="line"/>
    </contour>
    <contour>
      <point x="603" y="712" type="line"/>
      <point x="704" y="712" type="line"/>
      <point x="161" y="0" type="line"/>
      <point x="61" y="0" type="line"/>
    </contour>
  </outline>
</glyph>
<glyph name="threequarters" format="2">
  <advance width="913"/>
  <unicode hex="00BE"/>
  <outline>
    <contour>
      <point x="175" y="270" type="curve" smooth="yes"/>
      <point x="214" y="270"/>
      <point x="249" y="282"/>
      <point x="278" y="305" type="curve" smooth="yes"/>
      <point x="308" y="328"/>
      <point x="328" y="359"/>
      <point x="336" y="398" type="curve" smooth="yes"/>
      <point x="338" y="410" type="line" smooth="yes"/>
      <point x="343" y="433"/>
      <point x="342" y="453"/>
      <point x="337" y="470" type="curve" smooth="yes"/>
      <point x="331" y="487"/>
      <point x="321" y="499"/>
      <point x="304" y="506" type="curve"/>
      <point x="339" y="524"/>
      <point x="361" y="551"/>
      <point x="368" y="588" type="curve" smooth="yes"/>
      <point x="370" y="597" type="line" smooth="yes"/>
      <point x="377" y="632"/>
      <point x="372" y="661"/>
      <point x="354" y="682" type="curve" smooth="yes"/>
      <point x="335" y="703"/>
      <point x="305" y="714"/>
      <point x="265" y="714" type="curve" smooth="yes"/>
      <point x="223" y="714"/>
      <point x="189" y="703"/>
      <point x="162" y="682" type="curve" smooth="yes"/>
      <point x="134" y="661"/>
      <point x="116" y="631"/>
      <point x="108" y="593" type="curve" smooth="yes"/>
      <point x="106" y="583" type="line"/>
      <point x="200" y="583" type="line"/>
      <point x="203" y="594" type="line" smooth="yes"/>
      <point x="207" y="615"/>
      <point x="220" y="626"/>
      <point x="243" y="626" type="curve" smooth="yes"/>
      <point x="264" y="626"/>
      <point x="272" y="613"/>
      <point x="267" y="588" type="curve" smooth="yes"/>
      <point x="266" y="580" type="line" smooth="yes"/>
      <point x="263" y="568"/>
      <point x="257" y="558"/>
      <point x="250" y="551" type="curve" smooth="yes"/>
      <point x="242" y="544"/>
      <point x="231" y="541"/>
      <point x="219" y="541" type="curve" smooth="yes"/>
      <point x="198" y="541" type="line"/>
      <point x="180" y="454" type="line"/>
      <point x="202" y="454" type="line" smooth="yes"/>
      <point x="231" y="454"/>
      <point x="243" y="439"/>
      <point x="237" y="408" type="curve" smooth="yes"/>
      <point x="235" y="398" type="line" smooth="yes"/>
      <point x="232" y="385"/>
      <point x="226" y="375"/>
      <point x="219" y="368" type="curve" smooth="yes"/>
      <point x="211" y="361"/>
      <point x="201" y="357"/>
      <point x="190" y="357" type="curve" smooth="yes"/>
      <point x="165" y="357"/>
      <point x="155" y="368"/>
      <point x="159" y="391" type="curve" smooth="yes"/>
      <point x="161" y="401" type="line"/>
      <point x="66" y="401" type="line"/>
      <point x="63" y="386" type="line" smooth="yes"/>
      <point x="55" y="348"/>
      <point x="61" y="320"/>
      <point x="80" y="300" type="curve" smooth="yes"/>
      <point x="100" y="280"/>
      <point x="131" y="270"/>
    </contour>
    <contour>
      <point x="700" y="0" type="line"/>
      <point x="805" y="0" type="line"/>
      <point x="817" y="58" type="line"/>
      <point x="845" y="58" type="line"/>
      <point x="864" y="150" type="line"/>
      <point x="836" y="150" type="line"/>
      <point x="855" y="240" type="line"/>
      <point x="750" y="240" type="line"/>
      <point x="731" y="150" type="line"/>
      <point x="670" y="150" type="line"/>
      <point x="846" y="429" type="line"/>
      <point x="741" y="429" type="line"/>
      <point x="565" y="150" type="line"/>
      <point x="546" y="58" type="line"/>
      <point x="712" y="58" type="line"/>
    </contour>
    <contour>
      <point x="151" y="0" type="line"/>
      <point x="251" y="0" type="line"/>
      <point x="794" y="712" type="line"/>
      <point x="693" y="712" type="line"/>
    </contour>
  </outline>
</glyph>
<glyph name="questiondown" format="2">
  <advance width="461"/>
  <unicode hex="00BF"/>
  <outline>
    <contour>
      <point x="199" y="399" type="line"/>
      <point x="332" y="399" type="line"/>
      <point x="360" y="532" type="line"/>
      <point x="227" y="532" type="line"/>
    </contour>
    <contour>
      <point x="144" y="-170" type="curve" smooth="yes"/>
      <point x="207" y="-170"/>
      <point x="260" y="-153"/>
      <point x="301" y="-120" type="curve" smooth="yes"/>
      <point x="342" y="-87"/>
      <point x="370" y="-37"/>
      <point x="385" y="27" type="curve"/>
      <point x="261" y="27" type="line"/>
      <point x="254" y="0"/>
      <point x="244" y="-21"/>
      <point x="230" y="-35" type="curve" smooth="yes"/>
      <point x="216" y="-49"/>
      <point x="198" y="-55"/>
      <point x="173" y="-55" type="curve" smooth="yes"/>
      <point x="149" y="-55"/>
      <point x="131" y="-49"/>
      <point x="122" y="-36" type="curve" smooth="yes"/>
      <point x="112" y="-23"/>
      <point x="110" y="-6"/>
      <point x="114" y="16" type="curve" smooth="yes"/>
      <point x="117" y="31"/>
      <point x="123" y="45"/>
      <point x="131" y="58" type="curve" smooth="yes"/>
      <point x="139" y="71"/>
      <point x="152" y="86"/>
      <point x="169" y="102" type="curve" smooth="yes"/>
      <point x="229" y="159" type="line" smooth="yes"/>
      <point x="256" y="184"/>
      <point x="274" y="205"/>
      <point x="283" y="222" type="curve" smooth="yes"/>
      <point x="293" y="239"/>
      <point x="301" y="263"/>
      <point x="307" y="292" type="curve" smooth="yes"/>
      <point x="315" y="331" type="line"/>
      <point x="188" y="331" type="line"/>
      <point x="182" y="301" type="line" smooth="yes"/>
      <point x="177" y="281"/>
      <point x="171" y="264"/>
      <point x="164" y="252" type="curve" smooth="yes"/>
      <point x="158" y="240"/>
      <point x="145" y="224"/>
      <point x="125" y="206" type="curve" smooth="yes"/>
      <point x="69" y="154" type="line" smooth="yes"/>
      <point x="43" y="129"/>
      <point x="24" y="106"/>
      <point x="10" y="84" type="curve" smooth="yes"/>
      <point x="-3" y="62"/>
      <point x="-12" y="37"/>
      <point x="-18" y="9" type="curve" smooth="yes"/>
      <point x="-25" y="-25"/>
      <point x="-24" y="-56"/>
      <point x="-13" y="-83" type="curve" smooth="yes"/>
      <point x="-3" y="-110"/>
      <point x="18" y="-132"/>
      <point x="44" y="-147" type="curve" smooth="yes"/>
      <point x="71" y="-162"/>
      <point x="104" y="-170"/>
    </contour>
  </outline>
</glyph>
<glyph name="AE" format="2">
  <advance width="904"/>
  <unicode hex="00C6"/>
  <outline>
    <contour>
      <point x="-51" y="0" type="line"/>
      <point x="90" y="0" type="line"/>
      <point x="189" y="144" type="line"/>
      <point x="404" y="144" type="line"/>
      <point x="374" y="0" type="line"/>
      <point x="813" y="0" type="line"/>
      <point x="837" y="117" type="line"/>
      <point x="533" y="117" type="line"/>
      <point x="571" y="298" type="line"/>
      <point x="829" y="298" type="line"/>
      <point x="853" y="415" type="line"/>
      <point x="595" y="415" type="line"/>
      <point x="632" y="590" type="line"/>
      <point x="936" y="590" type="line"/>
      <point x="960" y="707" type="line"/>
      <point x="444" y="707" type="line"/>
    </contour>
    <contour>
      <point x="266" y="256" type="line"/>
      <point x="497" y="593" type="line"/>
      <point x="427" y="256" type="line"/>
    </contour>
  </outline>
</glyph>
<glyph name="Ccedilla" format="2">
  <advance width="614"/>
  <unicode hex="00C7"/>
  <outline>
    <contour>
      <point x="473" y="475" type="line"/>
      <point x="474" y="481" type="line" smooth="yes"/>
      <point x="481" y="517"/>
      <point x="478" y="546"/>
      <point x="461" y="567" type="curve" smooth="yes"/>
      <point x="444" y="588"/>
      <point x="417" y="599"/>
      <point x="379" y="599" type="curve" smooth="yes"/>
      <point x="336" y="599"/>
      <point x="302" y="586"/>
      <point x="277" y="559" type="curve" smooth="yes"/>
      <point x="253" y="532"/>
      <point x="233" y="489"/>
      <point x="220" y="428" type="curve" smooth="yes"/>
      <point x="188" y="275" type="line" smooth="yes"/>
      <point x="176" y="218"/>
      <point x="179" y="177"/>
      <point x="193" y="151" type="curve" smooth="yes"/>
      <point x="208" y="125"/>
      <point x="236" y="112"/>
      <point x="279" y="112" type="curve" smooth="yes"/>
      <point x="317" y="112"/>
      <point x="349" y="122"/>
      <point x="374" y="142" type="curve" smooth="yes"/>
      <point x="398" y="162"/>
      <point x="414" y="191"/>
      <point x="421" y="226" type="curve" smooth="yes"/>
      <point x="423" y="234" type="line"/>
      <point x="555" y="234" type="line"/>
      <point x="553" y="227" type="line" smooth="yes"/>
      <point x="540" y="163"/>
      <point x="513" y="112"/>
      <point x="473" y="73" type="curve" smooth="yes"/>
      <point x="433" y="34"/>
      <point x="383" y="9"/>
      <point x="323" y="-2" type="curve"/>
      <point x="241" y="-160" type="line"/>
      <point x="124" y="-160" type="line"/>
      <point x="218" y="-7" type="line"/>
      <point x="71" y="6"/>
      <point x="17" y="99"/>
      <point x="53" y="273" type="curve" smooth="yes"/>
      <point x="86" y="435" type="line" smooth="yes"/>
      <point x="126" y="623"/>
      <point x="231" y="717"/>
      <point x="404" y="717" type="curve" smooth="yes"/>
      <point x="481" y="717"/>
      <point x="539" y="696"/>
      <point x="576" y="655" type="curve" smooth="yes"/>
      <point x="614" y="614"/>
      <point x="624" y="556"/>
      <point x="608" y="482" type="curve" smooth="yes"/>
      <point x="607" y="475" type="line"/>
    </contour>
  </outline>
</glyph>
<glyph name="Idieresis" format="2">
  <advance width="267"/>
  <unicode hex="00CF"/>
  <outline>
    <contour>
      <point x="12" y="0" type="line"/>
      <point x="146" y="0" type="line"/>
      <point x="293" y="707" type="line"/>
      <point x="159" y="707" type="line"/>
    </contour>
    <contour>
      <point x="86" y="775" type="line"/>
      <point x="195" y="775" type="line"/>
      <point x="220" y="894" type="line"/>
      <point x="111" y="894" type="line"/>
    </contour>
    <contour>
      <point x="282" y="775" type="line"/>
      <point x="392" y="775" type="line"/>
      <point x="417" y="894" type="line"/>
      <point x="307" y="894" type="line"/>
    </contour>
  </outline>
</glyph>
<glyph name="Eth" format="2">
  <advance width="685"/>
  <unicode hex="00D0"/>
  <outline>
    <contour>
      <point x="59" y="0" type="line"/>
      <point x="304" y="0" type="line" smooth="yes"/>
      <point x="383" y="0"/>
      <point x="451" y="22"/>
      <point x="506" y="66" type="curve" smooth="yes"/>
      <point x="561" y="110"/>
      <point x="600" y="182"/>
      <point x="621" y="282" type="curve" smooth="yes"/>
      <point x="651" y="426" type="line" smooth="yes"/>
      <point x="671" y="526"/>
      <point x="663" y="597"/>
      <point x="627" y="641" type="curve" smooth="yes"/>
      <point x="591" y="685"/>
      <point x="534" y="707"/>
      <point x="455" y="707" type="curve" smooth="yes"/>
      <point x="206" y="707" type="line"/>
      <point x="146" y="419" type="line"/>
      <point x="71" y="419" type="line"/>
      <point x="47" y="301" type="line"/>
      <point x="122" y="301" type="line"/>
    </contour>
    <contour>
      <point x="217" y="117" type="line"/>
      <point x="256" y="301" type="line"/>
      <point x="377" y="301" type="line"/>
      <point x="401" y="419" type="line"/>
      <point x="280" y="419" type="line"/>
      <point x="316" y="590" type="line"/>
      <point x="430" y="590" type="line" smooth="yes"/>
      <point x="471" y="590"/>
      <point x="498" y="576"/>
      <point x="512" y="549" type="curve" smooth="yes"/>
      <point x="527" y="522"/>
      <point x="528" y="479"/>
      <point x="515" y="419" type="curve" smooth="yes"/>
      <point x="487" y="283" type="line" smooth="yes"/>
      <point x="475" y="226"/>
      <point x="456" y="184"/>
      <point x="431" y="157" type="curve" smooth="yes"/>
      <point x="405" y="130"/>
      <point x="371" y="117"/>
      <point x="331" y="117" type="curve" smooth="yes"/>
    </contour>
  </outline>
</glyph>
<glyph name="Oslash" format="2">
  <advance width="614"/>
  <unicode hex="00D8"/>
  <outline>
    <contour>
      <point x="584" y="636" type="line"/>
      <point x="613" y="590"/>
      <point x="617" y="522"/>
      <point x="598" y="435" type="curve" smooth="yes"/>
      <point x="565" y="273" type="line" smooth="yes"/>
      <point x="544" y="173"/>
      <point x="506" y="102"/>
      <point x="450" y="58" type="curve" smooth="yes"/>
      <point x="394" y="14"/>
      <point x="326" y="-8"/>
      <point x="247" y="-8" type="curve" smooth="yes"/>
      <point x="186" y="-8"/>
      <point x="140" y="4"/>
      <point x="105" y="29" type="curve"/>
      <point x="66" y="-20" type="line"/>
      <point x="-8" y="-20" type="line"/>
      <point x="65" y="73" type="line"/>
      <point x="39" y="119"/>
      <point x="34" y="185"/>
      <point x="53" y="273" type="curve" smooth="yes"/>
      <point x="86" y="435" type="line" smooth="yes"/>
      <point x="126" y="623"/>
      <point x="231" y="717"/>
      <point x="402" y="717" type="curve" smooth="yes"/>
      <point x="463" y="717"/>
      <point x="511" y="704"/>
      <point x="546" y="679" type="curve"/>
      <point x="587" y="732" type="line"/>
      <point x="660" y="732" type="line"/>
    </contour>
    <contour>
      <point x="180" y="218" type="curve"/>
      <point x="456" y="566" type="line"/>
      <point x="441" y="588"/>
      <point x="416" y="599"/>
      <point x="378" y="599" type="curve" smooth="yes"/>
      <point x="335" y="599"/>
      <point x="301" y="586"/>
      <point x="276" y="560" type="curve" smooth="yes"/>
      <point x="252" y="534"/>
      <point x="233" y="489"/>
      <point x="220" y="428" type="curve" smooth="yes"/>
      <point x="188" y="275" type="line" smooth="yes"/>
      <point x="183" y="251"/>
      <point x="180" y="232"/>
    </contour>
    <contour>
      <point x="472" y="494" type="curve"/>
      <point x="195" y="143" type="line"/>
      <point x="210" y="122"/>
      <point x="238" y="112"/>
      <point x="276" y="112" type="curve" smooth="yes"/>
      <point x="317" y="112"/>
      <point x="350" y="125"/>
      <point x="375" y="151" type="curve" smooth="yes"/>
      <point x="401" y="177"/>
      <point x="419" y="218"/>
      <point x="431" y="275" type="curve" smooth="yes"/>
      <point x="463" y="428" type="line" smooth="yes"/>
      <point x="468" y="450"/>
      <point x="470" y="472"/>
    </contour>
  </outline>
</glyph>
<glyph name="Thorn" format="2">
  <advance width="580"/>
  <unicode hex="00DE"/>
  <outline>
    <contour>
      <point x="5" y="0" type="line"/>
      <point x="140" y="0" type="line"/>
      <point x="172" y="153" type="line"/>
      <point x="302" y="153" type="line" smooth="yes"/>
      <point x="374" y="153"/>
      <point x="434" y="172"/>
      <point x="483" y="211" type="curve" smooth="yes"/>
      <point x="532" y="250"/>
      <point x="564" y="302"/>
      <point x="578" y="368" type="curve" smooth="yes"/>
      <point x="592" y="437"/>
      <point x="582" y="490"/>
      <point x="549" y="530" type="curve" smooth="yes"/>
      <point x="517" y="570"/>
      <point x="465" y="590"/>
      <point x="393" y="590" type="curve" smooth="yes"/>
      <point x="263" y="590" type="line"/>
      <point x="287" y="707" type="line"/>
      <point x="152" y="707" type="line"/>
    </contour>
    <contour>
      <point x="196" y="269" type="line"/>
      <point x="238" y="473" type="line"/>
      <point x="361" y="473" type="line" smooth="yes"/>
      <point x="394" y="473"/>
      <point x="418" y="464"/>
      <point x="433" y="446" type="curve" smooth="yes"/>
      <point x="447" y="428"/>
      <point x="451" y="402"/>
      <point x="444" y="368" type="curve" smooth="yes"/>
      <point x="437" y="337"/>
      <point x="422" y="312"/>
      <point x="400" y="295" type="curve" smooth="yes"/>
      <point x="379" y="278"/>
      <point x="351" y="269"/>
      <point x="319" y="269" type="curve" smooth="yes"/>
    </contour>
  </outline>
</glyph>
<glyph name="germandbls" format="2">
  <advance width="536"/>
  <unicode hex="00DF"/>
  <outline>
    <contour>
      <point x="204" y="-4" type="line"/>
      <point x="246" y="-4" type="line" smooth="yes"/>
      <point x="299" y="-4"/>
      <point x="340" y="4"/>
      <point x="370" y="19" type="curve" smooth="yes"/>
      <point x="400" y="34"/>
      <point x="423" y="59"/>
      <point x="440" y="92" type="curve" smooth="yes"/>
      <point x="457" y="125"/>
      <point x="471" y="172"/>
      <point x="483" y="233" type="curve" smooth="yes"/>
      <point x="492" y="274"/>
      <point x="498" y="306"/>
      <point x="500" y="330" type="curve" smooth="yes"/>
      <point x="502" y="354"/>
      <point x="500" y="374"/>
      <point x="493" y="389" type="curve" smooth="yes"/>
      <point x="486" y="404"/>
      <point x="475" y="417"/>
      <point x="457" y="428" type="curve"/>
      <point x="480" y="442"/>
      <point x="498" y="459"/>
      <point x="511" y="478" type="curve" smooth="yes"/>
      <point x="524" y="497"/>
      <point x="534" y="521"/>
      <point x="540" y="548" type="curve" smooth="yes"/>
      <point x="551" y="602"/>
      <point x="542" y="644"/>
      <point x="511" y="673" type="curve" smooth="yes"/>
      <point x="480" y="702"/>
      <point x="431" y="717"/>
      <point x="364" y="717" type="curve" smooth="yes"/>
      <point x="289" y="717"/>
      <point x="230" y="699"/>
      <point x="189" y="664" type="curve" smooth="yes"/>
      <point x="148" y="629"/>
      <point x="120" y="578"/>
      <point x="106" y="510" type="curve" smooth="yes"/>
      <point x="0" y="0" type="line"/>
      <point x="127" y="0" type="line"/>
      <point x="235" y="521" type="line" smooth="yes"/>
      <point x="242" y="551"/>
      <point x="254" y="573"/>
      <point x="271" y="587" type="curve" smooth="yes"/>
      <point x="288" y="601"/>
      <point x="311" y="608"/>
      <point x="342" y="608" type="curve" smooth="yes"/>
      <point x="371" y="608"/>
      <point x="391" y="603"/>
      <point x="403" y="592" type="curve" smooth="yes"/>
      <point x="415" y="581"/>
      <point x="417" y="565"/>
      <point x="413" y="542" type="curve" smooth="yes"/>
      <point x="408" y="520"/>
      <point x="400" y="504"/>
      <point x="388" y="493" type="curve" smooth="yes"/>
      <point x="375" y="482"/>
      <point x="359" y="476"/>
      <point x="336" y="476" type="curve" smooth="yes"/>
      <point x="304" y="476" type="line"/>
      <point x="282" y="371" type="line"/>
      <point x="306" y="371" type="line" smooth="yes"/>
      <point x="331" y="371"/>
      <point x="347" y="366"/>
      <point x="357" y="357" type="curve" smooth="yes"/>
      <point x="367" y="348"/>
      <point x="371" y="334"/>
      <point x="371" y="316" type="curve" smooth="yes"/>
      <point x="370" y="298"/>
      <point x="367" y="272"/>
      <point x="359" y="236" type="curve" smooth="yes"/>
      <point x="351" y="199"/>
      <point x="344" y="171"/>
      <point x="338" y="154" type="curve" smooth="yes"/>
      <point x="332" y="137"/>
      <point x="323" y="124"/>
      <point x="311" y="115" type="curve" smooth="yes"/>
      <point x="299" y="106"/>
      <point x="282" y="102"/>
      <point x="259" y="102" type="curve" smooth="yes"/>
      <point x="226" y="102" type="line"/>
    </contour>
  </outline>
</glyph>
<glyph name="ae" format="2">
  <advance width="814"/>
  <unicode hex="00E6"/>
  <outline>
    <contour>
      <point x="448" y="214" type="line" smooth="yes"/>
      <point x="439" y="174"/>
      <point x="442" y="146"/>
      <point x="456" y="129" type="curve" smooth="yes"/>
      <point x="469" y="112"/>
      <point x="492" y="103"/>
      <point x="525" y="103" type="curve" smooth="yes"/>
      <point x="550" y="103"/>
      <point x="570" y="108"/>
      <point x="588" y="119" type="curve" smooth="yes"/>
      <point x="605" y="130"/>
      <point x="616" y="145"/>
      <point x="622" y="164" type="curve" smooth="yes"/>
      <point x="623" y="167" type="line"/>
      <point x="744" y="167" type="line"/>
      <point x="743" y="162" type="line" smooth="yes"/>
      <point x="736" y="131"/>
      <point x="722" y="103"/>
      <point x="702" y="77" type="curve" smooth="yes"/>
      <point x="682" y="51"/>
      <point x="654" y="31"/>
      <point x="621" y="16" type="curve" smooth="yes"/>
      <point x="588" y="1"/>
      <point x="550" y="-6"/>
      <point x="507" y="-6" type="curve" smooth="yes"/>
      <point x="436" y="-6"/>
      <point x="384" y="15"/>
      <point x="352" y="58" type="curve"/>
      <point x="328" y="38"/>
      <point x="301" y="22"/>
      <point x="270" y="11" type="curve" smooth="yes"/>
      <point x="240" y="0"/>
      <point x="206" y="-6"/>
      <point x="171" y="-6" type="curve" smooth="yes"/>
      <point x="113" y="-6"/>
      <point x="70" y="8"/>
      <point x="42" y="38" type="curve" smooth="yes"/>
      <point x="14" y="68"/>
      <point x="5" y="109"/>
      <point x="15" y="160" type="curve" smooth="yes"/>
      <point x="25" y="208"/>
      <point x="49" y="245"/>
      <point x="87" y="273" type="curve" smooth="yes"/>
      <point x="125" y="301"/>
      <point x="172" y="314"/>
      <point x="229" y="314" type="curve" smooth="yes"/>
      <point x="342" y="314" type="line"/>
      <point x="351" y="356" type="line" smooth="yes"/>
      <point x="363" y="413"/>
      <point x="341" y="441"/>
      <point x="284" y="441" type="curve" smooth="yes"/>
      <point x="260" y="441"/>
      <point x="239" y="435"/>
      <point x="223" y="423" type="curve" smooth="yes"/>
      <point x="206" y="411"/>
      <point x="196" y="396"/>
      <point x="192" y="376" type="curve" smooth="yes"/>
      <point x="192" y="373" type="line"/>
      <point x="74" y="373" type="line"/>
      <point x="74" y="377" type="line" smooth="yes"/>
      <point x="85" y="427"/>
      <point x="111" y="466"/>
      <point x="152" y="495" type="curve" smooth="yes"/>
      <point x="193" y="524"/>
      <point x="245" y="539"/>
      <point x="305" y="539" type="curve" smooth="yes"/>
      <point x="371" y="539"/>
      <point x="418" y="521"/>
      <point x="449" y="487" type="curve"/>
      <point x="494" y="521"/>
      <point x="548" y="539"/>
      <point x="608" y="539" type="curve" smooth="yes"/>
      <point x="674" y="539"/>
      <point x="723" y="518"/>
      <point x="753" y="478" type="curve" smooth="yes"/>
      <point x="784" y="438"/>
      <point x="792" y="378"/>
      <point x="775" y="299" type="curve" smooth="yes"/>
      <point x="760" y="228" type="line"/>
      <point x="450" y="228" type="line"/>
    </contour>
    <contour>
      <point x="511" y="404" type="curve" smooth="yes"/>
      <point x="491" y="387"/>
      <point x="477" y="358"/>
      <point x="469" y="318" type="curve" smooth="yes"/>
      <point x="468" y="315" type="line"/>
      <point x="652" y="315" type="line"/>
      <point x="655" y="329" type="line" smooth="yes"/>
      <point x="670" y="397"/>
      <point x="646" y="430"/>
      <point x="585" y="430" type="curve" smooth="yes"/>
      <point x="555" y="430"/>
      <point x="531" y="421"/>
    </contour>
    <contour>
      <point x="318" y="195" type="curve" smooth="yes"/>
      <point x="324" y="227" type="line"/>
      <point x="232" y="227" type="line" smooth="yes"/>
      <point x="179" y="227"/>
      <point x="148" y="206"/>
      <point x="139" y="163" type="curve" smooth="yes"/>
      <point x="130" y="119"/>
      <point x="151" y="96"/>
      <point x="203" y="96" type="curve" smooth="yes"/>
      <point x="266" y="96"/>
      <point x="304" y="129"/>
    </contour>
  </outline>
</glyph>
<glyph name="ccedilla" format="2">
  <advance width="517"/>
  <unicode hex="00E7"/>
  <outline>
    <contour>
      <point x="365" y="339" type="line"/>
      <point x="367" y="345" type="line" smooth="yes"/>
      <point x="372" y="370"/>
      <point x="368" y="390"/>
      <point x="356" y="404" type="curve" smooth="yes"/>
      <point x="344" y="418"/>
      <point x="325" y="426"/>
      <point x="298" y="426" type="curve" smooth="yes"/>
      <point x="237" y="426"/>
      <point x="198" y="388"/>
      <point x="182" y="314" type="curve" smooth="yes"/>
      <point x="162" y="218" type="line" smooth="yes"/>
      <point x="154" y="178"/>
      <point x="156" y="149"/>
      <point x="168" y="132" type="curve" smooth="yes"/>
      <point x="181" y="115"/>
      <point x="202" y="106"/>
      <point x="231" y="106" type="curve" smooth="yes"/>
      <point x="258" y="106"/>
      <point x="281" y="113"/>
      <point x="298" y="127" type="curve" smooth="yes"/>
      <point x="316" y="141"/>
      <point x="328" y="159"/>
      <point x="333" y="184" type="curve" smooth="yes"/>
      <point x="335" y="190" type="line"/>
      <point x="456" y="190" type="line"/>
      <point x="454" y="183" type="line" smooth="yes"/>
      <point x="444" y="135"/>
      <point x="424" y="96"/>
      <point x="393" y="65" type="curve" smooth="yes"/>
      <point x="361" y="34"/>
      <point x="322" y="12"/>
      <point x="274" y="1" type="curve"/>
      <point x="191" y="-160" type="line"/>
      <point x="74" y="-160" type="line"/>
      <point x="169" y="-4" type="line"/>
      <point x="114" y="2"/>
      <point x="76" y="23"/>
      <point x="51" y="59" type="curve" smooth="yes"/>
      <point x="27" y="95"/>
      <point x="22" y="148"/>
      <point x="36" y="217" type="curve" smooth="yes"/>
      <point x="57" y="316" type="line" smooth="yes"/>
      <point x="73" y="392"/>
      <point x="103" y="448"/>
      <point x="150" y="484" type="curve" smooth="yes"/>
      <point x="196" y="520"/>
      <point x="252" y="539"/>
      <point x="319" y="539" type="curve" smooth="yes"/>
      <point x="385" y="539"/>
      <point x="432" y="521"/>
      <point x="462" y="488" type="curve" smooth="yes"/>
      <point x="493" y="455"/>
      <point x="501" y="408"/>
      <point x="489" y="349" type="curve" smooth="yes"/>
      <point x="486" y="339" type="line"/>
    </contour>
  </outline>
</glyph>
<glyph name="eth" format="2">
  <advance width="521"/>
  <unicode hex="00F0"/>
  <outline>
    <contour>
      <point x="202" y="-11" type="curve" smooth="yes"/>
      <point x="271" y="-11"/>
      <point x="328" y="9"/>
      <point x="374" y="50" type="curve" smooth="yes"/>
      <point x="421" y="91"/>
      <point x="451" y="148"/>
      <point x="466" y="223" type="curve" smooth="yes"/>
      <point x="475" y="265" type="line" smooth="yes"/>
      <point x="485" y="313"/>
      <point x="486" y="359"/>
      <point x="478" y="403" type="curve" smooth="yes"/>
      <point x="470" y="447"/>
      <point x="453" y="495"/>
      <point x="427" y="548" type="curve" smooth="yes"/>
      <point x="409" y="583" type="line"/>
      <point x="487" y="605" type="line"/>
      <point x="478" y="686" type="line"/>
      <point x="373" y="655" type="line"/>
      <point x="345" y="712" type="line"/>
      <point x="214" y="712" type="line"/>
      <point x="258" y="623" type="line"/>
      <point x="171" y="598" type="line"/>
      <point x="180" y="517" type="line"/>
      <point x="292" y="550" type="line"/>
      <point x="336" y="462" type="line"/>
      <point x="318" y="472"/>
      <point x="295" y="476"/>
      <point x="268" y="476" type="curve" smooth="yes"/>
      <point x="212" y="476"/>
      <point x="164" y="456"/>
      <point x="125" y="417" type="curve" smooth="yes"/>
      <point x="86" y="378"/>
      <point x="59" y="325"/>
      <point x="45" y="259" type="curve" smooth="yes"/>
      <point x="36" y="214" type="line" smooth="yes"/>
      <point x="21" y="144"/>
      <point x="28" y="89"/>
      <point x="56" y="49" type="curve" smooth="yes"/>
      <point x="85" y="9"/>
      <point x="134" y="-11"/>
    </contour>
    <contour>
      <point x="154" y="216" type="curve" smooth="yes"/>
      <point x="164" y="263" type="line" smooth="yes"/>
      <point x="179" y="337"/>
      <point x="219" y="374"/>
      <point x="284" y="374" type="curve" smooth="yes"/>
      <point x="347" y="374"/>
      <point x="371" y="336"/>
      <point x="355" y="261" type="curve" smooth="yes"/>
      <point x="346" y="217" type="line" smooth="yes"/>
      <point x="330" y="138"/>
      <point x="290" y="99"/>
      <point x="227" y="99" type="curve" smooth="yes"/>
      <point x="162" y="99"/>
      <point x="138" y="138"/>
    </contour>
  </outline>
</glyph>
<glyph name="oslash" format="2">
  <advance width="522"/>
  <unicode hex="00F8"/>
  <outline>
    <contour>
      <point x="-15" y="-30" type="line"/>
      <point x="49" y="-30" type="line"/>
      <point x="90" y="20" type="line"/>
      <point x="119" y="2"/>
      <point x="158" y="-6"/>
      <point x="206" y="-6" type="curve" smooth="yes"/>
      <point x="272" y="-6"/>
      <point x="329" y="12"/>
      <point x="374" y="48" type="curve" smooth="yes"/>
      <point x="419" y="84"/>
      <point x="450" y="141"/>
      <point x="466" y="217" type="curve" smooth="yes"/>
      <point x="487" y="316" type="line" smooth="yes"/>
      <point x="501" y="386"/>
      <point x="495" y="439"/>
      <point x="469" y="477" type="curve"/>
      <point x="537" y="559" type="line"/>
      <point x="474" y="559" type="line"/>
      <point x="434" y="511" type="line"/>
      <point x="405" y="529"/>
      <point x="366" y="539"/>
      <point x="319" y="539" type="curve" smooth="yes"/>
      <point x="252" y="539"/>
      <point x="196" y="520"/>
      <point x="150" y="484" type="curve" smooth="yes"/>
      <point x="103" y="448"/>
      <point x="73" y="392"/>
      <point x="57" y="316" type="curve" smooth="yes"/>
      <point x="36" y="217" type="line" smooth="yes"/>
      <point x="22" y="147"/>
      <point x="27" y="92"/>
      <point x="54" y="54" type="curve"/>
    </contour>
    <contour>
      <point x="157" y="178" type="line"/>
      <point x="158" y="190"/>
      <point x="159" y="203"/>
      <point x="162" y="218" type="curve" smooth="yes"/>
      <point x="182" y="314" type="line" smooth="yes"/>
      <point x="198" y="388"/>
      <point x="236" y="426"/>
      <point x="296" y="426" type="curve" smooth="yes"/>
      <point x="319" y="426"/>
      <point x="336" y="420"/>
      <point x="348" y="408" type="curve"/>
    </contour>
    <contour>
      <point x="176" y="124" type="curve"/>
      <point x="365" y="352" type="line"/>
      <point x="365" y="341"/>
      <point x="363" y="328"/>
      <point x="360" y="314" type="curve" smooth="yes"/>
      <point x="340" y="218" type="line" smooth="yes"/>
      <point x="325" y="144"/>
      <point x="288" y="106"/>
      <point x="229" y="106" type="curve" smooth="yes"/>
      <point x="205" y="106"/>
      <point x="187" y="112"/>
    </contour>
  </outline>
</glyph>
<glyph name="Aogonek" format="2">
  <advance width="620"/>
  <unicode hex="0104"/>
  <outline>
    <component base="A"/>
    <contour>
      <point x="477" y="-227" type="curve"/>
      <point x="495" y="-138" type="line"/>
      <point x="454" y="-137"/>
      <point x="428" y="-140"/>
      <point x="408" y="-114" type="curve"/>
      <point x="531" y="0" type="line"/>
      <point x="531" y="0" type="line"/>
      <point x="422" y="0" type="line"/>
      <point x="308" y="-106" type="line"/>
      <point x="312" y="-134"/>
      <point x="320" y="-157"/>
      <point x="337" y="-174" type="curve" smooth="yes"/>
      <point x="367" y="-209"/>
      <point x="414" y="-226"/>
    </contour>
  </outline>
</glyph>
<glyph name="dcroat" format="2">
  <advance width="526"/>
  <unicode hex="0111"/>
  <outline>
    <component base="d"/>
    <contour>
      <point x="304" y="581" type="line"/>
      <point x="592" y="581" type="line"/>
      <point x="607" y="654" type="line"/>
      <point x="319" y="654" type="line"/>
    </contour>
  </outline>
</glyph>
<glyph name="gcommaaccent" format="2">
  <advance width="526"/>
  <unicode hex="0123"/>
  <outline>
    <component base="g"/>
    <contour>
      <point x="265" y="564" type="line"/>
      <point x="365" y="564" type="line"/>
      <point x="395" y="707" type="line"/>
      <point x="278" y="626" type="line"/>
    </contour>
  </outline>
</glyph>
<glyph name="Hbar" format="2">
  <advance width="623"/>
  <unicode hex="0126"/>
  <outline>
    <component base="H"/>
    <contour>
      <point x="87" y="633" type="line"/>
      <point x="689" y="633" type="line"/>
      <point x="664" y="515" type="line"/>
      <point x="62" y="515" type="line"/>
    </contour>
  </outline>
</glyph>
<glyph name="iogonek" format="2">
  <advance width="246"/>
  <unicode hex="012F"/>
  <outline>
    <component base="i"/>
    <contour>
      <point x="40" y="13" type="line"/>
      <point x="132" y="13" type="line"/>
      <point x="129" y="1" type="line"/>
      <point x="27" y="-49" type="line"/>
      <point x="46" y="-75"/>
      <point x="72" y="-72"/>
      <point x="114" y="-73" type="curve"/>
      <point x="95" y="-162" type="line"/>
      <point x="33" y="-161"/>
      <point x="-15" y="-144"/>
      <point x="-45" y="-109" type="curve" smooth="yes"/>
      <point x="-61" y="-92"/>
      <point x="-69" y="-69"/>
      <point x="-74" y="-41" type="curve"/>
    </contour>
  </outline>
</glyph>
<glyph name="dotlessi" format="2">
  <advance width="246"/>
  <unicode hex="0131"/>
  <outline>
    <contour>
      <point x="116" y="532" type="line"/>
      <point x="242" y="532" type="line"/>
      <point x="131" y="0" type="line"/>
      <point x="5" y="0" type="line"/>
    </contour>
  </outline>
</glyph>
<glyph name="IJ" format="2">
  <advance width="628"/>
  <unicode hex="0132"/>
  <outline>
    <contour>
      <point x="134" y="24" type="curve" smooth="yes"/>
      <point x="99" y="44"/>
      <point x="75" y="72"/>
      <point x="61" y="109" type="curve" smooth="yes"/>
      <point x="48" y="141"/>
      <point x="45" y="177"/>
      <point x="51" y="216" type="curve"/>
      <point x="186" y="216" type="line"/>
      <point x="183" y="186"/>
      <point x="188" y="162"/>
      <point x="201" y="144" type="curve" smooth="yes"/>
      <point x="217" y="122"/>
      <point x="244" y="111"/>
      <point x="281" y="111" type="curve" smooth="yes"/>
      <point x="318" y="111"/>
      <point x="349" y="122"/>
      <point x="376" y="144" type="curve" smooth="yes"/>
      <point x="403" y="166"/>
      <point x="419" y="198"/>
      <point x="427" y="238" type="curve" smooth="yes"/>
      <point x="525" y="707" type="line"/>
      <point x="660" y="707" type="line"/>
      <point x="561" y="233" type="line" smooth="yes"/>
      <point x="552" y="187"/>
      <point x="532" y="146"/>
      <point x="503" y="109" type="curve" smooth="yes"/>
      <point x="473" y="72"/>
      <point x="437" y="44"/>
      <point x="394" y="24" type="curve" smooth="yes"/>
      <point x="351" y="4"/>
      <point x="305" y="-6"/>
      <point x="257" y="-6" type="curve" smooth="yes"/>
      <point x="209" y="-6"/>
      <point x="169" y="4"/>
    </contour>
    <contour>
      <point x="152" y="707" type="line"/>
      <point x="287" y="707" type="line"/>
      <point x="213" y="352" type="line"/>
      <point x="78" y="352" type="line"/>
    </contour>
  </outline>
</glyph>
<glyph name="ij" format="2">
  <advance width="495"/>
  <unicode hex="0133"/>
  <outline>
    <contour>
      <point x="147" y="707" type="line"/>
      <point x="274" y="707" type="line"/>
      <point x="253" y="605" type="line"/>
      <point x="126" y="605" type="line"/>
    </contour>
    <contour>
      <point x="406" y="707" type="line"/>
      <point x="532" y="707" type="line"/>
      <point x="511" y="605" type="line"/>
      <point x="385" y="605" type="line"/>
    </contour>
    <contour>
      <point x="38" y="-127" type="curve" smooth="yes"/>
      <point x="9" y="-100"/>
      <point x="-3" y="-61"/>
      <point x="4" y="-13" type="curve"/>
      <point x="126" y="-13" type="line"/>
      <point x="126" y="-29"/>
      <point x="132" y="-43"/>
      <point x="145" y="-53" type="curve" smooth="yes"/>
      <point x="158" y="-63"/>
      <point x="156" y="-68"/>
      <point x="180" y="-68" type="curve" smooth="yes"/>
      <point x="238" y="-68"/>
      <point x="254" y="-35"/>
      <point x="267" y="31" type="curve" smooth="yes"/>
      <point x="281" y="96" type="line"/>
      <point x="259" y="50"/>
      <point x="241" y="51"/>
      <point x="187" y="51" type="curve" smooth="yes"/>
      <point x="136" y="51"/>
      <point x="95" y="59"/>
      <point x="70" y="96" type="curve" smooth="yes"/>
      <point x="45" y="133"/>
      <point x="39" y="187"/>
      <point x="54" y="261" type="curve" smooth="yes"/>
      <point x="111" y="532" type="line"/>
      <point x="238" y="532" type="line"/>
      <point x="182" y="265" type="line" smooth="yes"/>
      <point x="167" y="191"/>
      <point x="178" y="164"/>
      <point x="233" y="164" type="curve" smooth="yes"/>
      <point x="291" y="164"/>
      <point x="302" y="205"/>
      <point x="314" y="265" type="curve" smooth="yes"/>
      <point x="370" y="532" type="line"/>
      <point x="496" y="532" type="line"/>
      <point x="393" y="39" type="line" smooth="yes"/>
      <point x="380" y="-24"/>
      <point x="350" y="-75"/>
      <point x="305" y="-112" type="curve" smooth="yes"/>
      <point x="259" y="-149"/>
      <point x="242" y="-168"/>
      <point x="174" y="-168" type="curve" smooth="yes"/>
      <point x="112" y="-168"/>
      <point x="66" y="-154"/>
    </contour>
  </outline>
</glyph>
<glyph name="Lslash" format="2">
  <advance width="528"/>
  <unicode hex="0141"/>
  <outline>
    <component base="L"/>
    <contour>
      <point x="23" y="279" type="line"/>
      <point x="342" y="416" type="line"/>
      <point x="366" y="529" type="line"/>
      <point x="48" y="392" type="line"/>
    </contour>
  </outline>
</glyph>
<glyph name="lslash" format="2">
  <advance width="293"/>
  <unicode hex="0142"/>
  <outline>
    <component base="l"/>
    <contour>
      <point x="-7" y="280" type="line"/>
      <point x="313" y="416" type="line"/>
      <point x="337" y="530" type="line"/>
      <point x="17" y="393" type="line"/>
    </contour>
  </outline>
</glyph>
<glyph name="Eng" format="2">
  <advance width="649"/>
  <unicode hex="014A"/>
  <outline>
    <contour>
      <point x="278" y="-173" type="line"/>
      <point x="336" y="-173" type="line" smooth="yes"/>
      <point x="387" y="-173"/>
      <point x="430" y="-159"/>
      <point x="464" y="-131" type="curve" smooth="yes"/>
      <point x="498" y="-103"/>
      <point x="521" y="-64"/>
      <point x="534" y="0" type="curve"/>
      <point x="681" y="707" type="line"/>
      <point x="547" y="707" type="line"/>
      <point x="455" y="264" type="line"/>
      <point x="287" y="707" type="line"/>
      <point x="152" y="707" type="line"/>
      <point x="5" y="0" type="line"/>
      <point x="140" y="0" type="line"/>
      <point x="232" y="441" type="line"/>
      <point x="400" y="0" type="line"/>
      <point x="395" y="-25"/>
      <point x="387" y="-41"/>
      <point x="378" y="-50" type="curve" smooth="yes"/>
      <point x="368" y="-59"/>
      <point x="355" y="-63"/>
      <point x="337" y="-63" type="curve" smooth="yes"/>
      <point x="301" y="-63" type="line"/>
    </contour>
  </outline>
</glyph>
<glyph name="eng" format="2">
  <advance width="532"/>
  <unicode hex="014B"/>
  <outline>
    <contour>
      <point x="166" y="-173" type="line"/>
      <point x="224" y="-173" type="line" smooth="yes"/>
      <point x="275" y="-173"/>
      <point x="318" y="-159"/>
      <point x="352" y="-131" type="curve" smooth="yes"/>
      <point x="386" y="-103"/>
      <point x="403" y="-93"/>
      <point x="422" y="0" type="curve"/>
      <point x="295" y="0" type="line"/>
      <point x="288" y="-35"/>
      <point x="286" y="-45"/>
      <point x="276" y="-54" type="curve" smooth="yes"/>
      <point x="266" y="-63"/>
      <point x="256" y="-63"/>
      <point x="232" y="-63" type="curve" smooth="yes"/>
      <point x="189" y="-63" type="line"/>
    </contour>
    <contour>
      <point x="0" y="0" type="line"/>
      <point x="127" y="0" type="line"/>
      <point x="196" y="332" type="line" smooth="yes"/>
      <point x="202" y="362"/>
      <point x="215" y="385"/>
      <point x="234" y="401" type="curve" smooth="yes"/>
      <point x="254" y="417"/>
      <point x="276" y="426"/>
      <point x="301" y="426" type="curve" smooth="yes"/>
      <point x="326" y="426"/>
      <point x="345" y="417"/>
      <point x="356" y="401" type="curve" smooth="yes"/>
      <point x="368" y="385"/>
      <point x="370" y="362"/>
      <point x="364" y="332" type="curve" smooth="yes"/>
      <point x="295" y="0" type="line"/>
      <point x="422" y="0" type="line"/>
      <point x="494" y="347" type="line" smooth="yes"/>
      <point x="506" y="406"/>
      <point x="501" y="453"/>
      <point x="478" y="487" type="curve" smooth="yes"/>
      <point x="455" y="521"/>
      <point x="417" y="539"/>
      <point x="362" y="539" type="curve" smooth="yes"/>
      <point x="338" y="539"/>
      <point x="314" y="534"/>
      <point x="290" y="525" type="curve" smooth="yes"/>
      <point x="266" y="516"/>
      <point x="244" y="502"/>
      <point x="225" y="484" type="curve"/>
      <point x="235" y="532" type="line"/>
      <point x="111" y="532" type="line"/>
    </contour>
  </outline>
</glyph>
<glyph name="OE" format="2">
  <advance width="891"/>
  <unicode hex="0152"/>
  <outline>
    <contour>
      <point x="631" y="590" type="line"/>
      <point x="594" y="415" type="line"/>
      <point x="841" y="415" type="line"/>
      <point x="817" y="298" type="line"/>
      <point x="570" y="298" type="line"/>
      <point x="532" y="117" type="line"/>
      <point x="825" y="117" type="line"/>
      <point x="801" y="0" type="line"/>
      <point x="384" y="0" type="line"/>
      <point x="391" y="32" type="line"/>
      <point x="344" y="5"/>
      <point x="293" y="-8"/>
      <point x="238" y="-8" type="curve" smooth="yes"/>
      <point x="164" y="-8"/>
      <point x="110" y="14"/>
      <point x="75" y="58" type="curve" smooth="yes"/>
      <point x="40" y="102"/>
      <point x="32" y="174"/>
      <point x="53" y="273" type="curve" smooth="yes"/>
      <point x="86" y="435" type="line" smooth="yes"/>
      <point x="107" y="533"/>
      <point x="145" y="605"/>
      <point x="199" y="650" type="curve" smooth="yes"/>
      <point x="254" y="695"/>
      <point x="318" y="717"/>
      <point x="390" y="717" type="curve" smooth="yes"/>
      <point x="445" y="717"/>
      <point x="489" y="703"/>
      <point x="525" y="676" type="curve"/>
      <point x="531" y="707" type="line"/>
      <point x="948" y="707" type="line"/>
      <point x="924" y="590" type="line"/>
    </contour>
    <contour>
      <point x="463" y="428" type="line" smooth="yes"/>
      <point x="475" y="488"/>
      <point x="475" y="532"/>
      <point x="460" y="559" type="curve" smooth="yes"/>
      <point x="446" y="586"/>
      <point x="419" y="599"/>
      <point x="378" y="599" type="curve" smooth="yes"/>
      <point x="335" y="599"/>
      <point x="301" y="586"/>
      <point x="276" y="560" type="curve" smooth="yes"/>
      <point x="252" y="534"/>
      <point x="233" y="489"/>
      <point x="220" y="428" type="curve" smooth="yes"/>
      <point x="188" y="275" type="line" smooth="yes"/>
      <point x="176" y="217"/>
      <point x="178" y="176"/>
      <point x="191" y="150" type="curve" smooth="yes"/>
      <point x="205" y="124"/>
      <point x="233" y="112"/>
      <point x="276" y="112" type="curve" smooth="yes"/>
      <point x="317" y="112"/>
      <point x="350" y="125"/>
      <point x="375" y="151" type="curve" smooth="yes"/>
      <point x="401" y="177"/>
      <point x="419" y="218"/>
      <point x="431" y="275" type="curve" smooth="yes"/>
    </contour>
  </outline>
</glyph>
